<svg xmlns="http://www.w3.org/2000/svg" width="41" height="37" viewBox="0 0 41 37" xmlns:xlink="http://www.w3.org/1999/xlink">
  <defs>
    <path id="a" d="M5,4.0636009 L5,13.5865599 L7,13.5865599 L7,3.99216991 L9.59771145,6.58988137 L11.0028272,5.1847656 L6.0266177,0.208556076 L0.992985168,5.2421886 L2.40719873,6.65640217 L5,4.0636009 Z"/>
  </defs>
  <g fill="none" fill-rule="evenodd">
    <circle cx="22.5" cy="18.5" r="18.5" fill="#465274" fill-rule="nonzero" opacity=".22"/>
    <g transform="translate(0 6)">
      <path fill="#3F4869" d="M2.42383673,2.60208022 L2.42383673,21.2901949 C2.43534038,21.6828634 2.60933312,22.3663976 3.65041368,22.3954842 C6.12441795,22.4609289 26.0379595,22.4245707 26.2385544,22.4245707 C26.8122991,22.4027558 27.1099561,22.0100872 27.1099561,21.246565 L27.1092371,7.72131474 C27.1099561,7.69222818 27.1085181,7.28501635 26.8583137,7.03050895 C26.6677845,6.84144631 26.3384924,6.73964335 25.8812222,6.73964335 C23.4841486,6.73964335 13.4443359,6.70328515 13.4443359,6.70328515 C13.1675292,6.70328515 12.9015073,6.59421055 12.7016313,6.39787627 L8.79038943,2.60208022 L2.42383673,2.60208022 Z M15.0433436,24.620606 C9.95729118,24.620606 4.80581178,24.6060627 3.59361439,24.5769761 C1.14621232,24.5115314 0.263306983,22.5772752 0.266901875,21.2901949 L0.266901875,1.51133423 C0.266901875,0.915059752 0.749336303,0.420588235 1.3453693,0.420588235 L9.22465231,0.420588235 C9.50289691,0.420588235 9.77035683,0.529662834 9.97095177,0.725997113 L13.8836316,4.52179317 C15.8299058,4.52906481 23.7832436,4.55815137 25.8812222,4.55815137 C27.2221167,4.55815137 28.0050841,5.08898108 28.4256864,5.53255112 C29.2956501,6.45604939 29.2704858,7.6413267 29.265453,7.77221622 L29.2668909,21.246565 C29.2668909,22.5336453 28.7707959,23.2971675 28.3552265,23.7189226 C27.4996423,24.5769761 26.3895399,24.6060627 26.2407114,24.6060627 C26.2385544,24.6060627 26.2371165,24.6060627 26.2349595,24.6060627 C25.8150762,24.6060627 20.4658778,24.620606 15.0433436,24.620606 L15.0433436,24.620606 Z"/>
      <g fill-rule="nonzero" transform="translate(9 11)">
        <use fill="#40476A" fill-rule="evenodd" xlink:href="#a"/>
        <path stroke="#D6D9E1" d="M4.5,5.27070768 L2.40719873,7.36350895 L0.285878387,5.2421886 L6.0266177,-0.498550705 L11.709934,5.1847656 L9.59771145,7.29698815 L7.5,5.19927669 L7.5,14.0865599 L4.5,14.0865599 L4.5,5.27070768 Z"/>
      </g>
    </g>
  </g>
</svg>
