<svg xmlns="http://www.w3.org/2000/svg" width="43" height="37" viewBox="0 0 43 37">
  <g fill="none" fill-rule="evenodd" transform="translate(1)">
    <circle cx="23.5" cy="18.5" r="18.5" fill="#F7C759" fill-rule="nonzero" opacity=".6"/>
    <g stroke="#3F4869" stroke-width="2" transform="translate(0 1)">
      <g transform="translate(15 4)">
        <path d="M26,16 C26,9.372583 20.627417,4 14,4 C7.372583,4 2,9.372583 2,16 L26,16 Z" stroke-linecap="round" stroke-linejoin="round" transform="rotate(20 14 10)"/>
        <path d="M11.5876082,16.2605368 L7.91347242,26.4649363" stroke-linecap="round" stroke-linejoin="round"/>
        <path d="M17.2658952 17.3774158C19.4594334 11.7268901 19.2731004 7.51889522 16.7068961 4.75343128M7.37831799 13.5046886C9.43624751 7.62889951 12.2795685 4.56436577 15.9082809 4.31108736"/>
      </g>
      <g stroke-linecap="round" stroke-linejoin="round">
        <circle cx="7.5" cy="7.5" r="3.409"/>
        <path d="M7.5 0L7.5 1.36363636M7.5 13.6363636L7.5 15M2.19545455 2.19545455L3.16363636 3.16363636M11.8363636 11.8363636L12.8045455 12.8045455M0 7.5L1.36363636 7.5M13.6363636 7.5L15 7.5M2.19545455 12.8045455L3.16363636 11.8363636M11.8363636 3.16363636L12.8045455 2.19545455"/>
      </g>
    </g>
  </g>
</svg>
