<svg xmlns="http://www.w3.org/2000/svg" width="43" height="37" viewBox="0 0 43 37">
  <g fill="none" transform="translate(1)">
    <circle cx="22.5" cy="18.5" r="18.5" fill="#FF4F00" opacity=".4"/>
    <g fill="#40476A" transform="translate(0 5)">
      <path d="M3.4623 26.67735L3.4623 18.747C1.25415 16.7112 0 13.86495 0 10.8405 0 4.9068 4.8276.07965 10.76085.07965 15.6051.07965 19.87515 3.3426 21.14415 8.01495L21.18375 8.15895 21.26385 9.9234 23.3603208 12.8631651 23.3603208 12.8631651C23.9977139 13.7569462 23.7955456 14.9974375 22.9073462 15.6425861L21.6567 16.551 21.6567 18.1368C21.6567 20.0466 20.10285 21.6009 18.1917 21.6009L16.84845 21.6009 16.848 26.67735 3.4623 26.67735zM5.87280116 24.5285L14.2737826 24.5285 14.2737826 19.1890055 18.5272942 19.1890055C18.9713448 19.1890055 19.3320766 18.8278002 19.3320766 18.3846965L19.3320766 15.2697152 21.2285227 13.8921171 18.9590363 10.7108597 18.8515742 8.33627818C17.8034635 4.73274665 14.4768718 2.2294 10.7100168 2.2294 6.03423104 2.2294 2.22997731 6.03365373 2.22997731 10.7094395 2.22997731 13.2658071 3.3670875 15.6602714 5.35016601 17.2788308L5.87232776 17.7048921 5.87280116 24.5285 5.87280116 24.5285zM26.2637363 20.4513705L25.0002978 19.187932C25.8062536 18.3816784 25.8062536 17.0699899 25 16.2634384L26.2640341 15C27.7666383 16.502902 27.7666383 18.9487663 26.2637363 20.4513705zM30.489636 22.9141649L29 21.4245289C31.1873981 19.2371308 31.1873981 15.6773853 29 13.489636L30.489636 12C33.4980547 15.009121 33.4980547 19.9053951 30.489636 22.9141649z"/>
    </g>
  </g>
</svg>
