<svg xmlns="http://www.w3.org/2000/svg" width="43" height="37" viewBox="0 0 43 37">
  <g fill="none" fill-rule="evenodd" transform="translate(2)">
    <circle cx="21.5" cy="18.5" r="18.5" fill="#950000" fill-rule="nonzero" opacity=".3"/>
    <g transform="translate(0 6)">
      <g stroke="#41466B" stroke-width="2" transform="translate(1)" stroke-linecap="round" stroke-linejoin="round">
        <rect width="24" height="16.941" y="5.647" rx="2"/>
        <path d="M16.9411765,2.50980392 C16.9411765,1.12367749 15.8350564,0 14.4705882,0 L9.52941176,0 C8.16494356,0 7.05882353,1.12367749 7.05882353,2.50980392"/>
      </g>
      <path fill="#40476A" fill-rule="nonzero" d="M7.07039222,5.9162067 L10.5718058,9.41762031 L9.16669006,10.8227361 L6.56897861,8.22502462 L6.56897861,18.4414108 L4.56897861,18.4414108 L4.56897861,8.29645561 L1.97617734,10.8892569 L0.561963773,9.47504331 L4.06547119,5.9715359 L0.564057579,2.47012229 L1.96917335,1.06500652 L5.47058696,4.56642013 L5.5955963,4.44141079 L5.65617865,4.50199314 L9.15968607,0.998485721 L10.5738996,2.41269928 L7.07039222,5.9162067 Z" transform="matrix(0 -1 -1 0 19.44 20)"/>
    </g>
  </g>
</svg>
