<svg xmlns="http://www.w3.org/2000/svg" width="20" height="18" viewBox="0 0 20 18">
  <g fill="#959EAD" fill-rule="evenodd">
    <path d="M1.84210526,1.5 C1.69947368,1.5 1.57894737,1.615 1.57894737,1.75 L1.57894737,16.03 C1.57894737,16.165 1.69947368,16.28 1.84210526,16.28 L18.1036842,16.28 C18.2463158,16.28 18.3668421,16.165 18.3668421,16.03 L18.3668421,1.75 C18.3668421,1.615 18.2463158,1.5 18.1036842,1.5 L1.84210526,1.5 Z M1.84210526,17.78 C0.826315789,17.78 0,16.995 0,16.03 L0,1.75 C0,0.785 0.826315789,0 1.84210526,0 L18.1036842,0 C19.1194737,0 19.9457895,0.785 19.9457895,1.75 L19.9457895,16.03 C19.9457895,16.995 19.1194737,17.78 18.1036842,17.78 L1.84210526,17.78 Z"/>
    <path fill-rule="nonzero" d="M10.5399694,9.31765354 L9.5447435,9.31991969 L10.0413881,8.93497574 L10.5399694,9.31765354 Z M18.4482864,2.41887802 C18.7861231,2.15702442 19.2834404,2.20492732 19.5590758,2.52587212 C19.8347111,2.84681693 19.784287,3.31926839 19.4464504,3.58112198 L10.5429074,10.4821636 C10.2534991,10.706481 9.83821848,10.7074266 9.54768157,10.4844298 L0.556487673,3.58338813 C0.217333605,3.32307605 0.164526102,2.85085965 0.438538815,2.52866329 C0.712551528,2.20646692 1.20962142,2.1562998 1.54877548,2.41661187 L10.0413881,8.93497574 L18.4482864,2.41887802 Z"/>
  </g>
</svg>
