<svg xmlns="http://www.w3.org/2000/svg" width="43" height="37" viewBox="0 0 43 37">
  <g fill="none" fill-rule="evenodd" transform="translate(-2)">
    <circle cx="26.5" cy="18.5" r="18.5" fill="#F9DE99" fill-rule="nonzero"/>
    <g stroke="#40476A" stroke-width="2" transform="translate(0 5)">
      <g transform="rotate(45 15.132 39.945)">
        <rect width="11" height="23" x="1" y="1" rx="5.5"/>
        <path d="M1,12.5 L12,12.5 L12,6.5 C12,3.46243388 9.53756612,1 6.5,1 C3.46243388,1 1,3.46243388 1,6.5 L1,12.5 Z"/>
      </g>
      <g transform="rotate(-45 8.096 3.164)">
        <rect width="7" height="15.308" x="1" y="1" rx="3.5"/>
        <path d="M1,8.34615385 L8,8.34615385 L8,4.5 C8,2.56700338 6.43299662,1 4.5,1 C2.56700338,1 1,2.56700338 1,4.5 L1,8.34615385 Z"/>
      </g>
    </g>
  </g>
</svg>
