<svg xmlns="http://www.w3.org/2000/svg" width="43" height="37" viewBox="0 0 43 37">
  <g fill="none" fill-rule="evenodd" transform="translate(1)">
    <g transform="translate(5)">
      <circle cx="18.5" cy="18.5" r="18.5" fill="#C5E8DF" fill-rule="nonzero"/>
      <g stroke="#40476A" stroke-width="2" transform="rotate(45 5.257 29.985)">
        <rect width="11" height="23" x="1" y="1" rx="5.5"/>
        <path d="M1,12.5 L12,12.5 L12,6.5 C12,3.46243388 9.53756612,1 6.5,1 C3.46243388,1 1,3.46243388 1,6.5 L1,12.5 Z"/>
      </g>
    </g>
    <g stroke="#41466B" stroke-width="2" transform="translate(0 18)" stroke-linecap="round">
      <path d="M0,0 L6.59966329,6.59966329"/>
      <path d="M0,0 L6.59966329,6.59966329" transform="rotate(90 3.3 3.3)"/>
    </g>
    <g stroke="#41466B" stroke-width="2" transform="translate(7 5)" stroke-linecap="round">
      <path d="M0,0 L6.59966329,6.59966329"/>
      <path d="M0,0 L6.59966329,6.59966329" transform="rotate(90 3.3 3.3)"/>
    </g>
  </g>
</svg>
