<svg xmlns="http://www.w3.org/2000/svg" width="43" height="37" viewBox="0 0 43 37">
  <path fill="#3F4869" d="M20.375843,12.2200789 L20.375843,12.2200789 L13.1844483,5.91562279 C11.8195184,4.6947924 9.75511496,4.6947924 8.39018509,5.91562279 L1.19879032,12.2200789 C0.428645089,12.908859 -0.00798861724,13.8956511 0.000110710791,14.9288376 L0.000110710791,25.4043026 C0.000110710791,27.3901514 1.61007308,29 3.59592191,29 L17.9787114,29 C19.9645603,29 21.5744475,27.3901514 21.5744475,25.4043026 L21.5744475,14.9168519 C21.5791778,13.8878357 21.1428446,12.906086 20.375843,12.2200789 Z M13.1844483,26.6028684 L8.39018509,26.6028684 L8.39018509,20.6100394 C8.39018509,19.9480898 8.92680128,19.4114736 9.58875089,19.4114736 L11.9858825,19.4114736 C12.6478321,19.4114736 13.1844483,19.9480898 13.1844483,20.6100394 L13.1844483,26.6028684 Z M19.1772772,25.4043026 C19.1772772,26.0662522 18.6406611,26.6028684 17.9787114,26.6028684 L15.5815799,26.6028684 L15.5815799,20.6100394 C15.5815799,18.6241906 13.9717313,17.0143421 11.9858825,17.0143421 L9.58875089,17.0143421 C7.60290206,17.0143421 5.9930535,18.6241906 5.9930535,20.6100394 L5.9930535,26.6028684 L3.59592191,26.6028684 C2.9339723,26.6028684 2.39735612,26.0662522 2.39735612,25.4043026 L2.39735612,14.9168519 C2.39779206,14.5725913 2.54623686,14.2451395 2.80486849,14.0179276 L9.99626326,7.72545714 C10.4487293,7.32795775 11.125904,7.32795775 11.5783701,7.72545714 L18.7697649,14.0179276 C19.0283965,14.2451395 19.1768413,14.5725913 19.1772772,14.9168519 L19.1772772,25.4043026 Z"/>
</svg>
