<svg xmlns="http://www.w3.org/2000/svg" width="28" height="28" viewBox="0 0 28 28">
  <path fill="#000000" d="M5.2,12.73 C4.82386566,12.3281065 4.19365685,12.3057587 3.79,12.68 C1.39861783,14.7864218 0.01980692,17.8132573 0,21 C0,21.5522847 0.44771525,22 1,22 C1.55228475,22 2,21.5522847 2,21 C2.01388908,18.3665789 3.16173717,15.8668209 5.15,14.14 C5.55189346,13.7638657 5.57424129,13.1336568 5.2,12.73 L5.2,12.73 Z M15.37,17.37 C14.9974832,16.2921976 14.4575341,15.2797932 13.77,14.37 C12.7412193,13.0371561 11.4852926,11.8963278 10.06,11 C12.3,9.57 16,6.4 16,1 C16,0.44771525 15.5522847,1.55431223e-15 15,1.55431223e-15 C14.4477153,1.55431223e-15 14,0.44771525 14,1 C14,6.4 9.41,9.17 8,9.89 C7.02926287,9.37262707 6.12581876,8.73786522 5.31,8 L8,8 C8.55228475,8 9,7.55228475 9,7 C9,6.44771525 8.55228475,6 8,6 L3.55,6 C3.13819554,5.37554352 2.8024825,4.70411745 2.55,4 L11,4 C11.5522847,4 12,3.55228475 12,3 C12,2.44771525 11.5522847,2 11,2 L2.06,2 C2.01948767,1.6682147 1.99944973,1.33424906 2,1 C2,0.44771525 1.55228475,-7.77156117e-16 1,0 C0.44771525,7.77156117e-16 2.66453526e-15,0.44771525 3.55271368e-15,1 C3.55271368e-15,8.57 7.3,11.79 7.61,11.92 L7.61,11.92 C8.73499192,12.4605616 9.77578905,13.1611629 10.7,14 L8,14 C7.44771525,14 7,14.4477153 7,15 C7,15.5522847 7.44771525,16 8,16 L12.43,16 C12.8445501,16.6228684 13.1804353,17.2946389 13.43,18 L5,18 C4.44771525,18 4,18.4477153 4,19 C4,19.5522847 4.44771525,20 5,20 L13.94,20 C13.980214,20.3318124 14.0002509,20.6657597 14,21 C14,21.5522847 14.4477153,22 15,22 C15.5522847,22 16,21.5522847 16,21 C16.0035922,20.2643086 15.9298538,19.5302768 15.78,18.81 C15.6825543,18.3196891 15.5454366,17.8381051 15.37,17.37 L15.37,17.37 Z" transform="translate(6 3)"/>
</svg>
