<svg xmlns="http://www.w3.org/2000/svg" width="28" height="28" viewBox="0 0 28 28">
  <path fill="#000000" d="M17,4 L16,4 L16,3 C16,1.34314575 14.6568542,0 13,0 L3,0 C1.34314575,0 4.4408921e-16,1.34314575 0,3 L4.4408921e-16,3 L4.4408921e-16,15 C4.4408921e-16,16.6568542 1.34314575,18 3,18 L17,18 C18.6568542,18 20,16.6568542 20,15 L20,7 C20,5.34314575 18.6568542,4 17,4 Z M3,2 L13,2 C13.5522847,2 14,2.44771525 14,3 L14,4 L3,4 C2.44771525,4 2,3.55228475 2,3 C2,2.44771525 2.44771525,2 3,2 Z M18,12 L17,12 C16.4477153,12 16,11.5522847 16,11 C16,10.4477153 16.4477153,10 17,10 L18,10 L18,12 Z M18,8 L17,8 C15.3431458,8.00000003 14.0000001,9.34314578 14.0000001,11 C14.0000001,12.6568542 15.3431458,14 17,14 L18,14 L18,15 C18,15.5522847 17.5522847,16 17,16 L3,16 C2.44771525,16 2,15.5522847 2,15 L2,5.83 C2.32126757,5.94301701 2.65943364,6.00050524 3,6 L17,6 C17.5522847,6 18,6.44771525 18,7 L18,8 Z" transform="translate(4 5)"/>
</svg>
