<svg xmlns="http://www.w3.org/2000/svg" width="28" height="28" viewBox="0 0 28 28">
  <path fill="#000000" d="M11.3,8.72000018 C12.3796492,7.78545162 13.0000156,6.42794395 13,5.00000018 C13,2.23857643 10.7614237,1.79992742e-07 8,1.79992742e-07 C5.23857625,1.79992742e-07 3,2.23857643 3,5.00000018 C2.9999844,6.42794395 3.6203508,7.78545162 4.7,8.72000018 C1.84094096,10.0146381 0.0030061001,12.8614819 0,16.0000002 C1.11022302e-16,16.5522849 0.44771525,17.0000002 1,17.0000002 C1.55228475,17.0000002 2,16.5522849 2,16.0000002 C2,12.6862917 4.6862915,10.0000002 8,10.0000002 C11.3137085,10.0000002 14,12.6862917 14,16.0000002 C14,16.5522849 14.4477153,17.0000002 15,17.0000002 C15.5522847,17.0000002 16,16.5522849 16,16.0000002 C15.9969939,12.8614819 14.159059,10.0146381 11.3,8.72000018 L11.3,8.72000018 Z M8,8.00000018 C6.34314575,8.00000018 5,6.65685443 5,5.00000018 C5,3.34314593 6.34314575,2.00000018 8,2.00000018 C9.65685425,2.00000018 11,3.34314593 11,5.00000018 C11,5.79564965 10.6839295,6.55871139 10.1213203,7.12132052 C9.55871121,7.68392966 8.79564947,8.00000018 8,8.00000018 Z M17.74,8.32000018 C19.0472579,6.84789292 19.3689572,4.74567922 18.5617649,2.95000007 C17.7545726,1.15432093 15.9687617,-0.000526383555 14,1.79992742e-07 C13.4477153,1.79992742e-07 13,0.44771543 13,1.00000018 C13,1.55228493 13.4477153,2.00000018 14,2.00000018 C15.6568542,2.00000018 17,3.34314593 17,5.00000018 C16.9971202,6.06891048 16.4257091,7.05554697 15.5,7.59000018 C15.1985079,7.76390713 15.0091273,8.08206658 15,8.43000018 C14.9914951,8.77512519 15.1616073,9.10022857 15.45,9.29000018 L15.84,9.55000018 L15.97,9.62000018 C18.4310752,10.7872864 19.9915345,13.2762189 19.97,16.0000002 C19.97,16.5522849 20.4177153,17.0000002 20.97,17.0000002 C21.5222847,17.0000002 21.97,16.5522849 21.97,16.0000002 C21.9866208,12.8798295 20.3859626,9.97366983 17.74,8.32000018 L17.74,8.32000018 Z" transform="translate(3 5)"/>
</svg>
