<svg xmlns="http://www.w3.org/2000/svg" width="28" height="28" viewBox="0 0 28 28">
  <path fill="#000000" d="M16.636342,12.9077447 C17.6204304,11.4860797 17.4228362,9.51411907 16.1784821,8.33837045 C14.9341279,7.16262184 13.0446966,7.16262184 11.8003425,8.33837045 C10.5559884,9.51411907 10.3583942,11.4860797 11.3424825,12.9077447 C10.8926888,13.2085702 10.4922394,13.5837891 10.156658,14.0188559 C9.91835248,14.3423797 9.86261671,14.7747473 10.0104458,15.15309 C10.158275,15.5314327 10.4872103,15.7982712 10.8733449,15.85309 C11.2594796,15.9079088 11.6441507,15.7423797 11.8824562,15.4188559 C12.4063054,14.7200828 13.2057226,14.3108459 14.0529386,14.3077447 L14.0529386,14.3077447 C14.9001546,14.3108459 15.6995718,14.7200828 16.223421,15.4188559 C16.4252547,15.6799575 16.7288909,15.8311101 17.0492631,15.829967 C17.4542351,15.8280148 17.8226698,15.5838069 17.9983549,15.2008849 C18.1740399,14.8179629 18.1261947,14.363416 17.8751051,14.029967 C17.524448,13.5862812 17.1057941,13.2070137 16.636342,12.9077447 L16.636342,12.9077447 Z M14,12.0966336 L14,12.0966336 C13.3682379,12.0961871 12.854242,11.5627435 12.8467961,10.8997968 C12.8393503,10.2368502 13.3412222,9.69084097 13.9727988,9.67476766 C14.6043753,9.65869434 15.1308773,10.178532 15.1540614,10.8410781 C15.1655681,11.169914 15.0490789,11.489508 14.8313907,11.7263408 C14.6137025,11.9631737 14.3135572,12.0968553 14,12.0966336 L14,12.0966336 Z M22.9572102,11.5410781 C22.6548319,8.2388269 20.723641,5.34519932 17.8698056,3.91829237 C15.0159703,2.49138542 11.6579949,2.74044977 9.0237721,4.57441141 C6.77101464,6.15523623 5.3105443,8.71104011 5.04278979,11.5410781 C4.78009821,14.3529361 5.7365289,17.1396616 7.64736864,19.129967 L13.2588597,25.029967 C13.4576617,25.2403144 13.7282794,25.3586318 14.0105877,25.3586318 C14.292896,25.3586318 14.5635138,25.2403144 14.7623158,25.029967 L20.3526314,19.129967 C22.2634711,17.1396616 23.2199018,14.3529361 22.9572102,11.5410781 L22.9572102,11.5410781 Z M18.8703507,17.5633003 L14,22.6744114 L9.12964929,17.5633003 C7.67630405,16.038025 6.94990489,13.9100854 7.14974585,11.7633003 C7.35089374,9.58327715 8.47413465,7.61322699 10.2095966,6.39663364 C12.5062595,4.79558911 15.4937405,4.79558911 17.7904034,6.39663364 C19.520461,7.60842557 20.6430068,9.56910394 20.8502541,11.7410781 C21.0566309,13.8953301 20.3297315,16.032894 18.8703507,17.5633003 Z"/>
</svg>
