<svg xmlns="http://www.w3.org/2000/svg" width="28" height="28" viewBox="0 0 28 28">
  <path fill="#000000" d="M11.0007036,14.0119048 L11.0007036,16.0119048 C11.0007036,16.5641895 11.4484188,17.0119048 12.0007036,17.0119048 C12.5529883,17.0119048 13.0007036,16.5641895 13.0007036,16.0119048 L13.0007036,14.0119048 C13.0007036,13.45962 12.5529883,13.0119048 12.0007036,13.0119048 C11.4484188,13.0119048 11.0007036,13.45962 11.0007036,14.0119048 Z M23,6 L15,6 L15,5 C15,4.44771525 14.5522847,4 14,4 C13.4477153,4 13,4.44771525 13,5 L13,6 L5,6 C4.44771525,6 4,6.44771525 4,7 L4,17 C4,18.6568542 5.34314575,20 7,20 L11.59,20 L9.29,22.29 C9.10068735,22.4777666 8.99420168,22.7333625 8.99420168,23 C8.99420168,23.2666375 9.10068735,23.5222334 9.29,23.71 C9.4777666,23.8993127 9.73336246,24.0057983 10,24.0057983 C10.2666375,24.0057983 10.5222334,23.8993127 10.71,23.71 L13,21.41 L13,23 C13,23.5522847 13.4477153,24 14,24 C14.5522847,24 15,23.5522847 15,23 L15,21.41 L17.29,23.71 C17.4777666,23.8993127 17.7333625,24.0057983 18,24.0057983 C18.2666375,24.0057983 18.5222334,23.8993127 18.71,23.71 C18.8993127,23.5222334 19.0057983,23.2666375 19.0057983,23 C19.0057983,22.7333625 18.8993127,22.4777666 18.71,22.29 L16.41,20 L21,20 C22.6568542,20 24,18.6568542 24,17 L24,7 C24,6.44771525 23.5522847,6 23,6 Z M22,17 C22,17.5522847 21.5522847,18 21,18 L7,18 C6.44771525,18 6,17.5522847 6,17 L6,8 L22,8 L22,17 Z M17,16 L17,10 C17,9.44771525 16.5522847,9 16,9 C15.4477153,9 15,9.44771525 15,10 L15,16 C15,16.5522847 15.4477153,17 16,17 C16.5522847,17 17,16.5522847 17,16 Z"/>
</svg>
