<svg xmlns="http://www.w3.org/2000/svg" width="28" height="28" viewBox="0 0 28 28">
  <path fill="#000000" d="M17,16 L5,16 C3.34314575,16 2,14.6568542 2,13 L2,5 C2,4.44771525 1.55228475,4 1,4 C0.44771525,4 0,4.44771525 0,5 L0,13 C-1.11022302e-16,14.3260824 0.526784202,15.597852 1.46446609,16.5355339 C2.40214799,17.4732158 3.67391755,18 5,18 L17,18 C17.5522847,18 18,17.5522847 18,17 C18,16.4477153 17.5522847,16 17,16 Z M9.9714276,9.02747385 L9.9714276,5.02747385 C9.9714276,4.4751891 9.52371235,4.02747385 8.9714276,4.02747385 C8.41914285,4.02747385 7.9714276,4.4751891 7.9714276,5.02747385 L7.9714276,9.02747385 C7.9714276,9.5797586 8.41914285,10.0274739 8.9714276,10.0274739 C9.52371235,10.0274739 9.9714276,9.5797586 9.9714276,9.02747385 Z M22,6.94 C21.9895837,6.8481349 21.9694716,6.75763058 21.94,6.67 L21.94,6.58 C21.8919189,6.47717975 21.8277838,6.38266483 21.75,6.3 L21.75,6.3 L15.75,0.3 L15.75,0.3 C15.6673352,0.222216205 15.5728202,0.158081081 15.47,0.11 L15.38,0.11 C15.2784148,0.0517413546 15.1662233,0.0143442038 15.05,-8.8817842e-16 L7,-8.8817842e-16 C5.34314575,-1.33226763e-15 4,1.34314575 4,3 L4,11 C4,12.6568542 5.34314575,14 7,14 L19,14 C20.6568542,14 22,12.6568542 22,11 L22,7 C22,7 22,7 22,6.94 Z M16,3.41 L18.59,6 L17,6 C16.4477153,6 16,5.55228475 16,5 L16,3.41 Z M20,11 C20,11.5522847 19.5522847,12 19,12 L7,12 C6.44771525,12 6,11.5522847 6,11 L6,3 C6,2.44771525 6.44771525,2 7,2 L14,2 L14,5 C14,6.65685425 15.3431458,8 17,8 L20,8 L20,11 Z M11,7 L11,9 C11,9.55228475 11.4477153,10 12,10 C12.5522847,10 13,9.55228475 13,9 L13,7 C13,6.44771525 12.5522847,6 12,6 C11.4477153,6 11,6.44771525 11,7 Z" transform="matrix(0 -1 -1 0 23 25)"/>
</svg>
