<svg xmlns="http://www.w3.org/2000/svg" width="13" height="16" viewBox="0 0 13 16">
  <path fill="#1A394A" d="M17.9111309,9.06491619 C17.7733401,8.79656554 17.4936188,8.62692778 17.1874154,8.62601702 L13.1215982,8.62601702 L13.1215982,3.83802613 C13.1395382,3.47823969 12.9096377,3.1512644 12.5605154,3.04002764 C12.2255738,2.93188356 11.8577764,3.04789944 11.6497723,3.3273071 L5.14446471,12.1052904 C4.97855478,12.3406047 4.95373366,12.6450826 5.07941164,12.9032889 C5.19560593,13.1996818 5.47982529,13.4002527 5.80312711,13.4140079 L9.86894436,13.4140079 L9.86894436,18.2019988 C9.86920347,18.5471921 10.0956023,18.8530875 10.4300271,18.9600974 C10.5117279,18.9849481 10.5965886,18.99838 10.6821078,18.9999973 C10.942364,19.0006599 11.1872194,18.8790321 11.3407702,18.6728179 L17.8460778,9.89483461 C18.0247077,9.65208147 18.0498267,9.33162377 17.9111309,9.06491619 Z M11.4952713,15.7441635 L11.4952713,12.6160094 C11.4952713,12.175287 11.1312056,11.818011 10.6821078,11.818011 L7.42945401,11.818011 L11.4952713,6.29586145 L11.4952713,9.42401551 C11.4952713,9.8647379 11.8593369,10.222014 12.3084347,10.222014 L15.5610885,10.222014 L11.4952713,15.7441635 Z" transform="translate(-5 -3)"/>
</svg>
