<svg xmlns="http://www.w3.org/2000/svg" width="14" height="16" viewBox="0 0 14 16">
  <path fill="#1A394A" d="M13.0504882,10.0900544 C13.8158903,9.07270055 13.6622059,7.66155113 12.6943749,6.82017684 C11.726544,5.97880255 10.2569863,5.97880255 9.28915527,6.82017684 C8.32132429,7.66155113 8.16763992,9.07270055 8.93304198,10.0900544 C8.5832024,10.3053273 8.27174176,10.5738367 8.01073402,10.8851736 C7.82538526,11.1166897 7.78203522,11.4260951 7.89701344,11.6968398 C8.01199166,11.9675846 8.26783021,12.1585362 8.56815718,12.197765 C8.86848416,12.2369937 9.16767275,12.1185399 9.3530215,11.8870238 C9.76045974,11.3869767 10.3822287,11.0941239 11.0411745,11.0919046 L11.0411745,11.0919046 C11.7001203,11.0941239 12.3218892,11.3869767 12.7293274,11.8870238 C12.8863092,12.0738701 13.1224707,12.182036 13.371649,12.181218 C13.6866273,12.1798209 13.9731876,12.005064 14.1098316,11.7310423 C14.2464755,11.4570205 14.2092626,11.1317434 14.0139707,10.8931248 C13.7412373,10.5756201 13.4156177,10.3042135 13.0504882,10.0900544 L13.0504882,10.0900544 Z M11,9.50961739 L11,9.50961739 C10.5086295,9.50929781 10.1088549,9.12756171 10.1030637,8.65315225 C10.0972724,8.1787428 10.4876173,7.78801461 10.9788435,7.77651243 C11.4700697,7.76501025 11.8795712,8.13700984 11.8976033,8.61113267 C11.906553,8.84645008 11.8159502,9.07515386 11.6466372,9.24463317 C11.4773241,9.41411247 11.2438778,9.509776 11,9.50961739 L11,9.50961739 Z M17.9667191,9.11205778 C17.7315359,6.74894275 16.2294985,4.67824174 14.0098488,3.65713672 C11.7901991,2.6360317 9.17844048,2.81426396 7.12960052,4.12666029 C5.37745583,5.25791006 4.24153445,7.08686196 4.03328094,9.11205778 C3.82896527,11.1242439 4.57285581,13.118445 6.0590645,14.542722 L10.4235575,18.7648051 C10.5781813,18.9153312 10.7886617,19 11.0082349,19 C11.227808,19 11.4382885,18.9153312 11.5929123,18.7648051 L15.9409355,14.542722 C17.4271442,13.118445 18.1710347,11.1242439 17.9667191,9.11205778 L17.9667191,9.11205778 Z M14.7880506,13.4216039 L11,17.0791523 L7.21194945,13.4216039 C6.08156981,12.3301058 5.51659269,10.8073367 5.67202455,9.27108162 C5.82847291,7.71104116 6.70210472,6.30125889 8.05190848,5.43065581 C9.83820183,4.28493666 12.1617982,4.28493666 13.9480915,5.43065581 C15.2936919,6.29782295 16.166783,7.7008987 16.3279754,9.25517924 C16.4884907,10.7967777 15.9231245,12.326434 14.7880506,13.4216039 Z" transform="translate(-4 -3)"/>
</svg>
