<svg xmlns="http://www.w3.org/2000/svg" width="16" height="16" viewBox="0 0 16 16">
  <path fill="#1A394A" d="M13.6,3.55789474 L11.2,3.55789474 L11.2,2.76842105 C11.2,1.46037822 10.1254834,0.4 8.8,0.4 L7.2,0.4 C5.8745166,0.4 4.8,1.46037822 4.8,2.76842105 L4.8,3.55789474 L2.4,3.55789474 C1.76348042,3.55789474 1.15303103,3.8074241 0.702943725,4.2515892 C0.252856417,4.69575431 -9.76996262e-16,5.29817147 -4.4408921e-16,5.92631579 L-4.4408921e-16,13.0315789 C-8.8817842e-17,14.3396218 1.0745166,15.4 2.4,15.4 L13.6,15.4 C14.9254834,15.4 16,14.3396218 16,13.0315789 L16,5.92631579 C16,4.61827296 14.9254834,3.55789474 13.6,3.55789474 Z M6.4,2.76842105 C6.4,2.33240678 6.7581722,1.97894737 7.2,1.97894737 L8.8,1.97894737 C9.2418278,1.97894737 9.6,2.33240678 9.6,2.76842105 L9.6,3.55789474 L6.4,3.55789474 L6.4,2.76842105 Z M14.4,13.0315789 C14.4,13.4675932 14.0418278,13.8210526 13.6,13.8210526 L2.4,13.8210526 C1.9581722,13.8210526 1.6,13.4675932 1.6,13.0315789 L1.6,8.68947368 C2.38035439,8.99492751 3.18254502,9.2429733 4,9.43157895 L4,9.89736842 C4.00000001,10.3333827 4.35817221,10.6868421 4.8,10.6868421 C5.24182779,10.6868421 5.59999999,10.3333827 5.6,9.89736842 L5.6,9.73157895 C6.39547831,9.8384516 7.19719163,9.89383311 8,9.89736842 C8.80280837,9.89383311 9.60452169,9.8384516 10.4,9.73157895 L10.4,9.89736842 C10.4,10.3333827 10.7581722,10.6868421 11.2,10.6868421 C11.6418278,10.6868421 12,10.3333827 12,9.89736842 L12,9.43157895 C12.817455,9.2429733 13.6196456,8.99492751 14.4,8.68947368 L14.4,13.0315789 Z M14.4,6.96052632 C13.6219161,7.28459931 12.8195035,7.54855081 12,7.75 L12,7.50526316 C12,7.06924888 11.6418278,6.71578947 11.2,6.71578947 C10.7581722,6.71578947 10.4,7.06924888 10.4,7.50526316 L10.4,8.08947368 C8.80900226,8.32634557 7.19099774,8.32634557 5.6,8.08947368 L5.6,7.50526316 C5.6,7.06924888 5.2418278,6.71578947 4.8,6.71578947 C4.3581722,6.71578947 4,7.06924888 4,7.50526316 L4,7.76578947 C3.18049647,7.56434028 2.37808393,7.30038879 1.6,6.97631579 L1.6,5.92631579 C1.6,5.49030151 1.9581722,5.13684211 2.4,5.13684211 L13.6,5.13684211 C14.0418278,5.13684211 14.4,5.49030151 14.4,5.92631579 L14.4,6.96052632 Z"/>
</svg>
