<svg xmlns="http://www.w3.org/2000/svg" width="11" height="18" viewBox="0 0 11 18">
  <path fill="#1A394A" d="M5.4914095,3.48810313e-16 C3.28086857,0.00277167793 1.2869421,1.32914012 0.430045028,3.36684135 C-0.42685204,5.40454257 0.0199308264,7.75728164 1.56415451,9.33901236 L1.56415451,16.4944709 C1.56497836,16.7667029 1.70670773,17.0190961 1.93872208,17.1615049 C2.17073644,17.3039138 2.45994704,17.3160285 2.70305846,17.1935223 L5.4914095,15.8032741 L8.27976054,17.1935223 C8.38919138,17.2495909 8.51025722,17.2791847 8.63321349,17.2799219 C8.78026969,17.2803939 8.92450486,17.2395726 9.04950252,17.1621043 C9.27962823,17.0182761 9.41920754,16.7658454 9.41866449,16.4944709 L9.41866449,9.33901236 C10.9628882,7.75728164 11.409671,5.40454257 10.552774,3.36684135 C9.6958769,1.32914012 7.70195043,0.00277167793 5.4914095,3.48810313e-16 Z M7.84776249,15.2220403 L5.84486245,14.2245176 C5.62254245,14.1124898 5.36027655,14.1124898 5.13795655,14.2245176 L3.13505651,15.2220403 L3.13505651,10.4622073 C3.63218428,10.6969518 4.16170806,10.8558089 4.7059585,10.9334779 L4.7059585,11.781765 C4.7059585,12.2155576 5.05761689,12.567216 5.4914095,12.567216 C5.92520211,12.567216 6.2768605,12.2155576 6.2768605,11.781765 L6.2768605,10.9334779 C6.82111094,10.8558089 7.35063472,10.6969518 7.84776249,10.4622073 L7.84776249,15.2220403 Z M5.4914095,9.42541197 C3.32244646,9.42541197 1.56415451,7.66712002 1.56415451,5.49815698 C1.56415451,3.32919394 3.32244646,1.570902 5.4914095,1.570902 C7.66037254,1.570902 9.41866449,3.32919394 9.41866449,5.49815698 C9.41866449,6.53972977 9.00490131,7.53864244 8.26839813,8.27514562 C7.53189496,9.01164879 6.53298228,9.42541197 5.4914095,9.42541197 Z"/>
</svg>
