<svg xmlns="http://www.w3.org/2000/svg" width="16" height="16" viewBox="0 0 16 16">
  <path fill="#1A394A" d="M23.2727273,18.1818182 L21.8181818,18.1818182 L21.8181818,16 C21.8181818,15.5983384 21.4925707,15.2727273 21.0909091,15.2727273 L16.7272727,15.2727273 L16.7272727,13.8181818 L18.1818182,13.8181818 C18.5834798,13.8181818 18.9090909,13.4925707 18.9090909,13.0909091 L18.9090909,8.72727273 C18.9090909,8.32561109 18.5834798,8 18.1818182,8 L13.8181818,8 C13.4165202,8 13.0909091,8.32561109 13.0909091,8.72727273 L13.0909091,13.0909091 C13.0909091,13.4925707 13.4165202,13.8181818 13.8181818,13.8181818 L15.2727273,13.8181818 L15.2727273,15.2727273 L10.9090909,15.2727273 C10.5074293,15.2727273 10.1818182,15.5983384 10.1818182,16 L10.1818182,18.1818182 L8.72727273,18.1818182 C8.32561109,18.1818182 8,18.5074293 8,18.9090909 L8,23.2727273 C8,23.6743889 8.32561109,24 8.72727273,24 L13.0909091,24 C13.4925707,24 13.8181818,23.6743889 13.8181818,23.2727273 L13.8181818,18.9090909 C13.8181818,18.5074293 13.4925707,18.1818182 13.0909091,18.1818182 L11.6363636,18.1818182 L11.6363636,16.7272727 L20.3636364,16.7272727 L20.3636364,18.1818182 L18.9090909,18.1818182 C18.5074293,18.1818182 18.1818182,18.5074293 18.1818182,18.9090909 L18.1818182,23.2727273 C18.1818182,23.6743889 18.5074293,24 18.9090909,24 L23.2727273,24 C23.6743889,24 24,23.6743889 24,23.2727273 L24,18.9090909 C24,18.5074293 23.6743889,18.1818182 23.2727273,18.1818182 Z M12.3636364,19.6363636 L12.3636364,22.5454545 L9.45454545,22.5454545 L9.45454545,19.6363636 L12.3636364,19.6363636 Z M14.5454545,12.3636364 L14.5454545,9.45454545 L17.4545455,9.45454545 L17.4545455,12.3636364 L14.5454545,12.3636364 Z M22.5454545,22.5454545 L19.6363636,22.5454545 L19.6363636,19.6363636 L22.5454545,19.6363636 L22.5454545,22.5454545 Z" transform="translate(-8 -8)"/>
</svg>
