<svg xmlns="http://www.w3.org/2000/svg" width="17" height="16" viewBox="0 0 17 16">
  <path fill="#1A394A" d="M4.8047619,11.2 C5.4675036,11.2 6.0047619,10.6627417 6.0047619,10 C6.00866729,9.96009533 6.00866729,9.91990467 6.0047619,9.88 L8.2367619,7.648 L8.4207619,7.648 L8.6047619,7.648 L9.8927619,8.936 C9.8927619,8.936 9.8927619,8.976 9.8927619,9 C9.8927619,9.6627417 10.4300202,10.2 11.0927619,10.2 C11.7555036,10.2 12.2927619,9.6627417 12.2927619,9 L12.2927619,8.936 L15.2047619,6 L15.2047619,6 C15.8675036,6 16.4047619,5.4627417 16.4047619,4.8 C16.4047619,4.1372583 15.8675036,3.6 15.2047619,3.6 C14.5420202,3.6 14.0047619,4.1372583 14.0047619,4.8 C14.0008565,4.83990467 14.0008565,4.88009533 14.0047619,4.92 L11.1167619,7.808 L10.9887619,7.808 L9.6047619,6.4 C9.6047619,5.7372583 9.0675036,5.2 8.4047619,5.2 C7.7420202,5.2 7.2047619,5.7372583 7.2047619,6.4 L4.8047619,8.8 L4.8047619,8.8 C4.1420202,8.8 3.6047619,9.3372583 3.6047619,10 C3.6047619,10.6627417 4.1420202,11.2 4.8047619,11.2 Z M15.6047619,14.4 L2.0047619,14.4 L2.0047619,0.8 C2.0047619,0.3581722 1.6465897,0 1.2047619,0 C0.762934105,0 0.404761905,0.3581722 0.404761905,0.8 L0.404761905,15.2 C0.404761905,15.6418278 0.762934105,16 1.2047619,16 L15.6047619,16 C16.0465897,16 16.4047619,15.6418278 16.4047619,15.2 C16.4047619,14.7581722 16.0465897,14.4 15.6047619,14.4 Z"/>
</svg>
