<?xml version="1.0" encoding="UTF-8"?>
<svg width="18px" height="13px" viewBox="0 0 18 13" version="1.1" xmlns="http://www.w3.org/2000/svg" xmlns:xlink="http://www.w3.org/1999/xlink">
    <!-- Generator: Sketch 47.1 (45422) - http://www.bohemiancoding.com/sketch -->
    <title>Shape</title>
    <desc>Created with Sketch.</desc>
    <defs></defs>
    <g id="Page-1" stroke="none" stroke-width="1" fill="none" fill-rule="evenodd">
        <g id="Login" transform="translate(-374.000000, -571.000000)" fill-rule="nonzero" fill="#FFFFFF">
            <g id="Group-7" transform="translate(271.000000, 300.000000)">
                <g id="Group-2-Copy-4" transform="translate(1.000000, 257.000000)">
                    <g id="right-arrow" transform="translate(102.000000, 14.000000)">
                        <path d="M12.1209908,0.195510794 C11.8757701,-0.0651702647 11.4676405,-0.0651702647 11.2138457,0.195510794 C10.968625,0.44738506 10.968625,0.866588384 11.2138457,1.11787553 L15.8135916,5.84242616 L0.635058749,5.84242616 C0.281232137,5.84301328 0,6.13187607 0,6.49530304 C0,6.85873002 0.281232137,7.15698672 0.635058749,7.15698672 L15.8135916,7.15698672 L11.2138457,11.8727306 C10.968625,12.1334116 10.968625,12.5532021 11.2138457,12.8044892 C11.4676405,13.0651703 11.8763417,13.0651703 12.1209908,12.8044892 L17.8096539,6.96147593 C18.0634487,6.70960166 18.0634487,6.29039834 17.8096539,6.03911119 L12.1209908,0.195510794 Z" id="Shape"></path>
                    </g>
                </g>
            </g>
        </g>
    </g>
</svg>