<?xml version="1.0" encoding="UTF-8"?>
<svg width="55px" height="43px" viewBox="0 0 55 43" version="1.1" xmlns="http://www.w3.org/2000/svg" xmlns:xlink="http://www.w3.org/1999/xlink">
    <!-- Generator: Sketch 47.1 (45422) - http://www.bohemiancoding.com/sketch -->
    <title>Page 1</title>
    <desc>Created with Sketch.</desc>
    <defs></defs>
    <g id="Page-1" stroke="none" stroke-width="1" fill="none" fill-rule="evenodd">
        <g id="Login" transform="translate(-200.000000, -153.000000)" fill="#264A5E">
            <g id="Group-6" transform="translate(200.000000, 153.000000)">
                <g id="Group">
                    <path d="M35.9008507,7.9229931 L37.7036874,1.98583146 C37.7511305,1.83672466 37.7782408,1.68084028 37.7782408,1.5249559 C37.7782408,0.704868505 37.2631446,0 36.4362796,0 L6.81146968,0 C4.08688181,0 1.68084028,1.76894884 0.860752886,4.3512075 C0.847197722,4.39187299 0.833642558,4.43253848 0.820087395,4.47320397 L0.060998236,7.03512988 C0.0338879089,7.12323845 0.0203327453,7.21134701 0.0135551636,7.29945557 C0,7.34689865 0,7.4011193 0,7.45533995 L0,7.49600544 C0,7.53667093 0.00677758178,7.57055884 0.00677758178,7.61122433 L0.0271103271,7.75355355 C0.0948861449,8.45842206 0.548984124,8.94640794 1.29451812,8.94640794 L34.4843361,8.94640794 C35.1282063,8.94640794 35.7043008,8.53297546 35.9008507,7.9229931 M52.8719154,11.3253391 L22.1220269,11.3253391 C21.4578239,11.3253391 20.8817295,11.7591044 20.6919572,12.3961971 L18.9230083,18.360469 C18.8823428,18.5027982 18.8552325,18.6451275 18.8552325,18.7874567 C18.8552325,19.6075441 19.5262131,20.2785247 20.3463005,20.2785247 L51.1029666,20.2785247 C51.760392,20.2785247 52.3432641,19.8447594 52.5262588,19.2076668 L54.3019852,13.2433948 C54.3426507,13.1078432 54.3629834,12.9587364 54.3629834,12.8164071 C54.3629834,11.9963197 53.6920028,11.3253391 52.8719154,11.3253391 M29.6315875,22.6574559 L18.8010118,22.6574559 C18.1435864,22.6574559 17.5607144,23.0912211 17.3709421,23.7215362 L15.6019932,29.6925858 C15.5613278,29.8281374 15.540995,29.9704666 15.540995,30.1127958 C15.540995,30.9396608 16.205198,31.6038638 17.032063,31.6038638 L27.8626387,31.6038638 C28.5200641,31.6038638 29.1029361,31.1700986 29.2927084,30.5397835 L31.0616573,24.5687339 C31.1023228,24.4331823 31.1226555,24.2908531 31.1226555,24.1485239 C31.1226555,23.3216589 30.4584525,22.6574559 29.6315875,22.6574559 M26.1817984,33.982795 L15.3512227,33.982795 C14.6870197,33.982795 14.1109253,34.4165603 13.921153,35.0468754 L12.1522041,41.0179249 C12.1115386,41.1534765 12.0844283,41.2958058 12.0844283,41.4449126 C12.0844283,42.265 12.7554089,42.9359806 13.5754963,42.9359806 L20.8546191,42.9359806 C23.6266501,42.9359806 26.0665795,41.1128111 26.852779,38.455999 L27.6118682,35.9008507 C27.6525336,35.7585215 27.6728664,35.6161922 27.6728664,35.473863 C27.6728664,34.646998 27.0086634,33.982795 26.1817984,33.982795" id="Page-1"></path>
                </g>
            </g>
        </g>
    </g>
</svg>