<?xml version="1.0" encoding="UTF-8"?>
<svg width="237px" height="297px" viewBox="0 0 237 297" version="1.1" xmlns="http://www.w3.org/2000/svg" xmlns:xlink="http://www.w3.org/1999/xlink">
    <!-- Generator: Sketch 50.2 (55047) - http://www.bohemiancoding.com/sketch -->
    <title>Group 11</title>
    <desc>Created with Sketch.</desc>
    <defs>
        <circle id="path-1" cx="96" cy="96" r="96"></circle>
        <filter x="-16.4%" y="-16.4%" width="132.8%" height="132.8%" filterUnits="objectBoundingBox" id="filter-2">
            <feOffset dx="0" dy="0" in="SourceAlpha" result="shadowOffsetOuter1"></feOffset>
            <feGaussianBlur stdDeviation="10.5" in="shadowOffsetOuter1" result="shadowBlurOuter1"></feGaussianBlur>
            <feColorMatrix values="0 0 0 0 0   0 0 0 0 0   0 0 0 0 0  0 0 0 0.0785212862 0" type="matrix" in="shadowBlurOuter1"></feColorMatrix>
        </filter>
    </defs>
    <g id="Page-1" stroke="none" stroke-width="1" fill="none" fill-rule="evenodd">
        <g id="Login-CODE-Pass-4" transform="translate(-863.000000, -316.000000)">
            <g id="Group-11" transform="translate(863.000000, 337.000000)">
                <g id="Group-8" transform="translate(22.000000, 0.000000)">
                    <g id="Group-3">
                        <g id="Group-6">
                            <g id="Group">
                                <g id="Oval">
                                    <use fill="black" fill-opacity="1" filter="url(#filter-2)" xlink:href="#path-1"></use>
                                    <use fill="#FFFFFF" fill-rule="evenodd" xlink:href="#path-1"></use>
                                </g>
                                <path d="M121.121373,69.9948953 L125.30884,56.4669534 C125.419037,56.1272105 125.482006,55.7720248 125.482006,55.4168391 C125.482006,53.5482536 124.285587,51.9421965 122.365019,51.9421965 L53.5551736,51.9421965 C47.2267458,51.9421965 41.6382088,55.972782 39.7333835,61.8565101 C39.7018988,61.9491673 39.6704141,62.0418244 39.6389293,62.1344815 L37.8757853,67.9718811 C37.8128158,68.1726383 37.7813311,68.3733954 37.7655888,68.5741525 C37.734104,68.6822525 37.734104,68.8057954 37.734104,68.9293382 L37.734104,69.0219953 C37.734104,69.1146525 37.7498464,69.1918668 37.7498464,69.2845239 L37.7970735,69.6088239 C37.9544971,71.2148809 39.009235,72.3267665 40.7408944,72.3267665 L117.83122,72.3267665 C119.326744,72.3267665 120.664845,71.3847523 121.121373,69.9948953 M160.783791,78.4421375 L89.2117023,78.4421375 C87.6657325,78.4421375 86.3248404,79.4297322 85.8831348,80.8802617 L81.7658072,94.4596876 C81.671156,94.7837421 81.6080552,95.1077966 81.6080552,95.4318511 C81.6080552,97.2990221 83.1698001,98.8267076 85.0785995,98.8267076 L156.666463,98.8267076 C158.196658,98.8267076 159.553325,97.839113 159.979256,96.3885834 L164.112358,82.8091575 C164.20701,82.5005342 164.254335,82.1610485 164.254335,81.836994 C164.254335,79.969823 162.69259,78.4421375 160.783791,78.4421375 M106.662146,104.942079 L81.1305132,104.942079 C79.5807207,104.942079 78.2066778,105.930421 77.759315,107.366607 L73.5892548,120.971763 C73.4933914,121.28062 73.4454596,121.60492 73.4454596,121.92922 C73.4454596,123.813249 75.0112294,125.326649 76.9604529,125.326649 L102.492086,125.326649 C104.041879,125.326649 105.415921,124.338306 105.863284,122.90212 L110.033344,109.296964 C110.129208,108.988107 110.17714,108.663807 110.17714,108.339507 C110.17714,106.455478 108.61137,104.942079 106.662146,104.942079 M99.5214035,131.44202 L74.000871,131.44202 C72.435782,131.44202 71.0783069,132.429614 70.6311386,133.864713 L66.4628915,147.45957 C66.3670697,147.768193 66.3031885,148.092247 66.3031885,148.431733 C66.3031885,150.298904 67.8842478,151.82659 69.8166536,151.82659 L86.9687511,151.82659 C93.500602,151.82659 99.2499085,147.675606 101.102463,141.626589 L102.891136,135.80904 C102.986958,135.484985 103.034869,135.160931 103.034869,134.836876 C103.034869,132.954274 101.46978,131.44202 99.5214035,131.44202" id="Page-1" fill="#335669"></path>
                            </g>
                        </g>
                    </g>
                </g>
                <path d="M10.412,265 L13.022,231.476 L0.204,231.476 L0.784,224.11 L35.468,224.11 L34.946,231.476 L22.128,231.476 L19.46,265 L10.412,265 Z M47.092858,235.826 C50.959544,235.826 54.0335133,236.995655 56.314858,239.335 C58.5962027,241.674345 59.736858,245.047978 59.736858,249.456 C59.736858,250.384005 59.6788586,251.369995 59.562858,252.414 L41.060858,252.414 C41.4088597,256.744688 43.786836,258.91 48.194858,258.91 C51.0948725,258.91 53.8595115,257.982009 56.488858,256.126 L58.344858,261.984 C57.1075185,263.066672 55.522201,263.91733 53.588858,264.536 C51.655515,265.15467 49.6448684,265.464 47.556858,265.464 C44.5795098,265.464 41.9695359,264.884006 39.726858,263.724 C37.4841801,262.563994 35.7441975,260.930344 34.506858,258.823 C33.2695185,256.715656 32.650858,254.270014 32.650858,251.486 C32.650858,248.431318 33.2791851,245.715012 34.535858,243.337 C35.792531,240.958988 37.5131804,239.112673 39.697858,237.798 C41.8825356,236.483327 44.3475109,235.826 47.092858,235.826 Z M47.382858,241.858 C43.9415075,241.858 41.8921946,243.926646 41.234858,248.064 L52.486858,248.064 C52.486858,245.97599 52.0325292,244.419672 51.123858,243.395 C50.2151868,242.370328 48.9681993,241.858 47.382858,241.858 Z M102.101716,235.826 C105.079064,235.826 107.341042,236.705658 108.887716,238.465 C110.43439,240.224342 111.207716,242.805316 111.207716,246.208 C111.207716,246.981337 111.188383,247.580665 111.149716,248.006 L109.815716,265 L101.057716,265 L102.391716,248.238 C102.430383,247.967332 102.449716,247.580669 102.449716,247.078 C102.449716,244.139319 101.173729,242.67 98.621716,242.67 C95.2576992,242.67 93.4017177,244.951311 93.053716,249.514 L91.835716,265 L83.077716,265 L84.411716,248.296 C84.4503829,248.025332 84.469716,247.638669 84.469716,247.136 C84.469716,244.158652 83.1937288,242.67 80.641716,242.67 C77.2776992,242.67 75.4217177,244.951311 75.073716,249.514 L73.855716,265 L65.097716,265 L67.359716,236.58 L75.885716,236.58 L75.595716,239.712 C77.799727,237.12132 80.699698,235.826 84.295716,235.826 C86.229059,235.826 87.891709,236.231996 89.283716,237.044 C90.675723,237.856004 91.7197125,239.035326 92.415716,240.582 C93.5370549,239.035326 94.929041,237.856004 96.591716,237.044 C98.254391,236.231996 100.091039,235.826 102.101716,235.826 Z M136.926574,235.826 C139.323919,235.826 141.440898,236.376994 143.277574,237.479 C145.11425,238.581006 146.535236,240.166323 147.540574,242.235 C148.545912,244.303677 149.048574,246.729986 149.048574,249.514 C149.048574,252.607349 148.478246,255.362321 147.337574,257.779 C146.196902,260.195679 144.592251,262.08066 142.523574,263.434 C140.454897,264.78734 138.086587,265.464 135.418574,265.464 C131.551888,265.464 128.632584,264.014015 126.660574,261.114 L125.558574,275.44 L116.800574,275.44 L119.874574,236.522 L128.516574,236.522 L128.226574,239.944 C129.154579,238.667994 130.382233,237.66267 131.909574,236.928 C133.436915,236.19333 135.109232,235.826 136.926574,235.826 Z M133.678574,258.852 C135.766584,258.852 137.400235,258.069008 138.579574,256.503 C139.758913,254.936992 140.348574,252.80068 140.348574,250.094 C140.348574,247.619321 139.79758,245.724673 138.695574,244.41 C137.593568,243.095327 136.017918,242.438 133.968574,242.438 C131.957897,242.438 130.362913,243.220992 129.183574,244.787 C128.004235,246.353008 127.414574,248.469987 127.414574,251.138 C127.414574,253.651346 127.955902,255.565327 129.038574,256.88 C130.121246,258.194673 131.667897,258.852 133.678574,258.852 Z M168.619432,235.826 C172.486118,235.826 175.560087,236.995655 177.841432,239.335 C180.122777,241.674345 181.263432,245.047978 181.263432,249.456 C181.263432,250.384005 181.205433,251.369995 181.089432,252.414 L162.587432,252.414 C162.935434,256.744688 165.31341,258.91 169.721432,258.91 C172.621447,258.91 175.386086,257.982009 178.015432,256.126 L179.871432,261.984 C178.634092,263.066672 177.048775,263.91733 175.115432,264.536 C173.182089,265.15467 171.171442,265.464 169.083432,265.464 C166.106084,265.464 163.49611,264.884006 161.253432,263.724 C159.010754,262.563994 157.270772,260.930344 156.033432,258.823 C154.796092,256.715656 154.177432,254.270014 154.177432,251.486 C154.177432,248.431318 154.805759,245.715012 156.062432,243.337 C157.319105,240.958988 159.039754,239.112673 161.224432,237.798 C163.40911,236.483327 165.874085,235.826 168.619432,235.826 Z M168.909432,241.858 C165.468081,241.858 163.418769,243.926646 162.761432,248.064 L174.013432,248.064 C174.013432,245.97599 173.559103,244.419672 172.650432,243.395 C171.741761,242.370328 170.494773,241.858 168.909432,241.858 Z M198.10829,265.464 C193.274933,265.464 188.88631,264.304012 184.94229,261.984 L187.78429,255.952 C189.369631,256.996005 191.070948,257.807997 192.88829,258.388 C194.705632,258.968003 196.503614,259.258 198.28229,259.258 C199.790298,259.258 200.901953,259.045335 201.61729,258.62 C202.332627,258.194665 202.69029,257.634003 202.69029,256.938 C202.69029,256.125996 202.255294,255.507335 201.38529,255.082 C200.515286,254.656665 199.113633,254.154003 197.18029,253.574 C195.130946,253.032664 193.439297,252.472003 192.10529,251.892 C190.771283,251.311997 189.620962,250.461339 188.65429,249.34 C187.687619,248.218661 187.20429,246.768676 187.20429,244.99 C187.20429,243.211324 187.735951,241.626007 188.79929,240.234 C189.862629,238.841993 191.341614,237.759337 193.23629,236.986 C195.130966,236.212663 197.296278,235.826 199.73229,235.826 C201.897634,235.826 204.004946,236.144997 206.05429,236.783 C208.103634,237.421003 209.824283,238.281328 211.21629,239.364 L208.43229,245.164 C207.040283,244.119995 205.590298,243.337003 204.08229,242.815 C202.574282,242.292997 201.066298,242.032 199.55829,242.032 C198.088949,242.032 196.967627,242.244665 196.19429,242.67 C195.420953,243.095335 195.03429,243.694663 195.03429,244.468 C195.03429,245.280004 195.469286,245.908331 196.33929,246.353 C197.209294,246.797669 198.610947,247.290664 200.54429,247.832 C202.593634,248.373336 204.285283,248.933997 205.61929,249.514 C206.953297,250.094003 208.103619,250.944661 209.07029,252.066 C210.036962,253.187339 210.52029,254.637324 210.52029,256.416 C210.52029,259.238681 209.408634,261.452325 207.18529,263.057 C204.961946,264.661675 201.936309,265.464 198.10829,265.464 Z M227.713148,253.806 C227.44248,257.286017 228.950465,259.026 232.237148,259.026 C232.971818,259.026 233.861143,258.968001 234.905148,258.852 L233.919148,265.174 C232.797809,265.367334 231.715153,265.464 230.671148,265.464 C226.765795,265.464 223.827158,264.613342 221.855148,262.912 C219.883138,261.210658 218.897148,258.69735 218.897148,255.372 C218.897148,254.675997 218.916481,254.154002 218.955148,253.806 L219.825148,243.076 L214.431148,243.076 L214.953148,236.522 L220.347148,236.522 L220.985148,228.17 L229.743148,228.17 L229.105148,236.522 L236.239148,236.522 L235.775148,243.076 L228.583148,243.076 L227.713148,253.806 Z" id="Tempest" fill="#FFFFFF"></path>
            </g>
        </g>
    </g>
</svg>