<svg xmlns="http://www.w3.org/2000/svg" width="311" height="222" viewBox="0 0 311 222">
  <g fill="none" fill-rule="evenodd" transform="translate(-1)">
    <path fill="#95C580" d="M166.846003,213.12743 C226.492756,213.12743 345.9991,165.318246 301.342169,119.12213 C256.685239,72.9260131 280.327143,-11.1710312 200.470045,1.96336004 C120.612946,15.0977513 164.744501,69.2114431 41.8065988,119.12213 C-81.1313031,169.032816 107.19925,213.12743 166.846003,213.12743 Z" opacity=".142"/>
    <g transform="translate(12 9)">
      <g transform="translate(34)">
        <path fill="#F3EBE5" d="M20.8553758,57.9858792 C21.0875217,59.448948 21.3216862,60.9100044 21.5538322,62.3730733 C21.6789891,63.1599507 21.804146,63.9770153 21.590168,64.7457805 C21.5578695,64.8584791 21.507403,64.9832525 21.3963767,65.0255145 C21.2550705,65.0818637 21.1056896,64.9691652 20.996682,64.862504 C20.5485394,64.4237846 20.3486921,63.9126161 20.0438744,63.3672356 C19.7390567,64.5083086 19.4362577,65.651394 19.13144,66.792467 C19.0749175,67.0037768 19.0123391,67.2271614 18.8508463,67.3760845 C18.6893535,67.5250076 18.3966477,67.5511698 18.2694722,67.374072 C18.2068937,67.2835107 18.1988191,67.1687997 18.1947817,67.0581136 C18.1604645,66.2088494 18.5278607,65.0114271 18.6429243,64.1682004 C18.0050277,65.1925498 17.2682167,67.6095315 16.6040776,67.5511698 C15.8410241,66.9937144 16.5939843,65.0838762 16.9654177,63.9327409 C16.6383948,64.3271859 16.1014312,65.0053897 15.7178858,65.3454979 C15.5886915,65.4581965 15.4251801,65.5769324 15.2616686,65.5246081 C15.027504,65.452159 15.0234667,65.1261382 15.0759519,64.8866537 C15.2253327,64.2285746 15.6169528,63.4477346 15.9197518,62.8439923 C15.4776652,63.3229612 14.226096,64.3432857 13.79814,64.1380133 C13.6568338,63.8220548 14.1897601,63.2243499 14.3774955,62.9285162 C15.5321691,61.1092394 16.8483354,59.3946112 18.3078267,57.8087814 C19.2020931,57.5431348 19.9328481,57.5451473 20.8594131,57.6578458"/>
        <path fill="#388BCB" d="M41.1857054,26.1936142 C41.0504552,25.14914 39.4920496,25.2276265 38.533186,25.6663459 C33.4905731,27.9766665 29.3624132,31.9513034 26.1002584,36.4250339 C22.8381037,40.9007768 20.3753384,45.8917132 17.9388156,50.8625249 C17.2948631,52.1786831 16.6387985,53.5290534 16.487399,54.9860849 C16.3359995,56.4451288 16.7861607,58.0530958 17.9791888,58.9104099 C19.4306055,59.9528716 21.5340493,59.5624516 22.9955592,58.5340772 C24.4590878,57.5057028 25.4583245,55.9661599 26.542345,54.545353 C28.9546438,51.3797308 31.9362048,48.6467906 35.3033299,46.5175928 C37.7862818,44.9458503 40.6729658,43.480769 41.7388183,40.7478288 C42.0860278,39.8603276 42.2051288,38.9003773 42.2798192,37.9504894 C42.6048235,33.7222808 42.0718972,29.4316855 40.7173763,25.4107617"/>
        <path fill="#F3EBE5" d="M67.9216473,55.2366379 C69.3932505,55.0434404 70.8668724,54.8502429 72.3384756,54.6570453 C73.1318091,54.5523967 73.9534037,54.4517729 74.7184759,54.6872324 C74.8315209,54.7214445 74.9546591,54.7757813 74.9950323,54.8864674 C75.0475175,55.0293531 74.9304352,55.1742512 74.8214276,55.2809124 C74.3692477,55.7135944 73.8524707,55.9007545 73.2953205,56.1905508 C74.4318262,56.5226091 75.5703505,56.8566798 76.7068561,57.1907505 C76.9167968,57.2511248 77.1388494,57.3215614 77.2841929,57.4845718 C77.4275178,57.6495947 77.4477044,57.9434159 77.266025,58.0641644 C77.1731666,58.1245386 77.058103,58.1305761 76.9490953,58.1305761 C76.0952021,58.1406384 74.9041926,57.744181 74.0624114,57.6073327 C75.0717414,58.2694368 77.4759656,59.0683891 77.3992565,59.7304932 C76.8199011,60.4751087 74.9243792,59.6741439 73.779799,59.271649 C74.165363,59.6097447 74.8315209,60.1631752 75.1625811,60.5535952 C75.2736074,60.684406 75.3886711,60.8514414 75.3321486,61.0144518 C75.2514022,61.2438739 74.9243792,61.2398489 74.688196,61.1794747 C74.0301128,61.0144518 73.2589846,60.6018946 72.6594426,60.2839236 C73.1297904,60.7387428 74.1189339,62.0126391 73.9009186,62.4332462 C73.5799516,62.568082 72.9965588,62.0186765 72.7038531,61.8234665 C70.9112829,60.6260443 69.2257018,59.2676241 67.6753708,57.7703432 C67.4331316,56.8727796 67.4553368,56.1442639 67.5926057,55.2245631"/>
        <path fill="#B1CBE6" d="M51.0581645,55.955695 C62.4292769,70.8942922 64.661915,91.3249319 60.5499044,109.626374 C60.0452393,111.878333 59.1610662,114.440212 56.9728386,115.192878 C54.7866297,115.945543 52.362219,114.351664 51.3427956,112.284852 C50.3213536,110.218041 50.3274096,107.819172 50.2628125,105.514889 C49.9660694,94.7863878 47.6183677,84.9091636 43.4881891,74.9977274 C38.9764838,81.5563813 32.0888155,86.1971472 24.7610793,89.3406322 C19.0401966,91.7938384 12.3765996,93.3937555 6.67994076,90.8842 C5.15787104,90.2160585 3.6923238,89.1917091 3.01203535,87.6763159 C2.33174689,86.1629352 2.70116169,84.1041739 4.14854099,83.2850968 C5.00445287,82.8000905 6.04406283,82.8161903 7.0271503,82.7497786 C11.8053188,82.4217453 16.1636059,79.8135786 19.6922238,76.5855697 C23.218823,73.3575608 26.0853204,69.4895851 29.2889339,65.9415928 C31.5902065,63.3897753 34.0691211,60.9969433 36.7014539,58.7892589 C40.5510387,55.56125 46.102354,55.7886597 51.1308363,55.8389715"/>
        <path fill="#388BCB" d="M47.8369886,25.4892482 C52.431459,25.9863294 55.8773118,29.9589537 57.9464384,34.0784888 C60.0135464,38.1980238 61.2307984,42.7764029 63.9317656,46.5135678 C65.8878473,49.2203458 68.6009265,51.4562049 69.8222158,54.5614528 C70.2542091,55.6582513 70.4338698,57.0287464 69.648611,57.9081976 C68.7079154,58.9627342 67.0082036,58.6910502 65.669832,58.2342185 C54.3067942,54.3702677 46.0262505,42.8569019 45.9979892,30.8867044 C45.9959706,29.8080182 46.0625864,28.6951198 46.5430275,27.7291322 C47.0254872,26.7631445 48.0146307,25.9782795 49.0925952,26.0366412 C48.9613823,25.6482337 48.8281507,25.2598261 48.6969378,24.8714186"/>
        <path fill="#388BCB" d="M46.0672293,24.5775973 C39.4561174,24.1791274 32.9015281,28.9748538 31.3007306,35.3825721 C30.2914006,39.4175832 31.084734,43.6981162 30.4004082,47.8015514 C30.0875159,49.6731526 29.4677872,51.5125541 29.4798992,53.4123299 C29.5000858,56.3565799 31.0806967,59.1378195 33.2527749,61.1362065 C37.5303157,65.0685814 44.2463979,66.1050057 49.5151007,63.645762 C54.7858223,61.1845059 58.2861789,55.3785174 57.9954919,49.5846037 C57.8481297,46.6624909 56.8347623,43.8591141 56.2776121,40.9853008 C55.583193,37.4051089 55.5811744,33.6518442 54.2105042,30.2728997 C52.8398339,26.8939553 49.4828022,23.8812812 45.8835312,24.521248 C45.5504523,24.5796098 45.1608509,24.6540713 44.9085184,24.4266617 C44.6582045,24.2012646 44.9610035,23.6377718 45.2214107,23.8531065"/>
        <path fill="#8CC0E7" d="M49.9933213,4.43272897 C47.2721675,2.32969327 41.8702331,2.11838346 38.7937951,3.65792634 C37.1041765,4.50316558 35.5376963,5.90384773 33.6502491,5.83743608 C31.2440063,5.75291215 29.677526,3.3942922 27.7557616,1.94933561 C24.2069571,-0.723230335 18.8332839,-0.153700092 15.4116551,2.67986381 C11.9900262,5.5134277 10.4195086,10.1582185 10.5991694,14.5876746 C10.7646995,18.6810474 12.3695343,22.7804577 15.3551326,25.5938969 C18.3427495,28.407336 22.7555405,29.781856 26.7302823,28.7434192 C29.7481791,27.9565418 32.2573736,25.93803 34.9401729,24.3522002 C37.6229722,22.7663704 40.8871456,21.5709606 43.8202587,22.6275097 C44.4763233,22.8649816 45.1909289,23.2111272 45.8348815,22.9414557 C46.3092666,22.7422207 46.5898604,22.2632518 46.8381556,21.81447 C48.6186138,18.5965235 51.1802935,17.3508019 52.9607517,14.1308429 C54.4747468,10.6210876 52.7144751,6.53576468 49.9933213,4.43272897"/>
        <path fill="#F4EBE6" d="M53.0655201,15.7852981 C53.0655201,21.0096815 49.9870635,25.2439276 46.1899638,25.2439276 C42.3928642,25.2439276 39.3144075,21.0096815 39.3144075,15.7852981 C39.3144075,10.5609146 42.3928642,6.32666859 46.1899638,6.32666859 C49.9870635,6.32666859 53.0655201,10.5609146 53.0655201,15.7852981"/>
        <path fill="#8CC0E7" d="M46.2390173,5.36973703 C47.2281607,6.4081738 46.7880928,8.40454837 45.4537585,8.93382913 C44.993504,9.11696429 44.4484657,9.16123873 44.1113495,9.52147164 C43.5279567,10.1433262 43.9882112,11.1676757 43.7924012,11.9988276 C43.6046658,12.7957674 42.8274817,13.3149858 42.0563535,13.5987447 C41.2852254,13.8825036 40.4495001,14.0213643 39.7530623,14.4560588 C38.2188807,15.416009 37.8454285,17.4405582 37.6153013,19.2316604 C37.5830027,19.4932821 37.0500765,18.8674026 36.8219679,18.7325668 C36.5958779,18.5997435 36.4606277,18.3542216 36.3516201,18.1147372 C35.5804919,16.4182213 35.5320441,14.4298966 36.1113995,12.6609316 C36.6927736,10.8899542 37.8797458,9.34236142 39.3735542,8.22543815 C41.3720277,6.73218218 43.8327744,6.01775378 46.2349799,5.3335125"/>
        <path fill="#8CC0E7" d="M46.7146136,5.33532372 C48.8362254,5.35746094 50.9093893,6.48243411 52.1044361,8.22926185 C53.2994828,9.9760896 53.5962259,12.2944601 52.9078628,14.2948596 C52.5828585,13.8279655 52.6292877,13.1095122 52.1508652,12.8016036 C51.8460476,12.6043811 51.4302036,12.6607304 51.1193299,12.4735703 C50.2916793,11.9704517 51.0345462,10.5154327 50.3966496,9.78892948 C50.1443171,9.50315812 49.7426037,9.41460925 49.3812636,9.28782336 C47.7986341,8.73238044 46.6722217,7.08416394 46.7348002,5.41179775"/>
        <path fill="#236CB6" d="M63.3112295 121.455094C62.6410344 122.475419 59.5484471 121.638229 56.4033746 119.583493 53.2583022 117.530769 51.2497354 115.039326 51.9199305 114.019001 52.5901257 112.998677 55.682713 113.835866 58.8298041 115.890603 61.9748765 117.943326 63.9814247 120.43477 63.3112295 121.455094M1.83172479 96.9884372C.618510062 96.8354892.0149306898 93.6980417.485278495 89.978989.953607639 86.2599364 2.31822187 83.3680108 3.53345525 83.5209588 4.74666998 83.6739069 5.34823069 86.8113544 4.87990155 90.530407 4.40955374 94.2494596 3.04493951 97.1413853 1.83172479 96.9884372"/>
        <path fill="#F4EBE6" d="M39.9181887,16.6240974 C40.6489437,17.2781516 40.8810896,18.2079147 40.4369844,18.7009709 C39.9908605,19.1960396 39.0380529,19.0652288 38.3093166,18.4131871 C37.5785617,17.7591329 37.3464158,16.8293698 37.790521,16.3343011 C38.2346262,15.8412449 39.1874338,15.9700432 39.9181887,16.6240974"/>
        <path fill="#093153" d="M29.670057,50.8361615 C29.670057,50.8361615 30.3442895,49.9808599 31.517131,48.8297246 C32.6758419,47.6725518 34.3311432,46.2557699 35.8612875,44.7262893 C37.3934505,43.2008338 38.691449,41.458031 39.290991,39.9728249 C39.6079207,39.2443092 39.8037307,38.6043423 39.8844771,38.1495231 C39.9773355,37.6947039 40.0318393,37.4350947 40.0318393,37.4350947 L40.5304483,37.5135812 C40.5304483,37.5135812 40.4698885,37.7832528 40.3649182,38.2602092 C40.2700412,38.7351532 40.0560632,39.4032947 39.712891,40.1579726 C39.0588451,41.6995279 37.6922122,43.4684929 36.119676,44.9838861 C34.5471398,46.5053167 32.8716519,47.8919115 31.7048664,49.0229221 C30.5300062,50.1378329 29.8396244,50.9830721 29.8396244,50.9830721 L29.670057,50.8361615 Z" opacity=".25"/>
      </g>
      <g transform="matrix(-1 0 0 1 94.731 122)">
        <path fill="#236CB6" d="M34.4308312,65.3912569 C32.0952414,65.2866082 30.3470818,67.9390495 30.69631,70.2433326 C31.0455382,72.5476157 32.8764629,74.368905 34.8749364,75.5763896 C36.629152,76.6329387 38.583215,77.355417 40.6038938,77.6935127 C43.4562605,78.1684566 47.0373635,78.2690803 48.2465409,80.8873095 C48.5856758,81.6198501 48.6623849,82.4510021 48.9813332,83.1936051 C49.9361594,85.4133643 52.6532759,86.1781046 55.0272202,86.6731733 C56.3676105,86.9529072 58.0289678,87.121955 58.8505625,86.0291815 C59.2724624,85.4697136 59.3310036,84.7271106 59.5550748,84.062994 C60.8550919,80.2010557 66.4871536,80.4667023 69.7836256,78.063808 C72.6884775,75.9466849 73.4212511,72.018335 74.0934649,68.4944924 C74.37204,67.0374609 74.7333802,65.4838307 75.8254753,64.4775936 C77.1820149,63.2258345 79.2168243,63.1956474 81.0275624,62.8394394 C83.4479359,62.362483 85.7209471,61.1751231 87.4933307,59.4645199 C87.9031187,59.070075 88.2987761,58.6212932 88.436045,58.0698752 C88.7186574,56.9207523 87.7779618,55.8219413 86.7585384,55.2141741 C81.7502427,52.2256497 75.506527,55.9547646 69.6746179,56.1660744 C66.2792316,56.2888354 62.9201812,55.1759371 59.5288323,55.3932843 C56.6482043,55.5804444 53.9230131,56.7154799 51.2624191,57.8344157 C45.5576857,60.2352976 39.8509335,62.638192 34.1441814,65.0390739" opacity=".15"/>
        <path fill="#236CB6" d="M7.95751693,66.9813129 C8.58330156,69.8430514 10.9410966,72.4592681 13.872191,72.6685654 C17.8509701,72.9543368 20.7961952,69.1386854 24.456026,67.5568806 C26.511022,66.6713919 28.8708356,66.5083814 31.0267646,67.1020614 C32.5548903,67.5226685 34.0345682,68.3155834 35.6171977,68.2310595 C36.6204718,64.3993083 33.9962136,60.2717234 30.3908867,58.6053946 C26.7855597,56.9390659 22.5282056,57.3153986 18.7512925,58.5450204 C17.2494094,59.0340517 15.7394516,59.6840809 14.6877297,60.8573534 C12.8588237,62.89599 12.767984,66.0897868 10.8664061,68.0599992" opacity=".15"/>
        <path fill="#F3EBE5" d="M82.8849315 57.3403532C82.6023191 58.8356217 83.9528027 60.4113891 85.4789098 60.3691271 86.2904111 60.3449775 87.0373154 59.9444951 87.7478837 59.554075 89.6151443 58.5257006 91.4844236 57.4993387 93.3516842 56.4729768 93.19221 55.6015754 91.962846 55.1507811 91.2744829 55.7122615 91.6035245 55.5975504 91.9103609 55.1326689 92.0193685 54.8026231 92.1647121 54.3679286 91.7125322 53.9211593 91.2542963 53.8869472 90.7940418 53.8527352 90.3660859 54.0922196 89.9684099 54.3236542 90.2449663 54.1143568 89.7826931 53.2067309 89.4758568 53.0437205 89.1690205 52.8807101 88.7955683 52.9430968 88.4544148 53.0175583 86.552837 53.4301156 84.5079343 54.2934671 83.7691047 56.0906067 83.5914626 56.5212762 83.4481377 57.0445195 83.0141258 57.2115549M53.6932896 81.4250426C52.8010419 81.9100489 52.4699816 83.0088599 52.3024328 84.0070472 52.0945108 85.2467314 52.0117458 86.5085529 52.052119 87.7663493 52.0581749 87.9675968 52.0743242 88.184944 52.2014998 88.3399045 52.4699816 88.6679378 53.0432811 88.4848027 53.2673523 88.1245698 53.489405 87.7643369 53.4873863 87.3175676 53.5600581 86.9009854 53.6307112 86.4844032 53.8386331 86.0275715 54.2484212 85.9188979 54.9670641 87.5268649 55.6877258 88.812836 56.7132051 90.2477302 56.8484554 90.4369028 57.0806013 90.6441877 57.2764113 90.5214267 57.4076242 90.4389153 57.4237735 90.2557801 57.4237735 90.1008196 57.4237735 89.4668902 57.4237735 88.8329607 57.4237735 88.1990313 57.9021959 89.2495429 58.8933581 89.7285118 59.9248934 90.2517552 59.9995838 89.1308069 59.6927475 87.9877215 59.0649442 87.0539334 59.5514412 88.2010438 60.6273871 88.7403869 61.8264712 89.0925699 61.7638927 87.9313722 61.3056569 86.7963367 60.544622 85.9168854 61.2269291 86.5649021 62.2160726 86.7319375 63.1386003 86.9150727 63.1870481 85.74985 62.1878113 84.8321617 61.2551904 84.1257832 60.1974125 83.3248184 59.1093547 82.5600782 57.997073 81.8335749 56.8666233 81.0970093 55.4333746 80.3825809 54.2363092 81.002423"/>
        <path fill="#093153" d="M44.4565066,55.0871869 C38.3016119,49.041714 34.3046649,42.2214384 27.4311272,36.9145435 C25.3882432,35.3387761 23.2545195,33.7650211 20.739269,33.0204056 C19.3302442,32.6018109 17.7455961,32.475025 16.4193364,33.0868173 C14.5399638,33.9562062 13.0582673,38.0294543 12.5091917,39.9413049 C10.2482924,47.8060547 7.07495873,57.4236697 9.28135423,65.3025068 C9.5861719,66.3892429 10.0524824,67.5967276 11.1486148,68.0294096 C13.0199127,68.7679876 14.7357738,66.7233137 15.5412192,64.9623986 C17.0249344,61.7243274 19.4130093,56.2805842 20.2063427,52.8332157 C24.332484,60.3155953 30.2572514,67.0795217 37.3023752,72.2576182 C39.2907554,73.720687 41.7313154,75.137469 44.1738942,74.5558639 C45.1085338,74.3344917 45.9402218,73.8313731 46.7355738,73.3141672 C49.9331314,71.2352812 52.928823,68.6814512 54.5942176,65.366906 C55.0807147,64.4029308 55.4481109,63.2940574 55.0988827,62.2777578 C54.8788487,61.6418159 54.4004263,61.1165601 53.9220038,60.6235039 C51.723683,58.3494079 49.2932162,56.2805842 46.6709767,54.45527 C46.2006289,54.1272367 45.67174,53.7931659 45.0883472,53.823353 C44.5049544,53.8555526 43.9437669,54.4613074 44.2183047,54.9503387"/>
        <path fill="#093153" d="M56.8401789,43.5555076 C52.6332912,38.1701262 48.4264035,32.7847448 44.2215345,27.397351 C42.965928,25.7913965 41.4196343,24.0345063 39.3787689,24.0304814 C37.1743921,24.024444 35.577632,26.0489932 34.3724919,27.8883947 C30.8176314,33.3301254 27.5393274,38.9489538 24.5537291,44.7207303 C25.6579362,46.6969801 26.1060787,48.0674751 27.8360705,49.530544 C28.0904216,49.7458787 28.3770714,49.9652385 28.7101503,49.9753008 C29.0735091,49.9873757 29.3924574,49.7499037 29.6770885,49.5224941 C32.7131533,47.1055124 35.7512367,44.6865182 38.7893202,42.2695365 C40.6808047,46.0630507 42.9295921,50.0678746 45.317667,53.5715925 C45.5356823,53.8915759 45.7718655,54.2236342 46.1231124,54.3866446 C47.0193974,54.8032268 47.9499998,53.921763 48.5455045,53.136898 C51.0849789,49.7941781 53.626472,46.4514582 56.1639277,43.1107508"/>
        <path fill="#348CD1" d="M64.5738676,18.3289403 C57.9809237,22.4323755 50.180821,27.2099896 47.3546969,34.4287352 C44.4700316,41.7984163 46.6542218,50.0314489 48.0733399,57.8156997 C48.9938489,62.8730477 49.5772417,67.9887576 49.8174622,73.1225797 C49.9163766,75.2356777 49.9688617,77.4051251 50.7844004,79.3572252 C51.6019578,81.3073129 53.3904906,83.0199286 55.5100837,83.0621905 C59.208269,83.1346396 61.0997535,78.5944974 61.2188545,74.9076444 C61.3359368,71.2228039 60.9079808,66.9885578 63.5463696,64.4045407 C64.6727819,63.3017048 66.1948517,62.7060124 67.4484396,61.7500871 C69.7174135,60.0173466 70.920535,57.2562318 71.8571933,54.5655536 C74.2028763,47.821752 75.4665575,40.7056427 75.5856585,33.5694086 C75.6462183,29.9489672 75.3736992,26.1775903 73.5831476,23.0280679 C71.7946148,19.8765331 68.1186347,17.5440753 64.5738676,18.3289403"/>
        <path fill="#348CD1" d="M62.2677503 21.6827288C63.6687004 19.4247326 66.765325 18.6056555 69.324986 19.3402086 71.884647 20.0727493 73.9154191 22.0791862 75.288108 24.3532823 76.6607968 26.6273783 77.4682609 29.1872457 78.3564713 31.6907638 80.2903477 37.1445693 82.6541987 42.4454268 85.4217817 47.5309495 86.673351 49.8332201 88.0520958 52.2783765 87.8300432 54.8885557 87.6100093 57.5007474 84.9070234 60.0344527 82.4866499 59.0141282 81.743783 58.7001822 81.1563529 58.1165646 80.5992027 57.5349595 70.5583873 47.0761303 64.2702611 35.560752 62.3000488 21.2178472M56.7277395 28.0596563C54.2286383 28.4058019 52.3573404 30.5309748 51.142107 32.7346342 49.9268736 34.9403061 49.099223 37.3914999 47.4701642 39.3114004 45.4575601 41.6861202 42.3912154 43.0425279 40.5784586 45.5722082 39.3612066 47.2747615 38.818187 49.3697473 38.5537426 51.4425959 37.998611 55.8096652 38.6647689 60.5087929 41.3253629 64.0205606 43.9859569 67.5343409 48.9195622 69.5005283 53.0335915 67.8985987 56.3583247 66.6025652 58.5162723 63.3906562 60.0706406 60.1847845 62.6868241 54.7873283 64.2210058 48.7821048 63.8354417 42.7990185 63.4518963 36.8179447 61.0395975 30.8730955 56.671217 26.751548"/>
        <path fill="#093153" d="M15.1839164,68.8034072 C14.8306509,70.194027 11.2011,70.4777859 7.07697739,69.4373366 C2.95083613,68.3968874 -0.107433926,66.426675 0.245831592,65.0380677 C0.597078451,63.6474479 4.22864798,63.363689 8.35277058,64.4041382 C12.4789118,65.442575 15.5371819,67.4127874 15.1839164,68.8034072"/>
        <path fill="#F4EBE6" d="M69.0316747,16.1154197 C67.5580528,21.7543729 62.6607834,25.3647519 58.0965929,24.177392 C53.5303838,22.9920446 51.0252266,17.4577401 52.5008671,11.818787 C53.974489,6.17983382 58.8717584,2.56945482 63.4359489,3.75681469 C68.0021581,4.94216209 70.5052966,10.4764666 69.0316747,16.1154197"/>
        <path fill="#093153" d="M70.8460464,9.11140522 C70.4100158,5.89949614 68.2258256,2.88480955 65.3108804,1.44790286 C63.3689294,0.491977538 61.1584966,0.332992064 59.065146,0.809948487 C56.9051797,1.3030047 55.1166469,2.76204862 54.4101158,4.85502195 C54.0245517,6.00213233 53.8771896,7.22974169 54.0063838,8.43320136 C54.2506417,10.7435219 55.5001923,12.9290691 57.3694715,14.3136514 C55.9442975,15.7545831 56.3904214,18.2842633 57.6682332,19.8539933 C58.9440264,21.4257358 60.9162573,22.2448129 62.8380218,22.8908172 C63.5425341,23.1262767 64.2753078,23.3496613 65.0141374,23.2691623 C65.6883698,23.1947008 66.3080985,22.8686799 66.8793793,22.5044221 C69.5561226,20.7978438 71.5566148,18.0649036 72.3701348,15.0039301 C72.9313223,12.8968695 72.7213816,10.2323534 70.8460464,9.11140522"/>
        <path fill="#F4EBE6" d="M58.1042638,16.8554066 C57.1756802,17.9361053 55.8554765,18.3305503 55.1570201,17.7328454 C54.4585637,17.137153 54.6462991,15.7767203 55.5748827,14.6960216 C56.505485,13.6133104 57.8256887,13.2208779 58.5221265,13.8165703 C59.2205829,14.4142752 59.0328475,15.7747078 58.1042638,16.8554066"/>
        <path fill="#093153" d="M61.6286425,67.7973713 C61.6286425,67.7973713 62.80754,60.0956319 62.9872007,52.3214434 C63.1063017,48.4373679 63.0235366,44.5532924 62.8297453,41.6492919 C62.6480659,38.7432789 62.4219759,36.8153285 62.4219759,36.8153285 L62.9246223,36.7630042 C62.9246223,36.7630042 63.1365816,38.7030294 63.3000931,41.6211173 C63.4716792,44.5392051 63.5342576,48.4413929 63.3747835,52.3335183 C63.0740031,60.1298439 61.7760047,67.817496 61.7760047,67.817496 L61.6286425,67.7973713 Z" opacity=".246"/>
        <path stroke="#093153" stroke-width=".72" d="M49.5067904,68.3737439 C48.8931178,58.319422 48.8870618,48.2288756 49.4886225,38.1745537" opacity=".246"/>
        <polygon fill="#093153" points="73.143 49.001 72.721 30.889 73.226 30.881 73.476 48.995" opacity=".246"/>
      </g>
      <g transform="translate(234 39)">
        <path fill="#236CB6" d="M9.46238465,77.149172 C13.1881773,80.2156727 15.8946034,77.9327615 17.3628801,74.3330968 C18.090536,72.5526522 18.834398,70.9256942 19.839179,69.2728859 C20.4825629,68.2130205 21.2491136,67.1983933 22.0270085,66.2386981 C23.5876602,64.3160765 26.2292618,63.0348673 27.4917204,60.9926877 C26.0218231,62.9621631 25.6814941,66.1643783 24.8630838,68.578157 C23.6686909,72.1018863 22.3721994,75.6837788 21.8195698,79.359379 C21.3560741,82.4436519 23.5909014,89.6316717 27.6116459,85.857517 C29.5709688,84.0189091 30.5141664,80.0848052 31.4930175,77.6031692 C32.710099,74.5172807 33.8915269,71.744828 35.6952708,68.9675283 C37.4325695,66.2936302 43.3786039,62.7812105 42.8421805,59.3334167 C42.1534194,54.9130026 33.7797045,50.6428438 30.2273176,50.2954794 C26.5404197,49.9335742 23.0868903,51.5314505 19.9591045,53.3522862 C15.9902197,55.6642792 13.8899033,60.784269 11.3973983,64.5164169 C9.08154026,67.9835984 7.16111213,72.4880262 8.28257733,76.7242564 C8.49649844,76.7888824 8.86275731,76.8082701 9.08802271,76.8050388 C9.27601399,76.5449195 9.2662903,76.2557184 9.05723104,75.9374356" opacity=".073"/>
        <path fill="#B1CBE6" d="M38.2585967,44.3670191 C32.3287684,42.7836836 26.8640564,44.2636176 20.9796054,43.811236 L21.7899126,44.4171042 C19.7155261,43.9711852 13.7484237,52.1092063 12.4665177,53.9138856 C9.48134584,58.1161872 6.80409077,63.4090515 5.83334271,68.4644154 C5.25316274,71.4743684 4.22245195,76.7866205 7.35185845,78.6026093 C10.8248352,80.6189385 12.6950243,77.4894275 14.4420467,74.7040496 C16.096694,72.0656957 17.2635364,69.1203687 18.9538373,66.4642426 C19.5323967,65.5546326 22.4138492,60.8886399 23.5758297,59.3957808 C23.2063296,60.6479083 21.3993445,65.1151762 21.1319431,66.081334 C20.2778793,69.1656068 19.5113287,72.3193525 19.1564141,75.5118738 C18.8663241,78.1211461 16.202034,89.403219 22.4997417,87.8441183 C25.4103653,87.1235391 26.8964687,82.6966624 27.912594,80.3151966 C29.4829694,76.6347495 30.9544873,72.4760704 33.4210625,69.3336343 C37.0091029,64.7629648 43.0604773,60.3861733 43.6714489,54.206318 C44.1349447,49.5112437 43.2889839,45.7096229 38.2585967,44.3670191"/>
        <path fill="#F3EBE5" d="M21.1379394 51.5456682C20.66472 51.854257 20.1607089 52.1095295 19.7766233 52.5457546 19.4184675 52.9496667 18.512544 57.0130225 19.3374368 57.0695702 19.7458316 57.0970362 19.7425904 56.0242456 19.878722 55.7867453 19.8041737 56.0743307 19.9176167 58.2780752 20.4475576 58.2392996 20.9418451 58.205371 20.8073341 56.1745009 21.0131521 55.7705888 20.8753999 56.3150623 21.1638692 58.1859832 21.5884702 58.384708 22.2626458 58.1019695 21.7942883 56.0048578 22.0438629 55.3941427 22.0341392 55.5557076 22.4117424 57.5688055 22.9076504 57.2650636 23.3192865 57.0114068 22.7585539 55.1388703 22.6370078 54.7947372 22.8363434 54.7478834 23.1896373 55.4749252 23.5542756 55.5363198 24.0906989 55.6267961 23.8670541 54.9918463 23.7276813 54.6444819 23.2528413 53.4553646 22.5559771 52.1983901 21.9498672 51.0577423L22.030898 50.944647C21.7375668 51.0173511 21.4199263 51.3614843 21.1379394 51.5456682M27.4153895 53.9251952C27.7848896 54.353342 28.1965256 54.7378663 28.4444797 55.2629521 28.6762275 55.7508779 28.413688 59.90471 27.6050014 59.73022 27.2047096 59.6445906 27.5077645 58.6138069 27.4429399 58.3472249 27.4348369 58.6445042 26.7120428 60.7303064 26.2128936 60.5477381 25.7477772 60.3764794 26.4430208 58.4635516 26.3587489 58.0176327 26.3376809 58.5798783 25.5403386 60.2973126 25.0768428 60.3700168 24.5063865 59.9111726 25.5419592 58.0273265 25.4722728 57.3713733 25.4366192 57.5297068 24.5144896 59.3570052 24.1223009 58.9288584 23.7965574 58.5718001 24.8580599 56.9286856 25.0687398 56.6314063 24.8920928 56.5296204 24.3491869 57.1322573 23.9829281 57.0902505 23.4416428 57.0272402 23.8322109 56.4795353 24.0639588 56.1838717 24.8515774 55.1740914 25.8709439 54.1578486 26.7703849 53.232082L26.7250077 53.1012145C26.9859267 53.2514698 27.1949859 53.6699227 27.4153895 53.9251952"/>
        <path fill="#8CC0E6" d="M45.1159026,40.8470058 C45.1159026,33.5168089 44.4028322,26.6341466 39.7532894,20.6223188 C37.7842428,18.0760569 35.5672422,16.1744387 32.4378357,15.1840462 C31.0765196,14.7526681 28.3765759,13.6782619 27.3491064,14.9465459 L27.6942972,14.9465459 C25.5048471,14.8189096 22.806524,18.2618564 21.6623702,19.8484232 C19.6673939,22.616029 18.2104615,25.6389072 17.212163,28.9412926 C16.022632,32.8786278 15.471623,36.696405 15.337112,40.7872268 C15.2512195,43.3771113 15.1701888,47.2530519 15.9497043,49.6732932 C16.8540072,52.4748276 20.1697843,53.1744034 22.5893617,51.7784831 C23.8210287,54.6430278 26.6392772,55.7691347 29.6698262,54.9887765 C31.3957806,54.5444732 32.7279257,52.7333313 34.3793318,52.500678 C36.1992819,52.2470212 37.5768042,53.3585873 39.6479494,52.7123279 C45.3768215,50.9270364 45.1159026,45.997693 45.1159026,40.8470058"/>
        <path fill="#256CB6" d="M23.9143761,88.1667633 C24.0213366,89.0521386 22.0133953,90.0215277 19.4317565,90.3317322 C16.8484971,90.6419367 14.66715,90.1750143 14.5601895,89.289639 C14.4532289,88.402648 16.4611702,87.4332589 19.0444297,87.1230544 C21.6260685,86.8144656 23.8074155,87.281388 23.9143761,88.1667633"/>
        <path fill="#2869B7" d="M9.86170405,79.4805526 C9.73853736,80.3643123 7.55070785,80.7924592 4.97393087,80.4386322 C2.39715389,80.0831895 0.407039345,79.0798718 0.528585428,78.1944965 C0.651752127,77.3107368 2.83958164,76.88259 5.41635861,77.2380326 C7.99475621,77.5918596 9.98487075,78.596793 9.86170405,79.4805526"/>
        <path fill="#0F3153" d="M36.4495047,3.59903913 C35.7396756,2.7007386 33.8160063,1.26119585 32.7950192,0.802351698 C31.5503873,0.241721693 30.5731567,0.949375705 29.3123187,0.939681814 C27.0061843,0.920294033 26.1180876,0.324119763 24.6595346,2.42123142 C23.5834466,3.96740697 22.7909661,6.10652549 24.4537166,7.66724187 C25.6756599,9.34590059 25.8182739,10.5059362 27.3578577,12.0811934 C29.4533122,14.2251588 32.3412471,14.2833222 34.5857981,12.2152922 C36.8173842,10.1585718 38.6940558,6.43934907 36.4495047,3.59903913"/>
        <path fill="#F4EBE6" d="M34.7318155,10.8974078 C34.3380062,15.0722433 31.5586524,18.2259891 28.5232415,17.9400193 C25.4894513,17.6556652 23.3486196,14.0414596 23.7424289,9.86662408 C24.1362382,5.69340419 26.915592,2.53965845 29.9493822,2.82401258 C32.9847931,3.1083667 35.1256248,6.72257224 34.7318155,10.8974078"/>
        <path fill="#0F3153" d="M29.2136233,2.32445408 C29.6171563,2.8188425 29.4145795,3.93848686 29.3141014,4.53466113 C29.1520399,5.51859103 28.8862592,6.44274193 29.3270663,7.3992058 C29.8002857,8.42514255 30.6446258,8.88075541 31.7336787,8.9405344 C32.50185,8.98092561 32.9345541,8.88075541 33.4871836,9.49470181 C33.7983416,9.84045058 33.9944359,10.3267608 34.4044514,10.5804176 C34.7075063,10.7662171 35.5210547,10.9697888 35.2909275,10.3009104 C35.2017937,10.0456379 35.4027499,9.65303536 35.4562301,9.36060299 C35.5761556,8.72403751 35.6798749,8.05192776 35.6474626,7.4024371 C35.5777762,6.01621074 34.5989251,4.1097456 33.5649731,3.20982942 C32.7968018,2.54095097 31.5554112,1.81714048 30.4955293,1.86722558 C29.9526235,1.89307595 29.4275444,2.1483484 28.9105684,2.27436898"/>
        <path fill="#103153" d="M24.1556856,5.18237459 C23.9952447,5.72846376 23.6516745,7.24394199 24.4328106,7.55576213 C25.2107056,7.86596663 25.9351202,6.08875336 26.2900348,5.58790235 C26.8394231,4.81077545 27.482807,3.96740697 28.3417327,3.50371587 C28.8165727,3.24682777 30.8909592,2.04801664 29.0693886,1.97208116 C27.4617391,1.90422393 24.5511155,3.38092659 24.1556856,5.18237459"/>
        <path stroke="#256CB6" stroke-width=".576" d="M24.8582219 54.6646775C24.7285728 51.4899283 28.9778239 48.8160302 30.2013878 46.0193427 31.528671 42.980308 33.3340355 39.556749 33.6759852 36.2446697 33.9223186 33.8518944 33.878562 30.7692372 33.1460442 28.5105607M32.8635711 54.4171601C33.5004726 52.8338247 35.0514007 51.8531261 36.3640984 50.7609477 39.2487921 48.3617098 41.2713189 45.0173176 42.3441657 41.4289624 43.4170125 37.8406072 43.5709708 34.0147518 43.0945102 30.300376" opacity=".217"/>
        <path fill="#256CB6" d="M22.3992636,51.8002944 C22.3992636,51.8002944 22.4705707,51.5224028 22.595358,51.0377083 C22.7282484,50.5465512 22.8352089,49.8760571 22.8822067,49.0246104 C23.0069941,47.3314108 22.7282484,45.0614248 22.2744763,42.822136 C21.838531,40.5812317 21.3296581,38.3322491 21.2129739,36.5938114 C21.1513905,35.7262081 21.1724585,34.9943194 21.2226975,34.4853902 C21.292384,33.9764609 21.3328993,33.6856442 21.3328993,33.6856442 L21.7299499,33.764811 C21.7299499,33.764811 21.6926757,34.0427025 21.6262305,34.5257814 C21.5776121,35.0120915 21.5565441,35.7181299 21.6165069,36.563114 C21.7283293,38.2611605 22.2307197,40.4939867 22.6699062,42.7462006 C23.1252989,44.9951832 23.4089064,47.3039448 23.2824985,49.0488451 C23.2371213,49.9099857 23.1107134,50.6644935 22.9826848,51.1378785 C22.8578975,51.622573 22.7849699,51.8988489 22.7849699,51.8988489 L22.3992636,51.8002944 Z" opacity=".217"/>
      </g>
      <g transform="matrix(-1 0 0 1 287 113.596)">
        <path fill="#236CB6" d="M5.3214183,72.5701198 C6.23788999,75.9591267 8.82581224,78.7142041 11.8336158,80.5395183 C14.8414194,82.366845 18.2670856,83.3771071 21.6705465,84.2847331 C23.4348554,84.7576646 25.2395376,85.2104713 27.066425,85.1279598 C29.0467305,85.0373985 30.944271,84.3209576 32.7570278,83.5179803 C33.5745851,83.155735 34.4183851,82.7472027 34.9614046,82.0388117 C36.1604887,80.4710942 35.4256965,78.2312102 34.632363,76.4260207 C34.3739745,75.8383782 34.1095301,75.2446983 33.6997421,74.751642 C33.0335842,73.9426273 32.0424221,73.4717083 31.0593347,73.105438 C25.5342619,71.0567391 19.4116658,71.5980947 13.5757195,72.4312591 C10.8989762,72.8116168 8.12129987,73.2422863 5.53135895,72.4694961" opacity=".15"/>
        <path fill="#3184BC" d="M37.5271216,24.7416542 C39.2934492,22.8620032 41.6855614,21.5780445 44.2310918,21.1413376 C45.1778434,20.9783272 46.2053414,20.9421026 47.045104,21.4049717 C48.3128226,22.0992754 48.7831704,23.7716416 48.4682594,25.1783611 C48.1553671,26.5850807 47.2247648,27.7724406 46.2416773,28.8289896 C44.7720928,30.412807 43.1228474,31.8295889 41.3363333,33.0471359 C40.0302602,33.938662 38.5001158,34.7537141 36.9376729,34.494105 C35.14914,34.1942463 33.8995894,32.5943292 32.9588938,31.0487489 C32.0202169,29.5011561 31.1723796,27.697979 31.6063915,25.9431014"/>
        <path fill="#093153" d="M58.7042792,50.6234832 C58.2843979,48.0072665 57.1700975,45.264264 54.7315561,43.8776692 C53.4779682,43.1652532 51.994253,42.8855193 50.5347618,42.7204964 C47.2625137,42.3481886 43.899426,42.4930868 40.7402229,43.3564383 C37.9161174,44.1312409 35.3120459,45.459474 32.7422916,46.7897195 C23.0668537,51.8027932 13.7749612,57.8039917 4.34983719,63.2074854 C2.6339761,66.4918435 3.42730952,70.5610667 5.60544378,73.6039279 C7.78357803,76.6467891 11.1587777,78.7961118 14.6833583,80.4382908 C16.5062083,81.287555 18.4400847,82.0321705 20.4789314,82.1307818 C22.1261581,82.2112807 23.7693474,81.8611102 25.3196784,81.3439043 C30.144276,79.7359373 34.1937082,76.5280532 37.3973218,72.8271128 C40.2194086,69.5689168 42.4419534,65.9182883 44.5877891,62.2394852 C47.3715214,65.513781 48.6251093,72.3763186 48.7946767,75.3769178 C48.911759,77.4417165 49.3053978,79.9049851 51.3381885,80.7683366 C52.8844821,81.4244033 54.7860599,80.7683366 55.9589015,79.6272637 C57.131743,78.4861907 57.737341,76.9607351 58.3146778,75.479554 C60.9046187,68.8343637 59.8246356,57.6107942 58.7042792,50.6234832"/>
        <path fill="#F2EBE5" d="M61.4900302,25.678461 C62.8728123,25.2638913 63.884161,24.0362819 64.4251619,22.699999 C64.9379016,21.4361651 65.0933384,19.9851711 64.60886,18.7112748 C64.3524902,18.0411208 63.9326089,17.4474409 63.4642797,16.9060853 C62.8082152,16.1514074 62.0451617,15.4872909 61.2053991,14.9398978 C60.7047714,14.6118645 59.9699791,14.3522553 59.5662471,14.7929872 C59.2372055,15.1491952 59.3805303,15.7308003 59.6550681,16.1292702 C59.9316245,16.5257276 60.321226,16.849736 60.498868,17.2985178 C60.0426509,16.7088628 59.3785117,16.302343 58.6962046,15.9964469 C58.5649917,15.9360727 58.4075362,15.8857608 58.2843979,15.9602223 C58.2258568,15.9944344 58.1854836,16.0548086 58.1572223,16.1171953 C57.9694869,16.5378025 58.2763233,17.0026841 58.5670103,17.3609045 C58.7567644,17.5943515 58.9485371,17.829811 59.1382911,18.0652705 C59.1604964,18.0914327 59.1907763,18.1216198 59.2250935,18.1135699 C59.2594107,18.1035075 59.2452801,18.0350834 59.2150002,18.0531957 C58.8899959,17.8640231 58.3994615,17.7311998 58.0260094,17.676863 C57.9230577,17.6607632 57.8120314,17.6507008 57.7171544,17.6990002 C57.6020908,17.7553495 57.5395123,17.8861603 57.5051951,18.0089212 C57.3578329,18.5321646 57.5274004,19.1016948 57.8301994,19.5524891 C58.1350171,20.0012709 58.5609543,20.3534539 58.9808356,20.697587 C58.5932529,20.6311753 58.2036515,20.5667762 57.8160688,20.5003645 C57.6061281,20.4661524 57.3416836,20.4540776 57.2367133,20.6392252 C57.1801908,20.7398489 57.1963401,20.8646224 57.2185454,20.9793334 C57.3780195,21.7480986 57.7716582,22.4444147 58.1249238,23.1467683 C58.4297414,23.756548 58.7123538,24.388465 59.1403098,24.9197582 C59.5682657,25.4530639 60.1698264,25.8857459 60.8521336,25.9400827 C61.009589,25.9521575 61.1831938,25.9380702 61.3002761,25.8314091 C61.4153397,25.7247479 61.4213957,25.4993508 61.2800895,25.4309267"/>
        <path fill="#F1EBE5" d="M56.1082823,16.6492936 C54.9737953,16.6150815 53.8211404,16.5828819 52.7270266,16.8827406 C50.1714029,17.5871066 48.4696725,19.9235893 46.9738453,22.1051116 C47.0344051,22.9141262 47.4906223,23.5923301 48.1890787,24.0089123 C48.8875351,24.4254945 49.7636336,24.5140434 50.5468737,24.2966961 C52.0850927,23.872064 53.2781208,22.3667332 54.8728623,22.3848455 C55.2342025,22.3888704 55.7045503,22.4190576 55.8458565,22.0869993 C55.9932187,21.7468911 55.59958,21.406783 55.2321838,21.3383588 C54.8668063,21.2719472 54.4630743,21.326284 54.150182,21.1250365 C54.6306231,21.0304502 55.0040752,20.5494689 54.9737953,20.0624501 C54.9414968,19.5734188 54.5115222,19.1427493 54.0230064,19.1085372 C54.4206825,18.378009 55.6359158,18.6215184 56.1950847,18.0057013 C56.5745928,17.5891191 56.507977,16.9471398 56.419156,16.3916968 C56.2717938,16.4279214 56.1284689,16.4641459 55.9831254,16.5023829"/>
        <polygon fill="#236CB6" points="59.449 25.204 51.73 22.334 56.27 10.197 63.989 13.067"/>
        <polygon fill="#8CC0E6" points="59.158 23.672 52.958 21.368 56.562 11.73 62.763 14.034"/>
        <path fill="#F2EBE5" d="M60.972042 24.6842987C60.4229664 24.7688226 59.9283947 24.2918662 59.742678 23.7686229 59.5569612 23.247392 59.5852225 22.6778618 59.5024574 22.1304687 59.4176737 21.5830757 59.1734158 21.0014706 58.6647135 20.778086 58.3074106 20.621113 57.895604 20.6754498 57.5080212 20.6311753 57.1184198 20.5848884 56.6844079 20.3574788 56.654128 19.9690713 56.6117361 19.4719901 57.2193528 19.2003061 57.7119059 19.1198071 58.3921944 19.0050961 59.0825761 18.9648466 59.7689205 18.9970462 60.2836789 19.0211958 60.8166051 19.0916324 61.2526357 19.3633165 61.5534161 19.5504766 61.7936366 19.8221606 62.0116519 20.0998821 62.5001677 20.7177117 62.920049 21.3878657 63.2632212 22.0942442 63.4751805 22.5329636 63.6608972 22.9998577 63.6487853 23.484864 63.6346546 24.1811801 63.2066987 24.8231594 62.6414739 25.2337042 62.0782677 25.644249 61.3899046 25.8515338 60.7035602 25.9823447M43.3202724 12.0785618C44.2286695 17.5967665 41.1381008 22.698389 36.4144362 23.4711791 31.6907715 24.2439693 27.1245624 20.3981308 26.2161653 14.8779136 25.3077683 9.35970894 28.3983369 4.26009891 33.1220015 3.48529629 37.8456662 2.71250613 42.4118754 6.56035711 43.3202724 12.0785618"/>
        <path fill="#8CC0E7" d="M21.8013557,8.90609722 C21.0625261,9.12344445 20.7375218,9.90227203 20.6042902,10.5965757 C20.071364,13.3415907 21.0201342,16.2757783 23.046869,18.3667392 C25.0736037,20.4577 28.1237991,21.6812845 31.1901438,21.7034217 C32.5688887,21.713484 34.0061747,21.4699746 35.1002885,20.7072469 C36.2630367,19.8982322 36.9029519,18.5901238 37.1270232,17.2739656 C37.3490758,15.9598198 37.2017136,14.6174995 37.0543514,13.2932913 C37.6236136,12.4379897 38.3644618,11.8523597 39.3354374,11.3814407 C41.3440042,10.4053906 42.7792715,8.40901605 42.6864131,6.34421736 C42.5552002,3.42612954 39.5696019,1.18222063 36.456828,0.449679963 C33.1664121,-0.32713514 29.5287866,0.190070771 26.6562332,1.84432469 C23.7836799,3.49857862 21.7165719,6.26573086 21.0847313,9.3005422"/>
        <path fill="#0F3153" d="M66.0415031,76.7109871 C66.6430638,78.2646173 63.6231483,80.8707716 59.2971597,82.5330754 C54.9731897,84.1933667 50.98028,84.2799031 50.380738,82.7242605 C49.7791773,81.1706303 52.7990928,78.564476 57.1230627,76.9041846 C61.4490514,75.2438933 65.441961,75.1573569 66.0415031,76.7109871"/>
        <path fill="#388BCB" d="M64.3710619,24.0960524 C63.0064476,23.0052913 60.955489,23.1743392 59.4314006,24.0296408 C57.9093309,24.8869549 56.7950305,26.2976994 55.7211033,27.6742318 C54.059746,29.8054422 52.3963701,31.9366525 50.7350128,34.0698754 C50.7329942,34.0718878 50.7309755,34.0718878 50.7289569,34.0739003 L50.6583038,33.9954138 L50.6643597,33.9913889 C50.1152842,33.3795967 49.558134,32.7637795 48.9969465,32.1519873 L48.8818829,32.0231889 L48.8818829,32.0231889 C44.5498383,27.309974 39.8100243,22.8261811 33.6248498,21.3691497 C25.8590644,19.5398105 18.1800813,24.8768925 13.0748899,30.9887771 C6.70197995,38.6160549 2.39617794,47.9418611 0.730783353,57.7265115 C0.409816396,59.6021376 0.189782444,61.5562502 0.710596752,63.3876018 C1.92381148,67.6459976 6.74639047,69.8818566 11.1753307,70.1837277 C17.8389278,70.6385469 24.5328047,67.8834695 29.3856636,63.3050904 C34.2365038,58.7287237 35.9826448,49.2338697 37.2725686,42.7013779 C42.2021366,43.278958 48.1632399,48.7146513 53.0928078,49.2922314 C54.6754374,49.4773791 56.322664,49.6564893 57.8245471,49.129221 C60.4346746,48.2095202 62.1626477,43.2688957 63.1235299,40.6788412 C64.4033604,37.2234227 65.2915709,33.6251185 65.7619187,29.9724776 C66.0324191,27.8815167 66.0203072,25.4142231 64.3710619,24.0960524"/>
        <path fill="#F1EBE5" d="M53.106131 19.5007685C52.4500665 18.8587892 51.4851469 18.3959201 50.5868432 18.5850927 46.0912871 19.5249182 46.5414483 22.6462659 46.5414483 22.6462659 46.5898962 23.11316 46.745333 23.541817 47.1046545 23.8457006 47.772831 24.407181 48.8568515 24.1998961 49.4886921 23.5961538 50.1205327 22.990399 50.3890145 22.1049103 50.5424327 21.2455838 50.5787685 21.0342739 50.6171231 20.8129018 50.754392 20.6478789 51.0793963 20.2634963 51.6910503 20.4385815 52.1775474 20.5714048 52.6640444 20.7042282 53.3725941 20.6136668 53.4129673 20.1125607 53.4311353 19.8771012 53.2736798 19.6657914 53.106131 19.5007685M36.9231385 13.3317296C38.1565399 14.3621165 38.6067011 15.8513475 37.9284313 16.6583497 37.2501615 17.4653519 35.6998305 17.2842292 34.4664292 16.2558548 33.2330279 15.225468 32.7848853 13.7362369 33.4631551 12.9292347 34.1414249 12.1222325 35.6897372 12.3013427 36.9231385 13.3317296"/>
      </g>
      <g transform="translate(121.168 25.798)">
        <path stroke="#BBBAB9" stroke-width="1.512" d="M22.0958765,80.5142643 C21.8798799,80.4840772 21.2581326,78.8157359 18.5228482,79.830023" stroke-linecap="round" stroke-linejoin="round"/>
        <path fill="#236CB6" d="M66.39618,140.852271 C67.8092421,145.132803 54.197417,153.446335 35.9911215,159.421371 C17.784826,165.394395 1.87980305,166.766903 0.466740974,162.48637 C-0.9463211,158.205837 12.6675227,149.892305 30.8717995,143.917269 C49.078095,137.944245 64.983118,136.571738 66.39618,140.852271" opacity=".08"/>
        <polygon fill="#BBBAB9" points="6.468 110.41 2.484 108.102 2.429 89.338 6.416 91.646"/>
        <polygon fill="#BBBAB9" points="6.415 91.647 2.43 89.339 26.018 75.76 30.003 78.071"/>
        <polygon fill="#F4E8E6" points="30.003 78.07 30.058 96.834 6.468 110.41 6.415 91.646"/>
        <path fill="#286CB5" d="M53.5066315,65.5702334 C60.0733329,74.1896611 63.1154536,85.0992846 63.6726038,95.9102969 C64.229754,106.719297 62.4715011,122.595707 60.1783032,133.175285 C59.52022,136.214121 58.7167933,139.428042 56.4639686,141.577365 C54.2111439,143.724675 50.0123309,144.121133 48.2379287,141.56529 C47.2407106,140.130396 47.2709905,138.252757 47.3113637,136.507942 C47.5213043,127.353196 46.9661728,113.09884 45.7065289,104.026606 C45.3532634,101.482838 45.2785729,99.1443432 43.4173683,97.3713532 C43.09842,111.108503 36.7517526,124.602144 26.3617091,133.628091 C23.4689691,136.141672 19.2378576,138.379543 16.0059827,136.31877 C13.2626237,134.569929 12.9497313,130.549006 14.1730394,127.542369 C15.3963474,124.537745 17.7440491,122.146925 19.5184513,119.428072 C26.0326675,109.454249 24.2804705,96.5241015 24.3874595,84.6243407 C24.450038,77.7638156 25.9216412,69.8004545 32.0079014,66.6006203 C33.3402171,67.0051276 34.6442715,65.954616 36.018979,65.7231815 C41.8105149,64.7451189 47.7373009,64.5760711 53.575266,65.2240878"/>
        <path fill="#F2EBE5" d="M49.4343885 13.4390976C51.4510299 18.8707659 49.8502325 24.4674571 45.8573228 25.9405883 41.8644131 27.4137196 36.9933863 24.2058354 34.9767448 18.7741671 32.9601034 13.3445113 34.5609008 7.74782013 38.5538105 6.27267643 42.5467202 4.7995452 47.417747 8.00742933 49.4343885 13.4390976M71.2978905 15.1577507C72.0811306 14.115289 72.2406048 12.6824073 71.8631153 11.4346732 71.4876446 10.1889515 70.623658 9.12435259 69.5800108 8.34150007 68.7624534 7.73172034 67.7450487 7.26482629 66.739756 7.45399888 66.4591622 7.50632321 66.1805871 7.61298435 65.9605532 7.79611952 65.6133436 8.08591583 65.4377202 8.53268513 65.3408245 8.97542949 65.0218762 10.4042863 65.3650485 11.9055922 65.92018 13.2619999 66.1503072 13.8234802 66.424845 14.3789231 66.834633 14.8297174 67.4705109 15.5220086 68.4253372 15.9104161 69.3660328 15.8621167 70.0866944 15.8258922 70.7750575 15.5481707 71.4230474 15.2281873"/>
        <polygon fill="#286CB5" points="69.77 14.963 62.335 14.001 63.86 2.283 71.294 3.242"/>
        <polygon fill="#8CC0E6" points="69.053 13.399 63.429 12.673 64.643 3.333 70.269 4.062"/>
        <path fill="#F2EBE5" d="M70.9773273 12.0935573C70.1577513 11.3489418 69.1161227 10.857898 68.3813304 10.030771 68.1047739 9.71682505 67.7373778 9.31634265 67.3497951 9.47532812 67.0974626 9.57595184 66.9864363 9.88788537 67.0288281 10.153532 67.0692013 10.4211911 67.2246381 10.6546381 67.374019 10.8800352 67.9069453 11.6830125 68.4156476 12.5181894 68.6841294 13.4419151 68.9263686 14.273067 69.0737308 15.1364185 69.7156647 15.7160111 70.4585316 16.0782565 71.459787 15.762298 71.8554444 15.0378073 72.3883707 14.0677946 71.7969033 12.8381728 70.9773273 12.0935573M15.1837825 75.8489462C14.729584 76.7907842 14.2733668 77.7326222 13.8191682 78.6744602 13.4275482 79.4834749 13.0278535 80.4112256 13.3508391 81.2504274 13.5870223 81.8662445 14.1805084 82.2928891 14.812349 82.4840742 15.4441896 82.6772717 16.1184221 82.6692218 16.778524 82.6430597 17.888787 82.5987852 19.1665989 82.4076002 19.7398983 81.4577123 20.3131978 80.5098368 19.8791859 79.2842399 19.338185 78.3182523 18.6538592 77.0926554 17.806022 75.9576198 16.8269718 74.9513826 16.6937402 74.8165469 16.552434 74.6796986 16.3707546 74.6293868 15.7530446 74.4583264 15.4058351 75.3015532 14.9233753 75.7201479"/>
        <path fill="#093153" d="M42.9605455,48.7284393 C51.5802242,50.8596496 61.2496061,48.0663352 67.3923888,41.6706917 C73.5331528,35.2750482 75.9131531,25.5225974 73.4019399,17.0299556 C73.1859433,16.2994274 72.9154428,15.546762 72.356274,15.0295561 C71.2762908,14.0313688 69.4514221,14.2990279 68.3189538,15.2348285 C67.1844668,16.1706291 66.5849248,17.5894235 66.0742037,18.9639435 C64.7378508,22.5682851 63.5024308,26.5912213 60.2685373,28.6781572 C57.4767304,30.4813342 53.8613101,30.3565608 50.5951181,29.7326938 C47.3269073,29.1088267 44.0889765,28.0502652 40.766262,28.2012008 C37.4031743,28.3521364 34.1167956,29.8011179 31.7408327,32.1778501 C31.6116384,38.2816849 34.7768975,43.8240392 39.4258717,47.7986761 C40.4533697,48.6761149 41.7412748,49.495192 43.0675345,49.2295454"/>
        <path fill="#093153" d="M31.0914297,32.3716514 C26.8986727,38.0307293 22.685729,43.7220068 19.4841341,49.9908644 C16.2845578,56.259722 13.4180605,66.4066178 13.5997399,73.4382032 C13.6259825,74.5329892 13.7228782,75.6639998 14.2517671,76.6219376 C14.7806561,77.5798754 15.8525646,78.3184535 16.936585,78.1413558 C17.7178065,78.0145699 18.3557031,77.4510771 18.8866107,76.865447 C22.7644568,72.588939 24.2501906,62.7398895 28.75584,59.1295105 C30.988478,57.3424333 33.9902256,56.4388323 35.6435082,54.108387 C36.4731776,52.9371269 36.8728723,51.512295 37.0747383,50.0914881 C37.9690047,43.786406 35.2317016,37.4933986 31.6425239,32.2247408"/>
        <path fill="#093153" d="M55.9641483,44.6107155 C51.9227908,37.3819076 44.2559197,32.0669628 35.9652827,31.6443432 C34.9559526,31.5920188 33.9223986,31.6141561 32.9635351,31.932127 C31.7906936,32.3205346 30.7934755,33.1375991 30.0384966,34.1136492 C28.2499637,36.4239698 27.8018212,39.5211678 28.0178178,42.4312057 C28.2338145,45.3412437 29.0432972,48.1727951 29.5096077,51.0526459 C30.5815162,57.6616117 29.8204813,64.5563488 27.3294547,70.7728821 C36.0419918,67.8326571 44.78279,71.7529571 53.9757681,72.117215 C54.8821465,72.1534395 55.8450474,72.1433772 56.6242502,71.6764831 C57.6436735,71.0646909 58.0857601,69.839094 58.4006711,68.6960086 C60.5989919,60.7145353 60.0055059,51.8395234 55.9641483,44.6107155"/>
        <path fill="#8CC0E7" d="M44.818924,16.4551929 C47.1000099,12.1907598 48.733106,6.49746981 45.5113244,2.88507834 C43.6299332,0.771980261 40.4666928,0.0817015563 37.7112218,0.733743249 C34.9537321,1.38377247 32.5878624,3.20707424 30.7932736,5.39262139 C28.5485236,8.12556157 27.0547151,11.8144271 28.0660638,15.2014214 C28.4879638,16.6141784 29.3277264,17.9263117 29.4125101,19.3994429 C29.6305254,23.1808823 25.2520516,25.2396435 21.9555797,27.125332 C15.7663678,30.6692993 11.1880467,38.2201031 13.5942895,44.9196303 C14.7106085,48.0228657 17.14915,50.5102841 19.916733,52.3134611 C25.4902535,55.9439648 32.9512213,57.0005139 38.9224179,54.0643138 C44.8915958,51.1281137 48.6765835,43.8369191 46.7003152,37.4996373 C45.4729699,33.5632375 42.2834869,29.4960268 44.1366169,25.8091738 C44.7563456,24.5775395 45.8706459,23.6518013 46.5287291,22.4402917 C47.812597,20.0756343 46.9062186,16.7771888 44.5928341,15.394619"/>
        <path fill="#286CB5" d="M16.1099437 139.536314C16.6206647 145.078668 15.6173907 149.701322 13.8672124 149.860307 12.1190527 150.021305 10.2861093 145.658261 9.77538832 140.115906 9.26466731 134.575564 10.2679414 129.952911 12.0181197 129.791913 13.7662794 129.630915 15.5992227 133.993959 16.1099437 139.536314M55.54891 140.976641C59.830488 139.956317 63.6336437 140.509747 64.041413 142.212301 64.451201 143.914854 61.3101659 146.124551 57.0285878 147.144875 52.7470097 148.1652 48.9438541 147.613782 48.5360847 145.909216 48.1262967 144.206663 51.2673319 141.996966 55.54891 140.976641"/>
        <path stroke="#BBBAB9" stroke-width="1.512" d="M12.8017636,85.0205969 C12.9228832,84.8394742 13.1873276,82.5190912 15.7712126,81.164696" stroke-linecap="round" stroke-linejoin="round"/>
      </g>
    </g>
  </g>
</svg>
