<svg xmlns="http://www.w3.org/2000/svg" width="24" height="24" viewBox="0 0 24 24">
  <g fill="none" fill-rule="evenodd">
    <rect width="24" height="24" fill="#FFFFFF"/>
    <g fill-rule="nonzero" transform="translate(2 2)">
      <path fill="#8692CE" d="M17,-4.4408921e-16 L3,-4.4408921e-16 C1.34314575,-4.4408921e-16 0,1.34314575 -4.4408921e-16,3 L-4.4408921e-16,17 C0,18.6568542 1.34314575,20 3,20 L17,20 C18.6568542,20 20,18.6568542 20,17 L20,3 C20,1.34314575 18.6568542,-4.4408921e-16 17,-4.4408921e-16 Z M18,17 C18,17.5522847 17.5522847,18 17,18 L3,18 C2.44771525,18 2,17.5522847 2,17 L2,3 C2,2.44771525 2.44771525,2 3,2 L17,2 C17.5522847,2 18,2.44771525 18,3 L18,17 Z"/>
      <path fill="#8692CE" d="M12.81,10.28 C13.4429778,9.60024213 13.7995647,8.7087749 13.81,7.78 C13.81,5.69236365 12.1176364,4 10.03,4 C7.94236365,4 6.25,5.69236365 6.25,7.78 C6.26043527,8.7087749 6.61702216,9.60024213 7.25,10.28 C5.45963993,11.1715188 4.23813369,12.9041784 4,14.89 C3.93924868,15.4422847 4.33771525,15.9392487 4.89,16 C5.44228475,16.0607513 5.93924868,15.6622847 6,15.11 C6.24693938,13.1051076 7.94995725,11.5989785 9.97,11.5989785 C11.9900427,11.5989785 13.6930606,13.1051076 13.94,15.11 C13.9977855,15.6427656 14.4652722,16.0352781 15,16 L15.11,16 C15.6556411,15.937218 16.0485241,15.4461142 15.99,14.9 C15.7695551,12.9250156 14.5760831,11.1911035 12.81,10.28 L12.81,10.28 Z"/>
      <path fill="#FFFFFF" d="M10,9.56 C9.2800572,9.56 8.63100461,9.12631692 8.35549443,8.46117651 C8.07998425,7.7960361 8.2322735,7.03042636 8.74134993,6.52134993 C9.25042636,6.0122735 10.0160361,5.85998425 10.6811765,6.13549443 C11.3463169,6.41100461 11.78,7.0600572 11.78,7.78 C11.78,8.76306685 10.9830669,9.56 10,9.56 L10,9.56 Z"/>
    </g>
  </g>
</svg>
