<svg xmlns="http://www.w3.org/2000/svg" width="16" height="16" viewBox="0 0 16 16">
  <path fill="#6563FF" d="M2.4,12.804652 L5.792,12.804652 C6.00464239,12.8058681 6.20902494,12.7223879 6.36,12.5726387 L11.896,7.02863866 L11.896,7.02863866 L14.168,4.80463866 C14.3194501,4.65442538 14.4046387,4.44994869 14.4046387,4.23663866 C14.4046387,4.02332863 14.3194501,3.81885194 14.168,3.66863866 L10.776,0.236638659 C10.6257867,0.0851885388 10.42131,-1.04805054e-13 10.208,-1.04805054e-13 C9.99468997,-1.04805054e-13 9.79021328,0.0851885388 9.64,0.236638659 L7.384,2.50063866 L7.384,2.50063866 L1.832,8.04463866 C1.68225079,8.19561372 1.59877059,8.39999627 1.59998661,8.61263866 L1.59998661,12.0046387 C1.59998661,12.4464665 1.9581722,12.804652 2.4,12.804652 Z M10.208,1.93263866 L12.472,4.19663866 L11.336,5.33263866 L9.072,3.06863866 L10.208,1.93263866 Z M3.2,8.94063866 L7.944,4.19663866 L10.208,6.46063866 L5.464,11.2046387 L3.2,11.2046387 L3.2,8.94063866 Z M15.2,14.4046387 L0.8,14.4046387 C0.3581722,14.4046387 0,14.7628109 0,15.2046387 C0,15.6464665 0.3581722,16.0046387 0.8,16.0046387 L15.2,16.0046387 C15.6418278,16.0046387 16,15.6464665 16,15.2046387 C16,14.7628109 15.6418278,14.4046387 15.2,14.4046387 Z"/>
</svg>
