<svg xmlns="http://www.w3.org/2000/svg" width="15" height="15" viewBox="0 0 15 15">
  <g fill="#284B5D" fill-rule="evenodd" transform="translate(.233 1.942)">
    <ellipse cx=".778" cy=".786" rx="1" ry="1"/>
    <ellipse cx=".778" cy="5.5" rx="1" ry="1"/>
    <ellipse cx=".778" cy="10.214" rx="1" ry="1"/>
    <path fill-rule="nonzero" d="M3.88888889 1.33571429L14 1.33571429C14.3037566 1.33571429 14.55 1.0894709 14.55.785714286 14.55.481957673 14.3037566.235714286 14 .235714286L3.88888889.235714286C3.58513228.235714286 3.33888889.481957673 3.33888889.785714286 3.33888889 1.0894709 3.58513228 1.33571429 3.88888889 1.33571429zM3.88888889 6.05L14 6.05C14.3037566 6.05 14.55 5.80375661 14.55 5.5 14.55 5.19624339 14.3037566 4.95 14 4.95L3.88888889 4.95C3.58513228 4.95 3.33888889 5.19624339 3.33888889 5.5 3.33888889 5.80375661 3.58513228 6.05 3.88888889 6.05zM3.88888889 10.7642857L14 10.7642857C14.3037566 10.7642857 14.55 10.5180423 14.55 10.2142857 14.55 9.9105291 14.3037566 9.66428571 14 9.66428571L3.88888889 9.66428571C3.58513228 9.66428571 3.33888889 9.9105291 3.33888889 10.2142857 3.33888889 10.5180423 3.58513228 10.7642857 3.88888889 10.7642857z"/>
  </g>
</svg>
