<svg xmlns="http://www.w3.org/2000/svg" width="22" height="16" viewBox="0 0 22 16">
  <g fill="#D8D8D8" fill-rule="evenodd">
    <g transform="rotate(-90 8 8)">
      <circle cx="2" cy="2" r="2"/>
      <circle cx="8" cy="2" r="2"/>
      <circle cx="14" cy="2" r="2"/>
    </g>
    <path fill-rule="nonzero" d="M21.9431841,11.1999906 C21.9008635,11.1027651 21.8429648,11.013526 21.7718998,10.9359908 L18.1671448,7.19999397 C17.8582412,6.92817277 17.3977716,6.94644837 17.1101938,7.24194336 C16.8226161,7.53743836 16.8048302,8.01058507 17.0693684,8.32799303 L19.3427776,10.6639911 L13.892824,10.6639911 C12.6028556,10.6639911 11.5571296,9.58947537 11.5571296,8.26399308 L11.5571296,0.799999331 C11.5571296,0.3581719 11.2085543,0 10.7785648,0 C10.3485753,0 10,0.3581719 10,0.799999331 L10,8.29599306 C10,10.5051302 11.7428767,12.2959897 13.892824,12.2959897 L19.3427776,12.2959897 L17.0693684,14.6319878 C16.9219762,14.7822009 16.8390703,14.9866774 16.8390703,15.1999873 C16.8390703,15.4132971 16.9219762,15.6177737 17.0693684,15.7679868 C17.2162983,15.9177359 17.4152046,16.001216 17.6221494,16 C17.826398,15.9991029 18.0221288,15.915782 18.1671448,15.7679868 L21.7718998,12.0639899 C21.8455756,11.9886232 21.9038156,11.898858 21.9431841,11.7999901 C22.0189386,11.6075642 22.0189386,11.3924166 21.9431841,11.1999906 Z"/>
  </g>
</svg>
