<svg xmlns="http://www.w3.org/2000/svg" width="24" height="24" viewBox="0 0 24 24" xmlns:xlink="http://www.w3.org/1999/xlink">
  <defs>
    <path id="a" d="M2.13162821e-14,10.0159637 C3.39926295,10.0159637 4.79036169,6.77351143 6.83789221,7.01260106 C9.10673179,7.2775329 9.43816609,11.321405 12.375749,8.9807607 C14.3341377,7.42033115 15.9856469,6.9729587 17.3302769,7.63864333"/>
  </defs>
  <g fill="none" fill-rule="evenodd">
    <rect width="24" height="24" fill="#FFFFFF"/>
    <g transform="translate(3 2)">
      <path fill="#8692CE" fill-rule="nonzero" d="M9.71,14.29 L9.56,14.17 C9.5042548,14.1321536 9.44372425,14.1018883 9.38,14.08 L9.2,14 C8.87055813,13.9311289 8.52856965,14.032598 8.29,14.27 C8.20166906,14.3672009 8.13064187,14.4788151 8.08,14.6 C7.92525554,14.9725626 8.00952986,15.40162 8.29369672,15.6879727 C8.57786359,15.9743255 9.00626261,16.0618851 9.38,15.91 C9.49949484,15.8520184 9.61051898,15.7780023 9.71,15.69 C9.99374456,15.4024393 10.0765967,14.9723971 9.92,14.6 C9.87014262,14.4843663 9.79889389,14.3791896 9.71,14.29 Z M16,6.36996881 C16,5.62108685 16,4.49776391 16,3 C16,1.34314575 14.6568542,0 13,0 L13,0 L5,0 C3.34314575,0 2,1.34314575 2,3 L2,17 C2,18.6568542 3.34314575,20 5,20 L13,20 C14.6568542,20 16,18.6568542 16,17 C16,14.2489476 16,12.312578 16,11.1908913 M14,11.5222822 C14,12.5887518 14,14.4146577 14,17 L14,17 C14,17.5522847 13.5522847,18 13,18 L5,18 C4.44771525,18 4,17.5522847 4,17 L4,3 C4,2.44771525 4.44771525,2 5,2 L13,2 C13.5522847,2 14,2.44771525 14,3 C14,4.56802603 14,5.74404555 14,6.52805856"/>
      <g stroke-linecap="round">
        <use stroke="#FFFFFF" stroke-width="5" xlink:href="#a"/>
        <use stroke="#8692CE" stroke-width="2" xlink:href="#a"/>
      </g>
    </g>
  </g>
</svg>
