<svg xmlns="http://www.w3.org/2000/svg" width="24" height="24" viewBox="0 0 24 24">
  <g fill="none" fill-rule="evenodd">
    <rect width="24" height="24" fill="#FFFFFF"/>
    <g fill="#8692CE" fill-rule="nonzero" transform="translate(5 2)">
      <path d="M11,0 L3,0 C1.34314575,0 0,1.34314575 0,3 L0,17 C0,18.6568542 1.34314575,20 3,20 L11,20 C12.6568542,20 14,18.6568542 14,17 L14,3 C14,1.34314575 12.6568542,0 11,0 Z M12,17 C12,17.5522847 11.5522847,18 11,18 L3,18 C2.44771525,18 2,17.5522847 2,17 L2,3 C2,2.44771525 2.44771525,2 3,2 L11,2 C11.5522847,2 12,2.44771525 12,3 L12,17 Z"/>
      <path d="M8.07830156,14.2012699 L7.85270762,14.0216998 C7.76886909,13.9650657 7.6778336,13.9197763 7.5819949,13.8870222 L7.31128218,13.7673088 C6.81581493,13.6642489 6.30147808,13.8160891 5.94267897,14.1713415 C5.80983281,14.3167947 5.70301078,14.4838162 5.62684746,14.6651594 C5.39411805,15.2226686 5.52086321,15.8647176 5.94823869,16.2932209 C6.37561417,16.7217243 7.01990897,16.85275 7.5819949,16.6254665 C7.76171031,16.5387018 7.92868613,16.4279428 8.07830156,16.2962546 C8.50504191,15.8659437 8.62964822,15.222421 8.39413307,14.6651594 C8.31914958,14.4921231 8.21199437,14.3347348 8.07830156,14.2012699 Z"/>
    </g>
  </g>
</svg>
