<svg xmlns="http://www.w3.org/2000/svg" width="16" height="16" viewBox="0 0 16 16">
  <g fill="#1A394A" fill-rule="evenodd">
    <path fill-rule="nonzero" d="M8,15.6 C12.1973641,15.6 15.6,12.1973641 15.6,8 C15.6,3.8026359 12.1973641,0.4 8,0.4 C3.8026359,0.4 0.4,3.8026359 0.4,8 C0.4,12.1973641 3.8026359,15.6 8,15.6 Z M8,14.4 C4.4653776,14.4 1.6,11.5346224 1.6,8 C1.6,4.4653776 4.4653776,1.6 8,1.6 C11.5346224,1.6 14.4,4.4653776 14.4,8 C14.4,11.5346224 11.5346224,14.4 8,14.4 Z" opacity=".5"/>
    <path d="M3.1491684,7.7493438 C3.33201443,7.49342276 4.81527384,7.66687789 8,7.66687789 C11.1847262,7.66687789 12.8787799,7.48964122 12.9732506,7.7493438 C13.1608164,8.26496741 11.9700712,12.8110095 8,12.8110095 C4.02992879,12.8110095 2.78077457,8.26496741 3.1491684,7.7493438 Z"/>
  </g>
</svg>
