<svg xmlns="http://www.w3.org/2000/svg" width="10" height="12" viewBox="0 0 10 12">
  <path fill="#1A394A" fill-opacity=".6" d="M8.93751137,6.69428251 L9.50626105,6.14832943 C9.75133726,5.91046242 9.75133726,5.5248038 9.50626105,5.28693679 C9.26118483,5.04906978 8.86383778,5.04906978 8.61876156,5.28693679 L8.05626188,5.83895602 C6.25474581,4.48631546 3.73903149,4.48631546 1.93751542,5.83895602 L1.36876575,5.28087065 C1.12196365,5.04300364 0.723217489,5.0443616 0.478141275,5.28390373 C0.233065062,5.52344585 0.234464168,5.91046242 0.481266267,6.14832943 L1.05626593,6.70034865 C0.370650961,7.54811992 -0.00136432373,8.59501511 0,9.67275987 C-0.00559003244,11.7980141 1.41421342,13.6795588 3.50351167,14.3156437 C5.59280993,14.9517287 7.86546845,14.1943507 9.11150485,12.4467441 C10.3575413,10.6991375 10.2870298,8.3679327 8.93751137,6.69428251 L8.93751137,6.69428251 Z M5.00001365,13.3124471 C2.92894704,13.3124471 1.25001582,11.6829036 1.25001582,9.67275987 C1.25001582,7.66261613 2.92894704,6.03307267 5.00001365,6.03307267 C7.07108027,6.03307267 8.75001582,7.66261613 8.75001582,9.67275987 C8.75001582,10.6380649 8.35492356,11.5638336 7.65166255,12.2464074 C6.94840154,12.9289811 5.99457491,13.3124471 5.00001365,13.3124471 Z M3.75001438,4.21322907 L6.25001293,4.21322907 C6.5951907,4.21322907 6.87501257,3.94163849 6.87501257,3.60661453 C6.87501257,3.27159058 6.5951907,3 6.25001293,3 L3.75001438,3 C3.40483661,3 3.12501474,3.27159058 3.12501474,3.60661453 C3.12501474,3.94163849 3.40483661,4.21322907 3.75001438,4.21322907 Z M5.62501329,7.85291627 C5.62501329,7.51789231 5.34519142,7.24630174 5.00001365,7.24630174 C4.65483588,7.24630174 4.37501401,7.51789231 4.37501401,7.85291627 L4.37501401,8.99941774 C4.08529241,9.25092986 3.98553,9.64988009 4.12422757,10.0023136 C4.26292515,10.3547471 4.61131133,10.5875552 5.00001365,10.5875552 C5.38871598,10.5875552 5.73710216,10.3547471 5.87579973,10.0023136 C6.01449731,9.64988009 5.9147349,9.25092986 5.62501329,8.99941774 L5.62501329,7.85291627 Z" transform="translate(0 -3)"/>
</svg>
