<svg xmlns="http://www.w3.org/2000/svg" width="24" height="24" viewBox="0 0 24 24">
  <g fill="#4A4A4A" transform="translate(5 5)">
    <path d="M10.7267413,4.18089933 C10.4690747,3.93972768 10.0511145,3.9396865 9.79335993,4.18085815 C9.53564936,4.42207098 9.53560536,4.81312565 9.79335993,5.05433848 L11.7467155,6.88241713 L3.6600066,6.88241713 C3.29550696,6.88241713 3,7.15895953 3,7.50006691 C3,7.8411743 3.29550696,8.1177167 3.6600066,8.1177167 L11.7466275,8.1177167 L9.79335993,9.94563064 C9.53560536,10.1868435 9.53560536,10.5778981 9.79335993,10.819111 C9.92223722,10.9397174 10.0911549,11 10.2600726,11 C10.4289903,11 10.597908,10.9397174 10.7267413,10.819111 L13.8066841,7.93682766 C14.0644386,7.69565601 14.0644386,7.30456017 13.8066841,7.06334734 L10.7267413,4.18089933 Z"/>
    <path d="M6.34375,15 C6.706175,15 7,14.6947273 7,14.3181818 C7,13.9416364 6.706175,13.6363636 6.34375,13.6363636 L1.3125,13.6363636 L1.3125,1.36363636 L6.34375,1.36363636 C6.706175,1.36363636 7,1.05836364 7,0.681818182 C7,0.305272727 6.706175,0 6.34375,0 L0.65625,0 C0.293825,0 0,0.305272727 0,0.681818182 L0,14.3181818 C0,14.6947273 0.293825,15 0.65625,15 L6.34375,15 Z"/>
  </g>
</svg>
