<svg xmlns="http://www.w3.org/2000/svg" width="34" height="34" viewBox="0 0 34 34">
  <g fill="none" fill-rule="evenodd" stroke="#2F3439" stroke-width="1.3" transform="translate(2 5)">
    <path d="M11.3027756,0 L8.74807544,3.83205029 C8.46987677,4.2493483 8.00152978,4.5 7.5,4.5 L1.5,4.5 C0.671572875,4.5 0,5.17157288 0,6 L0,22.5 C0,23.3284271 0.671572875,24 1.5,24 L28.5,24 C29.3284271,24 30,23.3284271 30,22.5 L30,6 C30,5.17157288 29.3284271,4.5 28.5,4.5 L22.5,4.5 C21.9984702,4.5 21.5301232,4.2493483 21.2519246,3.83205029 L18.6972244,2.66453526e-15 L11.3027756,0 Z"/>
    <path d="M15,19.5 C18.3137085,19.5 21,16.8137085 21,13.5 C21,10.1862915 18.3137085,7.5 15,7.5 C11.6862915,7.5 9,10.1862915 9,13.5 C9,16.8137085 11.6862915,19.5 15,19.5 Z"/>
  </g>
</svg>
