<?xml version="1.0" encoding="UTF-8" standalone="no"?>
<svg width="24px" height="24px" viewBox="0 0 24 24" version="1.1" xmlns="http://www.w3.org/2000/svg" xmlns:xlink="http://www.w3.org/1999/xlink">
    <!-- Generator: Sketch 47.1 (45422) - http://www.bohemiancoding.com/sketch -->
    <title>cut-tool-disabled</title>
    <desc>Created with Sketch.</desc>
    <defs></defs>
    <g id="Symbols" stroke="none" stroke-width="1" fill="none" fill-rule="evenodd">
        <g id="cut-tool-disabled">
            <rect id="area" x="0" y="0" width="24" height="24"></rect>
            <g id="scissors" opacity="0.5" transform="translate(12.000000, 12.000000) rotate(-90.000000) translate(-12.000000, -12.000000) translate(4.000000, 4.000000)" fill-rule="nonzero" fill="#4D77FF">
                <path d="M2.66666667,5.98333333 C0.834922246,5.98333333 -0.65,4.49841109 -0.65,2.66666667 C-0.65,0.834922246 0.834922246,-0.65 2.66666667,-0.65 C4.49841109,-0.65 5.98333333,0.834922246 5.98333333,2.66666667 C5.98333333,4.49841109 4.49841109,5.98333333 2.66666667,5.98333333 Z M2.66666667,4.68333333 C3.78044091,4.68333333 4.68333333,3.78044091 4.68333333,2.66666667 C4.68333333,1.55289242 3.78044091,0.65 2.66666667,0.65 C1.55289242,0.65 0.65,1.55289242 0.65,2.66666667 C0.65,3.78044091 1.55289242,4.68333333 2.66666667,4.68333333 Z" id="Oval"></path>
                <path d="M2.66666667,16.65 C0.834922246,16.65 -0.65,15.1650778 -0.65,13.3333333 C-0.65,11.5015889 0.834922246,10.0166667 2.66666667,10.0166667 C4.49841109,10.0166667 5.98333333,11.5015889 5.98333333,13.3333333 C5.98333333,15.1650778 4.49841109,16.65 2.66666667,16.65 Z M2.66666667,15.35 C3.78044091,15.35 4.68333333,14.4471076 4.68333333,13.3333333 C4.68333333,12.2195591 3.78044091,11.3166667 2.66666667,11.3166667 C1.55289242,11.3166667 0.65,12.2195591 0.65,13.3333333 C0.65,14.4471076 1.55289242,15.35 2.66666667,15.35 Z" id="Oval"></path>
                <path d="M14.6514917,0.429269481 L4.0914917,10.9892695 C3.83765091,11.2431103 3.83765091,11.6546675 4.0914917,11.9085083 C4.34533249,12.1623491 4.75688973,12.1623491 5.01073052,11.9085083 L15.5707305,1.3485083 C15.8245713,1.09466751 15.8245713,0.683110271 15.5707305,0.429269481 C15.3168897,0.175428691 14.9053325,0.175428691 14.6514917,0.429269481 Z" id="Shape"></path>
                <path d="M9.73635228,10.6644796 L14.6519078,15.5711463 C14.9059782,15.8247572 15.3175353,15.8243848 15.5711463,15.5703144 C15.8247572,15.316244 15.8243848,14.9046869 15.5703144,14.6510759 L10.6547588,9.74440928 C10.4006884,9.49079831 9.98913136,9.49117076 9.73552039,9.74524117 C9.48190943,9.99931158 9.48228188,10.4108686 9.73635228,10.6644796 Z" id="Shape"></path>
                <path d="M4.0914917,5.01073052 L7.54038059,8.45961941 C7.79422138,8.7134602 8.20577862,8.7134602 8.45961941,8.45961941 C8.7134602,8.20577862 8.7134602,7.79422138 8.45961941,7.54038059 L5.01073052,4.0914917 C4.75688973,3.83765091 4.34533249,3.83765091 4.0914917,4.0914917 C3.83765091,4.34533249 3.83765091,4.75688973 4.0914917,5.01073052 Z" id="Shape"></path>
            </g>
        </g>
    </g>
</svg>