<?xml version="1.0" encoding="UTF-8" standalone="no"?>
<svg width="24px" height="24px" viewBox="0 0 24 24" version="1.1" xmlns="http://www.w3.org/2000/svg" xmlns:xlink="http://www.w3.org/1999/xlink">
    <!-- Generator: Sketch 47.1 (45422) - http://www.bohemiancoding.com/sketch -->
    <title>cut-tool-normal</title>
    <desc>Created with Sketch.</desc>
    <defs></defs>
    <g id="Symbols" stroke="none" stroke-width="1" fill="none" fill-rule="evenodd">
        <g id="cut-tool-normal">
            <rect id="area" x="0" y="0" width="24" height="24"></rect>
            <g id="scissors" transform="translate(12.000000, 12.500000) rotate(-90.000000) translate(-12.000000, -12.500000) translate(3.500000, 3.500000)" fill-rule="nonzero" fill="#4D77FF">
                <path d="M3.66666667,6.98333333 C1.83492225,6.98333333 0.35,5.49841109 0.35,3.66666667 C0.35,1.83492225 1.83492225,0.35 3.66666667,0.35 C5.49841109,0.35 6.98333333,1.83492225 6.98333333,3.66666667 C6.98333333,5.49841109 5.49841109,6.98333333 3.66666667,6.98333333 Z M3.66666667,5.68333333 C4.78044091,5.68333333 5.68333333,4.78044091 5.68333333,3.66666667 C5.68333333,2.55289242 4.78044091,1.65 3.66666667,1.65 C2.55289242,1.65 1.65,2.55289242 1.65,3.66666667 C1.65,4.78044091 2.55289242,5.68333333 3.66666667,5.68333333 Z" id="Oval"></path>
                <path d="M3.66666667,17.65 C1.83492225,17.65 0.35,16.1650778 0.35,14.3333333 C0.35,12.5015889 1.83492225,11.0166667 3.66666667,11.0166667 C5.49841109,11.0166667 6.98333333,12.5015889 6.98333333,14.3333333 C6.98333333,16.1650778 5.49841109,17.65 3.66666667,17.65 Z M3.66666667,16.35 C4.78044091,16.35 5.68333333,15.4471076 5.68333333,14.3333333 C5.68333333,13.2195591 4.78044091,12.3166667 3.66666667,12.3166667 C2.55289242,12.3166667 1.65,13.2195591 1.65,14.3333333 C1.65,15.4471076 2.55289242,16.35 3.66666667,16.35 Z" id="Oval"></path>
                <path d="M15.6514917,1.42926948 L5.0914917,11.9892695 C4.83765091,12.2431103 4.83765091,12.6546675 5.0914917,12.9085083 C5.34533249,13.1623491 5.75688973,13.1623491 6.01073052,12.9085083 L16.5707305,2.3485083 C16.8245713,2.09466751 16.8245713,1.68311027 16.5707305,1.42926948 C16.3168897,1.17542869 15.9053325,1.17542869 15.6514917,1.42926948 Z" id="Shape"></path>
                <path d="M10.7363523,11.6644796 L15.6519078,16.5711463 C15.9059782,16.8247572 16.3175353,16.8243848 16.5711463,16.5703144 C16.8247572,16.316244 16.8243848,15.9046869 16.5703144,15.6510759 L11.6547588,10.7444093 C11.4006884,10.4907983 10.9891314,10.4911708 10.7355204,10.7452412 C10.4819094,10.9993116 10.4822819,11.4108686 10.7363523,11.6644796 Z" id="Shape"></path>
                <path d="M5.0914917,6.01073052 L8.54038059,9.45961941 C8.79422138,9.7134602 9.20577862,9.7134602 9.45961941,9.45961941 C9.7134602,9.20577862 9.7134602,8.79422138 9.45961941,8.54038059 L6.01073052,5.0914917 C5.75688973,4.83765091 5.34533249,4.83765091 5.0914917,5.0914917 C4.83765091,5.34533249 4.83765091,5.75688973 5.0914917,6.01073052 Z" id="Shape"></path>
            </g>
        </g>
    </g>
</svg>