<?xml version="1.0" encoding="UTF-8" standalone="no"?>
<svg width="24px" height="24px" viewBox="0 0 24 24" version="1.1" xmlns="http://www.w3.org/2000/svg" xmlns:xlink="http://www.w3.org/1999/xlink">
    <!-- Generator: Sketch 47.1 (45422) - http://www.bohemiancoding.com/sketch -->
    <title>delete-normal</title>
    <desc>Created with Sketch.</desc>
    <defs></defs>
    <g id="Symbols" stroke="none" stroke-width="1" fill="none" fill-rule="evenodd">
        <g id="delete-normal">
            <rect id="area" x="0" y="0" width="24" height="24"></rect>
            <g id="trash-can" transform="translate(5.000000, 4.000000)" fill-rule="nonzero" fill="#4D77FF">
                <path d="M0,3.85 L14.4,3.85 C14.7589851,3.85 15.05,3.55898509 15.05,3.2 C15.05,2.84101491 14.7589851,2.55 14.4,2.55 L0,2.55 C-0.358985087,2.55 -0.65,2.84101491 -0.65,3.2 C-0.65,3.55898509 -0.358985087,3.85 0,3.85 Z" id="Shape"></path>
                <path d="M12.15,3.2 L12.15,14.4 C12.15,14.9246705 11.7246705,15.35 11.2,15.35 L3.2,15.35 C2.67532949,15.35 2.25,14.9246705 2.25,14.4 L2.25,3.2 C2.25,2.84101491 1.95898509,2.55 1.6,2.55 C1.24101491,2.55 0.95,2.84101491 0.95,3.2 L0.95,14.4 C0.95,15.6426407 1.95735931,16.65 3.2,16.65 L11.2,16.65 C12.4426407,16.65 13.45,15.6426407 13.45,14.4 L13.45,3.2 C13.45,2.84101491 13.1589851,2.55 12.8,2.55 C12.4410149,2.55 12.15,2.84101491 12.15,3.2 Z M4.65,3.2 L4.65,1.6 C4.65,1.07532949 5.07532949,0.65 5.6,0.65 L8.8,0.65 C9.32467051,0.65 9.75,1.07532949 9.75,1.6 L9.75,3.2 C9.75,3.55898509 10.0410149,3.85 10.4,3.85 C10.7589851,3.85 11.05,3.55898509 11.05,3.2 L11.05,1.6 C11.05,0.357359313 10.0426407,-0.65 8.8,-0.65 L5.6,-0.65 C4.35735931,-0.65 3.35,0.357359313 3.35,1.6 L3.35,3.2 C3.35,3.55898509 3.64101491,3.85 4,3.85 C4.35898509,3.85 4.65,3.55898509 4.65,3.2 Z" id="Shape"></path>
                <path d="M4.95,7.2 L4.95,12 C4.95,12.3589851 5.24101491,12.65 5.6,12.65 C5.95898509,12.65 6.25,12.3589851 6.25,12 L6.25,7.2 C6.25,6.84101491 5.95898509,6.55 5.6,6.55 C5.24101491,6.55 4.95,6.84101491 4.95,7.2 Z" id="Shape"></path>
                <path d="M8.15,7.2 L8.15,12 C8.15,12.3589851 8.44101491,12.65 8.8,12.65 C9.15898509,12.65 9.45,12.3589851 9.45,12 L9.45,7.2 C9.45,6.84101491 9.15898509,6.55 8.8,6.55 C8.44101491,6.55 8.15,6.84101491 8.15,7.2 Z" id="Shape"></path>
            </g>
        </g>
    </g>
</svg>