<?xml version="1.0" encoding="UTF-8" standalone="no"?>
<svg width="24px" height="24px" viewBox="0 0 24 24" version="1.1" xmlns="http://www.w3.org/2000/svg" xmlns:xlink="http://www.w3.org/1999/xlink">
    <!-- Generator: Sketch 47.1 (45422) - http://www.bohemiancoding.com/sketch -->
    <title>delete-active copy</title>
    <desc>Created with Sketch.</desc>
    <defs></defs>
    <g id="Symbols" stroke="none" stroke-width="1" fill="none" fill-rule="evenodd">
        <g id="delete-active-copy">
            <rect id="area" x="0" y="0" width="24" height="24"></rect>
            <g id="trash-can" transform="translate(4.000000, 3.000000)" fill-rule="nonzero" fill="#FFFFFF">
                <path d="M1,4.85 L15.4,4.85 C15.7589851,4.85 16.05,4.55898509 16.05,4.2 C16.05,3.84101491 15.7589851,3.55 15.4,3.55 L1,3.55 C0.641014913,3.55 0.35,3.84101491 0.35,4.2 C0.35,4.55898509 0.641014913,4.85 1,4.85 Z" id="Shape"></path>
                <path d="M13.15,4.2 L13.15,15.4 C13.15,15.9246705 12.7246705,16.35 12.2,16.35 L4.2,16.35 C3.67532949,16.35 3.25,15.9246705 3.25,15.4 L3.25,4.2 C3.25,3.84101491 2.95898509,3.55 2.6,3.55 C2.24101491,3.55 1.95,3.84101491 1.95,4.2 L1.95,15.4 C1.95,16.6426407 2.95735931,17.65 4.2,17.65 L12.2,17.65 C13.4426407,17.65 14.45,16.6426407 14.45,15.4 L14.45,4.2 C14.45,3.84101491 14.1589851,3.55 13.8,3.55 C13.4410149,3.55 13.15,3.84101491 13.15,4.2 Z M5.65,4.2 L5.65,2.6 C5.65,2.07532949 6.07532949,1.65 6.6,1.65 L9.8,1.65 C10.3246705,1.65 10.75,2.07532949 10.75,2.6 L10.75,4.2 C10.75,4.55898509 11.0410149,4.85 11.4,4.85 C11.7589851,4.85 12.05,4.55898509 12.05,4.2 L12.05,2.6 C12.05,1.35735931 11.0426407,0.35 9.8,0.35 L6.6,0.35 C5.35735931,0.35 4.35,1.35735931 4.35,2.6 L4.35,4.2 C4.35,4.55898509 4.64101491,4.85 5,4.85 C5.35898509,4.85 5.65,4.55898509 5.65,4.2 Z" id="Shape"></path>
                <path d="M5.95,8.2 L5.95,13 C5.95,13.3589851 6.24101491,13.65 6.6,13.65 C6.95898509,13.65 7.25,13.3589851 7.25,13 L7.25,8.2 C7.25,7.84101491 6.95898509,7.55 6.6,7.55 C6.24101491,7.55 5.95,7.84101491 5.95,8.2 Z" id="Shape"></path>
                <path d="M9.15,8.2 L9.15,13 C9.15,13.3589851 9.44101491,13.65 9.8,13.65 C10.1589851,13.65 10.45,13.3589851 10.45,13 L10.45,8.2 C10.45,7.84101491 10.1589851,7.55 9.8,7.55 C9.44101491,7.55 9.15,7.84101491 9.15,8.2 Z" id="Shape"></path>
            </g>
        </g>
    </g>
</svg>