<?xml version="1.0" encoding="UTF-8" standalone="no"?>
<svg width="24px" height="24px" viewBox="0 0 24 24" version="1.1" xmlns="http://www.w3.org/2000/svg" xmlns:xlink="http://www.w3.org/1999/xlink">
    <!-- Generator: Sketch 47.1 (45422) - http://www.bohemiancoding.com/sketch -->
    <title>edit-active copy</title>
    <desc>Created with Sketch.</desc>
    <defs></defs>
    <g id="Symbols" stroke="none" stroke-width="1" fill="none" fill-rule="evenodd">
        <g id="edit-active-copy">
            <rect id="area" x="0" y="0" width="24" height="24"></rect>
            <path d="M6.6,15.5313708 L6.6,18.4 L9.46862915,18.4 L19.0686292,8.8 L16.2,5.93137085 L6.6,15.5313708 Z M16.7656854,4.23431458 L20.7656854,8.23431458 C21.0781049,8.54673401 21.0781049,9.05326599 20.7656854,9.36568542 L10.3656854,19.7656854 C10.2156563,19.9157145 10.0121732,20 9.8,20 L5.8,20 C5.3581722,20 5,19.6418278 5,19.2 L5,15.2 C5,14.9878268 5.08428547,14.7843437 5.23431458,14.6343146 L15.6343146,4.23431458 C15.946734,3.92189514 16.453266,3.92189514 16.7656854,4.23431458 Z" id="Shape" fill="#FFFFFF" fill-rule="nonzero"></path>
        </g>
    </g>
</svg>