<?xml version="1.0" encoding="UTF-8" standalone="no"?>
<svg width="24px" height="24px" viewBox="0 0 24 24" version="1.1" xmlns="http://www.w3.org/2000/svg" xmlns:xlink="http://www.w3.org/1999/xlink">
    <!-- Generator: Sketch 47.1 (45422) - http://www.bohemiancoding.com/sketch -->
    <title>merge-tool-normal</title>
    <desc>Created with Sketch.</desc>
    <defs></defs>
    <g id="Symbols" stroke="none" stroke-width="1" fill="none" fill-rule="evenodd">
        <g id="merge-tool-normal">
            <rect id="area" x="0" y="0" width="24" height="24"></rect>
            <g id="merge-v2" transform="translate(3.000000, 3.000000)" fill="#4D77FF">
                <path d="M8.6,7.25 C7.85441559,7.25 7.25,7.85441559 7.25,8.6 L7.25,15 C7.25,15.7455844 7.85441559,16.35 8.6,16.35 L15,16.35 C15.7455844,16.35 16.35,15.7455844 16.35,15 L16.35,8.6 C16.35,7.85441559 15.7455844,7.25 15,7.25 L8.6,7.25 Z M8.6,5.95 L15,5.95 C16.4635546,5.95 17.65,7.13644541 17.65,8.6 L17.65,15 C17.65,16.4635546 16.4635546,17.65 15,17.65 L8.6,17.65 C7.13644541,17.65 5.95,16.4635546 5.95,15 L5.95,8.6 C5.95,7.13644541 7.13644541,5.95 8.6,5.95 Z" id="Rectangle-path" fill-rule="nonzero"></path>
                <path d="M3.6,2.25 C2.85441559,2.25 2.25,2.85441559 2.25,3.6 L2.25,10 C2.25,10.7455844 2.85441559,11.35 3.6,11.35 L10,11.35 C10.7455844,11.35 11.35,10.7455844 11.35,10 L11.35,3.6 C11.35,2.85441559 10.7455844,2.25 10,2.25 L3.6,2.25 Z M3.6,0.95 L10,0.95 C11.4635546,0.95 12.65,2.13644541 12.65,3.6 L12.65,10 C12.65,11.4635546 11.4635546,12.65 10,12.65 L3.6,12.65 C2.13644541,12.65 0.95,11.4635546 0.95,10 L0.95,3.6 C0.95,2.13644541 2.13644541,0.95 3.6,0.95 Z" id="Rectangle-path" fill-rule="nonzero"></path>
                <rect id="Rectangle-path" x="6.6" y="6.6" width="5.4" height="5.4" rx="1"></rect>
            </g>
        </g>
    </g>
</svg>