<?xml version="1.0" encoding="UTF-8" standalone="no"?>
<svg width="24px" height="24px" viewBox="0 0 24 24" version="1.1" xmlns="http://www.w3.org/2000/svg" xmlns:xlink="http://www.w3.org/1999/xlink">
    <!-- Generator: Sketch 47.1 (45422) - http://www.bohemiancoding.com/sketch -->
    <title>merge-tool-disabled</title>
    <desc>Created with Sketch.</desc>
    <defs></defs>
    <g id="Symbols" stroke="none" stroke-width="1" fill="none" fill-rule="evenodd">
        <g id="merge-tool-disabled">
            <rect id="area" x="0" y="0" width="24" height="24"></rect>
            <g id="merge-v2" opacity="0.5" transform="translate(4.000000, 4.000000)" fill="#4D77FF">
                <path d="M7.6,6.25 C6.85441559,6.25 6.25,6.85441559 6.25,7.6 L6.25,14 C6.25,14.7455844 6.85441559,15.35 7.6,15.35 L14,15.35 C14.7455844,15.35 15.35,14.7455844 15.35,14 L15.35,7.6 C15.35,6.85441559 14.7455844,6.25 14,6.25 L7.6,6.25 Z M7.6,4.95 L14,4.95 C15.4635546,4.95 16.65,6.13644541 16.65,7.6 L16.65,14 C16.65,15.4635546 15.4635546,16.65 14,16.65 L7.6,16.65 C6.13644541,16.65 4.95,15.4635546 4.95,14 L4.95,7.6 C4.95,6.13644541 6.13644541,4.95 7.6,4.95 Z" id="Rectangle-path" fill-rule="nonzero"></path>
                <path d="M2.6,1.25 C1.85441559,1.25 1.25,1.85441559 1.25,2.6 L1.25,9 C1.25,9.74558441 1.85441559,10.35 2.6,10.35 L9,10.35 C9.74558441,10.35 10.35,9.74558441 10.35,9 L10.35,2.6 C10.35,1.85441559 9.74558441,1.25 9,1.25 L2.6,1.25 Z M2.6,-0.05 L9,-0.05 C10.4635546,-0.05 11.65,1.13644541 11.65,2.6 L11.65,9 C11.65,10.4635546 10.4635546,11.65 9,11.65 L2.6,11.65 C1.13644541,11.65 -0.05,10.4635546 -0.05,9 L-0.05,2.6 C-0.05,1.13644541 1.13644541,-0.05 2.6,-0.05 Z" id="Rectangle-path" fill-rule="nonzero"></path>
                <rect id="Rectangle-path" x="5.6" y="5.6" width="5.4" height="5.4" rx="1"></rect>
            </g>
        </g>
    </g>
</svg>