<?xml version="1.0" encoding="UTF-8" standalone="no"?>
<svg width="24px" height="24px" viewBox="0 0 24 24" version="1.1" xmlns="http://www.w3.org/2000/svg" xmlns:xlink="http://www.w3.org/1999/xlink">
    <!-- Generator: Sketch 47.1 (45422) - http://www.bohemiancoding.com/sketch -->
    <title>move-tool-normal</title>
    <desc>Created with Sketch.</desc>
    <defs></defs>
    <g id="Symbols" stroke="none" stroke-width="1" fill="none" fill-rule="evenodd">
        <g id="move-tool-normal">
            <rect id="area" x="0" y="0" width="24" height="24"></rect>
            <g id="move" transform="translate(4.000000, 4.000000)" fill-rule="nonzero" fill="#4D77FF">
                <path d="M2.85961941,6.05961941 C3.1134602,5.80577862 3.1134602,5.39422138 2.85961941,5.14038059 C2.60577862,4.8865398 2.19422138,4.8865398 1.94038059,5.14038059 L-0.459619408,7.54038059 C-0.713460197,7.79422138 -0.713460197,8.20577862 -0.459619408,8.45961941 L1.94038059,10.8596194 C2.19422138,11.1134602 2.60577862,11.1134602 2.85961941,10.8596194 C3.1134602,10.6057786 3.1134602,10.1942214 2.85961941,9.94038059 L0.919238816,8 L2.85961941,6.05961941 Z" id="Shape"></path>
                <path d="M9.94038059,2.85961941 C10.1942214,3.1134602 10.6057786,3.1134602 10.8596194,2.85961941 C11.1134602,2.60577862 11.1134602,2.19422138 10.8596194,1.94038059 L8.45961941,-0.459619408 C8.20577862,-0.713460197 7.79422138,-0.713460197 7.54038059,-0.459619408 L5.14038059,1.94038059 C4.8865398,2.19422138 4.8865398,2.60577862 5.14038059,2.85961941 C5.39422138,3.1134602 5.80577862,3.1134602 6.05961941,2.85961941 L8,0.919238816 L9.94038059,2.85961941 Z" id="Shape"></path>
                <path d="M6.05961941,13.1403806 C5.80577862,12.8865398 5.39422138,12.8865398 5.14038059,13.1403806 C4.8865398,13.3942214 4.8865398,13.8057786 5.14038059,14.0596194 L7.54038059,16.4596194 C7.79422138,16.7134602 8.20577862,16.7134602 8.45961941,16.4596194 L10.8596194,14.0596194 C11.1134602,13.8057786 11.1134602,13.3942214 10.8596194,13.1403806 C10.6057786,12.8865398 10.1942214,12.8865398 9.94038059,13.1403806 L8,15.0807612 L6.05961941,13.1403806 Z" id="Shape"></path>
                <path d="M13.1403806,9.94038059 C12.8865398,10.1942214 12.8865398,10.6057786 13.1403806,10.8596194 C13.3942214,11.1134602 13.8057786,11.1134602 14.0596194,10.8596194 L16.4596194,8.45961941 C16.7134602,8.20577862 16.7134602,7.79422138 16.4596194,7.54038059 L14.0596194,5.14038059 C13.8057786,4.8865398 13.3942214,4.8865398 13.1403806,5.14038059 C12.8865398,5.39422138 12.8865398,5.80577862 13.1403806,6.05961941 L15.0807612,8 L13.1403806,9.94038059 Z" id="Shape"></path>
                <path d="M0,8.65 L16,8.65 C16.3589851,8.65 16.65,8.35898509 16.65,8 C16.65,7.64101491 16.3589851,7.35 16,7.35 L0,7.35 C-0.358985087,7.35 -0.65,7.64101491 -0.65,8 C-0.65,8.35898509 -0.358985087,8.65 0,8.65 Z" id="Shape"></path>
                <path d="M7.35,0 L7.35,16 C7.35,16.3589851 7.64101491,16.65 8,16.65 C8.35898509,16.65 8.65,16.3589851 8.65,16 L8.65,0 C8.65,-0.358985087 8.35898509,-0.65 8,-0.65 C7.64101491,-0.65 7.35,-0.358985087 7.35,0 Z" id="Shape"></path>
            </g>
        </g>
    </g>
</svg>