<?xml version="1.0" encoding="UTF-8" standalone="no"?>
<svg width="24px" height="24px" viewBox="0 0 24 24" version="1.1" xmlns="http://www.w3.org/2000/svg" xmlns:xlink="http://www.w3.org/1999/xlink">
    <!-- Generator: Sketch 47.1 (45422) - http://www.bohemiancoding.com/sketch -->
    <title>reset-tool-active</title>
    <desc>Created with Sketch.</desc>
    <defs></defs>
    <g id="Symbols" stroke="none" stroke-width="1" fill="none" fill-rule="evenodd">
        <g id="reset-tool-active">
            <rect id="area" x="0" y="0" width="24" height="24"></rect>
            <g id="rotate-ccw" transform="translate(4.000000, 5.000000)" fill-rule="nonzero" fill="#FFFFFF">
                <path d="M0.65,4.95 L0.65,0.8 C0.65,0.441014913 0.358985087,0.15 0,0.15 C-0.358985087,0.15 -0.65,0.441014913 -0.65,0.8 L-0.65,5.6 C-0.65,5.95898509 -0.358985087,6.25 0,6.25 L4.8,6.25 C5.15898509,6.25 5.45,5.95898509 5.45,5.6 C5.45,5.24101491 5.15898509,4.95 4.8,4.95 L0.65,4.95 Z" id="Shape"></path>
                <path d="M1.39493605,9.81599213 C2.55674164,13.1136175 5.7593958,15.2453988 9.24992097,15.0445023 C12.7404461,14.8436058 15.6773741,12.358462 16.4531728,8.94931817 C17.2289716,5.54017434 15.6566177,2.02887993 12.5967415,0.337347204 C9.5368653,-1.35418552 5.72711754,-0.818175193 3.25276939,1.65199213 L-0.445104781,5.12631051 C-0.706716263,5.37213509 -0.719514074,5.7834933 -0.473689491,6.04510478 C-0.227864909,6.30671626 0.183493298,6.31951407 0.445104781,6.07368949 L4.15710478,2.58568949 C6.2358141,0.510912851 9.41464822,0.0636685657 11.9677933,1.47507485 C14.5209385,2.88648114 15.8329025,5.8162873 15.18558,8.66085954 C14.5382574,11.5054318 12.0876997,13.5790231 9.17522333,13.7466501 C6.26274692,13.9142771 3.5904686,12.1355297 2.62106395,9.38400787 C2.50177479,9.04542201 2.13059374,8.8676469 1.79200787,8.98693605 C1.45342201,9.10622521 1.2756469,9.47740626 1.39493605,9.81599213 Z" id="Shape"></path>
            </g>
        </g>
    </g>
</svg>