<svg xmlns="http://www.w3.org/2000/svg" width="22" height="22" viewBox="0 0 22 22">
  <g fill="#128AFF">
    <path d="M2,12.44 L20,12.44 C20.79529,12.44 21.44,11.79529 21.44,11 C21.44,10.20471 20.79529,9.56 20,9.56 L2,9.56 C1.20470996,9.56 0.56,10.20471 0.56,11 C0.56,11.79529 1.20470996,12.44 2,12.44 Z"/>
    <path d="M2,12.44 L20,12.44 C20.79529,12.44 21.44,11.79529 21.44,11 C21.44,10.20471 20.79529,9.56 20,9.56 L2,9.56 C1.20470996,9.56 0.56,10.20471 0.56,11 C0.56,11.79529 1.20470996,12.44 2,12.44 Z" transform="rotate(90 11 11)"/>
  </g>
</svg>
