<svg xmlns="http://www.w3.org/2000/svg" width="27" height="21" viewBox="0 0 27 21">
  <g fill="#128AFF" transform="translate(2 2)">
    <path d="M0,9.94 L23,9.94 C23.79529,9.94 24.44,9.29529004 24.44,8.5 C24.44,7.70470996 23.79529,7.06 23,7.06 L0,7.06 C-0.79529004,7.06 -1.44,7.70470996 -1.44,8.5 C-1.44,9.29529004 -0.79529004,9.94 0,9.94 Z"/>
    <path d="M20.9485038,8.5 L13.3642255,15.9743612 C12.7977809,16.5325965 12.7911259,17.4443298 13.3493612,18.0107745 C13.9075965,18.5772191 14.8193298,18.5838741 15.3857745,18.0256388 L24.0107745,9.52563881 C24.5830752,8.96163232 24.5830752,8.03836768 24.0107745,7.47436119 L15.3857745,-1.02563881 C14.8193298,-1.58387413 13.9075965,-1.57721915 13.3493612,-1.01077448 C12.7911259,-0.444329804 12.7977809,0.467403478 13.3642255,1.02563881 L20.9485038,8.5 Z"/>
  </g>
</svg>
