<svg xmlns="http://www.w3.org/2000/svg" width="18" height="18" viewBox="0 0 18 18">
  <g fill="none" fill-rule="evenodd">
    <circle cx="9" cy="9" r="9" fill="#3B98FF"/>
    <g fill="#FFFFFF" fill-rule="nonzero" transform="translate(5.601 5.53)">
      <path d="M4.3,7 L4.3,0 C4.3,-0.4418278 3.9418278,-0.8 3.5,-0.8 C3.0581722,-0.8 2.7,-0.4418278 2.7,0 L2.7,7 C2.7,7.4418278 3.0581722,7.8 3.5,7.8 C3.9418278,7.8 4.3,7.4418278 4.3,7 Z"/>
      <path d="M6.43431458,4.06568542 C6.74673401,4.37810486 7.25326599,4.37810486 7.56568542,4.06568542 C7.87810486,3.75326599 7.87810486,3.24673401 7.56568542,2.93431458 L4.06568542,-0.565685425 C3.75326599,-0.878104858 3.24673401,-0.878104858 2.93431458,-0.565685425 L-0.565685425,2.93431458 C-0.878104858,3.24673401 -0.878104858,3.75326599 -0.565685425,4.06568542 C-0.253265992,4.37810486 0.253265992,4.37810486 0.565685425,4.06568542 L3.5,1.13137085 L6.43431458,4.06568542 Z"/>
    </g>
  </g>
</svg>
