<svg xmlns="http://www.w3.org/2000/svg" width="14" height="14" viewBox="0 0 14 14">
  <path fill="#878787" fill-rule="evenodd" d="M13,4.75757576 C13,4.56818182 12.9225806,4.37878788 12.7832258,4.24242424 L11.7303226,3.21212121 C11.5909677,3.07575758 11.3974194,3 11.203871,3 C11.0103226,3 10.8167742,3.07575758 10.6774194,3.21212121 L5.59870968,8.18939394 L3.32258065,5.95454545 C3.18322581,5.81818182 2.98967742,5.74242424 2.79612903,5.74242424 C2.60258065,5.74242424 2.40903226,5.81818182 2.26967742,5.95454545 L1.21677419,6.98484848 C1.07741935,7.12121212 1,7.31060606 1,7.5 C1,7.68939394 1.07741935,7.87878788 1.21677419,8.01515152 L5.07225806,11.7878788 C5.2116129,11.9242424 5.40516129,12 5.59870968,12 C5.79225806,12 5.98580645,11.9242424 6.12516129,11.7878788 L12.7832258,5.27272727 C12.9225806,5.13636364 13,4.9469697 13,4.75757576 Z"/>
</svg>
