<svg xmlns="http://www.w3.org/2000/svg" width="14" height="14" viewBox="0 0 14 14">
  <path fill="#878787" fill-rule="evenodd" d="M7,3.25 L7,6.75 C7,6.890625 6.890625,7 6.75,7 L4.25,7 C4.109375,7 4,6.890625 4,6.75 L4,6.25 C4,6.109375 4.109375,6 4.25,6 L6,6 L6,3.25 C6,3.109375 6.109375,3 6.25,3 L6.75,3 C6.890625,3 7,3.109375 7,3.25 Z M10.25,6 C10.25,3.65625 8.34375,1.75 6,1.75 C3.65625,1.75 1.75,3.65625 1.75,6 C1.75,8.34375 3.65625,10.25 6,10.25 C8.34375,10.25 10.25,8.34375 10.25,6 Z M12,6 C12,9.3125 9.3125,12 6,12 C2.6875,12 0,9.3125 0,6 C0,2.6875 2.6875,0 6,0 C9.3125,0 12,2.6875 12,6 Z" transform="translate(1 1)"/>
</svg>
