<svg xmlns="http://www.w3.org/2000/svg" width="14" height="14" viewBox="0 0 14 14">
  <path fill="#878787" fill-rule="evenodd" d="M11.25,6.99610642 C11.25,6.14730694 11,5.36080467 10.5703125,4.69889682 L4.6796875,10.5626217 C5.3515625,10.9987021 6.1484375,11.2556781 7,11.2556781 C9.34375,11.2556781 11.25,9.34782609 11.25,6.99610642 Z M3.4453125,9.32446463 L9.34375,3.45295263 C8.671875,3.00129786 7.8671875,2.74432187 7,2.74432187 C4.65625,2.74432187 2.75,4.65217391 2.75,6.99610642 C2.75,7.86048021 3.0078125,8.65476963 3.4453125,9.32446463 Z M13,6.99610642 C13,10.3134328 10.3125,13 7,13 C3.6875,13 1,10.3134328 1,6.99610642 C1,3.68656716 3.6875,1 7,1 C10.3125,1 13,3.68656716 13,6.99610642 Z"/>
</svg>
