<svg xmlns="http://www.w3.org/2000/svg" width="14" height="14" viewBox="0 0 14 14">
  <path fill="#878787" fill-rule="evenodd" d="M8.9921875,7.5 L11.4609375,7.5 C11.4453125,7.4609375 11.4375,7.4140625 11.421875,7.375 L9.765625,3.5 L4.234375,3.5 L2.578125,7.375 C2.5625,7.4140625 2.5546875,7.4609375 2.5390625,7.5 L5.0078125,7.5 L5.75,9 L8.25,9 L8.9921875,7.5 Z M13,7.734375 L13,11.5 C13,11.7734375 12.7734375,12 12.5,12 L1.5,12 C1.2265625,12 1,11.7734375 1,11.5 L1,7.734375 C1,7.453125 1.0859375,7.0390625 1.1953125,6.7734375 L3.0546875,2.4609375 C3.1640625,2.203125 3.4765625,2 3.75,2 L10.25,2 C10.5234375,2 10.8359375,2.203125 10.9453125,2.4609375 L12.8046875,6.7734375 C12.9140625,7.0390625 13,7.453125 13,7.734375 Z"/>
</svg>
