<svg xmlns="http://www.w3.org/2000/svg" width="26" height="26" viewBox="0 0 26 26">
  <g fill="#FFFFFF" fill-rule="evenodd" transform="translate(1 1)">
    <path fill-rule="nonzero" d="M9.65459758,3.2817542 L2.72894021,3.2817542 C1.26988887,3.2817542 0.0870940535,4.46454901 0.0870940535,5.92360035 L0.0870940535,20.9280956 C0.0870940535,22.3871469 1.26988887,23.5699417 2.72894021,23.5699417 L19.987604,23.5699417 C21.4466554,23.5699417 22.6294502,22.3871469 22.6294502,20.9280956 L22.6294502,15.9918105 L21.3334502,15.9918105 L21.3334502,20.9280956 C21.3334502,21.6713859 20.7308943,22.2739417 19.987604,22.2739417 L2.72894021,22.2739417 C1.9856499,22.2739417 1.38309405,21.6713859 1.38309405,20.9280956 L1.38309405,5.92360035 C1.38309405,5.18031004 1.9856499,4.5777542 2.72894021,4.5777542 L9.65459758,4.5777542 L9.65459758,3.2817542 Z M22.6294502,11.0690196 L22.6294502,5.9536148 C22.6294502,4.49456345 21.4466554,3.31176864 19.987604,3.31176864 L18.8381291,3.31176864 L18.8381291,4.60776864 L19.987604,4.60776864 C20.7308943,4.60776864 21.3334502,5.21032449 21.3334502,5.9536148 L21.3334502,11.0690196 L22.6294502,11.0690196 Z"/>
    <path fill-rule="nonzero" d="M3.00975998 6.76322947L21.9814502 6.76322947C22.3393307 6.76322947 22.6294502 6.47310999 22.6294502 6.11522947 22.6294502 5.75734896 22.3393307 5.46722947 21.9814502 5.46722947L3.00975998 5.46722947C2.65187946 5.46722947 2.36175998 5.75734896 2.36175998 6.11522947 2.36175998 6.47310999 2.65187946 6.76322947 3.00975998 6.76322947zM23.9283079 10.3181538L23.9283079 16.5238532 18.4056189 16.5238532C16.6919623 16.5238532 15.3027692 15.1346601 15.3027692 13.4210035 15.3027692 11.707347 16.6919623 10.3181538 18.4056189 10.3181538L23.9283079 10.3181538zM18.4056189 11.6141538C17.4077234 11.6141538 16.5987692 12.423108 16.5987692 13.4210035 16.5987692 14.418899 17.4077234 15.2278532 18.4056189 15.2278532L22.6323079 15.2278532 22.6323079 11.6141538 18.4056189 11.6141538z"/>
    <circle cx="18.72" cy="13.462" r="1"/>
    <path fill-rule="nonzero" d="M5.92428174,6.59774076 L15.7570578,1.35633281 C15.9209989,1.26894323 16.1246651,1.32533336 16.220314,1.48459701 L19.1480543,6.35953582 L20.2590858,5.69228401 L17.3313455,0.817345202 C16.8804292,0.0665308699 15.9202887,-0.199308326 15.1474235,0.212671129 L5.31464745,5.45407908 L5.92428174,6.59774076 Z"/>
  </g>
</svg>
