<svg xmlns="http://www.w3.org/2000/svg" width="26" height="26" viewBox="0 0 26 26">
  <g fill="#FFFFFF" fill-rule="evenodd" transform="translate(0 1)">
    <path fill-rule="nonzero" d="M0.789941379,24.5037626 L24.7899414,24.5037626 C25.1489265,24.5037626 25.4399414,24.2127477 25.4399414,23.8537626 C25.4399414,23.4947775 25.1489265,23.2037626 24.7899414,23.2037626 L0.789941379,23.2037626 C0.430956291,23.2037626 0.139941379,23.4947775 0.139941379,23.8537626 C0.139941379,24.2127477 0.430956291,24.5037626 0.789941379,24.5037626 Z"/>
    <path fill-rule="nonzero" d="M2.5,2 C2.22385763,2 2,2.22385763 2,2.5 L2,23 L16,23 L16,2.5 C16,2.22385763 15.7761424,2 15.5,2 L2.5,2 Z M2.5,0.7 L15.5,0.7 C16.4941125,0.7 17.3,1.50588745 17.3,2.5 L17.3,24.3 L0.7,24.3 L0.7,2.5 C0.7,1.50588745 1.50588745,0.7 2.5,0.7 Z"/>
    <path fill-rule="nonzero" d="M22.2962515 23.7401076L23.5962515 23.7401076 23.5962515 9.5C23.5962515 8.86487254 23.081379 8.35 22.4462515 8.35L17 8.35 17 9.65 22.2962515 9.65 22.2962515 23.7401076zM4.5 6.15L7.5 6.15C7.85898509 6.15 8.15 5.85898509 8.15 5.5 8.15 5.14101491 7.85898509 4.85 7.5 4.85L4.5 4.85C4.14101491 4.85 3.85 5.14101491 3.85 5.5 3.85 5.85898509 4.14101491 6.15 4.5 6.15zM4.5 10.15L7.5 10.15C7.85898509 10.15 8.15 9.85898509 8.15 9.5 8.15 9.14101491 7.85898509 8.85 7.5 8.85L4.5 8.85C4.14101491 8.85 3.85 9.14101491 3.85 9.5 3.85 9.85898509 4.14101491 10.15 4.5 10.15zM4.5 14.15L7.5 14.15C7.85898509 14.15 8.15 13.8589851 8.15 13.5 8.15 13.1410149 7.85898509 12.85 7.5 12.85L4.5 12.85C4.14101491 12.85 3.85 13.1410149 3.85 13.5 3.85 13.8589851 4.14101491 14.15 4.5 14.15zM4.5 18.15L7.5 18.15C7.85898509 18.15 8.15 17.8589851 8.15 17.5 8.15 17.1410149 7.85898509 16.85 7.5 16.85L4.5 16.85C4.14101491 16.85 3.85 17.1410149 3.85 17.5 3.85 17.8589851 4.14101491 18.15 4.5 18.15zM10.5 6.15L13.5 6.15C13.8589851 6.15 14.15 5.85898509 14.15 5.5 14.15 5.14101491 13.8589851 4.85 13.5 4.85L10.5 4.85C10.1410149 4.85 9.85 5.14101491 9.85 5.5 9.85 5.85898509 10.1410149 6.15 10.5 6.15zM10.5 10.15L13.5 10.15C13.8589851 10.15 14.15 9.85898509 14.15 9.5 14.15 9.14101491 13.8589851 8.85 13.5 8.85L10.5 8.85C10.1410149 8.85 9.85 9.14101491 9.85 9.5 9.85 9.85898509 10.1410149 10.15 10.5 10.15zM10.5 14.15L13.5 14.15C13.8589851 14.15 14.15 13.8589851 14.15 13.5 14.15 13.1410149 13.8589851 12.85 13.5 12.85L10.5 12.85C10.1410149 12.85 9.85 13.1410149 9.85 13.5 9.85 13.8589851 10.1410149 14.15 10.5 14.15zM10.5 18.15L13.5 18.15C13.8589851 18.15 14.15 17.8589851 14.15 17.5 14.15 17.1410149 13.8589851 16.85 13.5 16.85L10.5 16.85C10.1410149 16.85 9.85 17.1410149 9.85 17.5 9.85 17.8589851 10.1410149 18.15 10.5 18.15z"/>
  </g>
</svg>
