<svg xmlns="http://www.w3.org/2000/svg" width="28" height="28" viewBox="0 0 28 28">
  <g fill="none" fill-rule="evenodd" transform="translate(1 1)">
    <path fill="#FFFFFF" fill-rule="nonzero" d="M25.2613636,23.1111111 L23.5255682,23.1111111 L23.5255682,9.04678363 C23.5255682,8.66666667 23.2670455,8.3625731 22.8977273,8.28654971 L17.2102273,8.28654971 L17.2102273,1.21637427 C17.2102273,0.798245614 16.8778409,0.456140351 16.4715909,0.456140351 L14.8096591,0.456140351 L3.28693182,0.456140351 L1.625,0.456140351 C1.21875,0.456140351 0.886363636,0.798245614 0.886363636,1.21637427 L0.886363636,23.1111111 L0.738636364,23.1111111 C0.332386364,23.1111111 0,23.4532164 0,23.871345 C0,24.2894737 0.332386364,24.6315789 0.738636364,24.6315789 L25.2613636,24.6315789 C25.6676136,24.6315789 26,24.2894737 26,23.871345 C26,23.4532164 25.6676136,23.1111111 25.2613636,23.1111111 Z M2.36363636,1.97660819 L4.02556818,1.97660819 L14.0710227,1.97660819 L15.7329545,1.97660819 L15.7329545,23.1111111 L2.36363636,23.1111111 L2.36363636,1.97660819 Z M17.2102273,23.1111111 L17.2102273,9.69298246 L22.0482955,9.69298246 L22.0482955,23.1111111 L17.2102273,23.1111111 Z"/>
    <g fill="#FFFFFF" transform="translate(4.105 4.105)">
      <rect width="4.105" height="1.625" y="12.316" rx=".813"/>
      <rect width="4.105" height="1.625" y="8.211" rx=".813"/>
      <rect width="4.105" height="1.625" y="4.105" rx=".813"/>
      <rect width="4.095" height="1.625" rx=".813"/>
      <g transform="translate(5.474)">
        <rect width="4.105" height="1.625" y="12.316" rx=".813"/>
        <rect width="4.105" height="1.625" y="8.211" rx=".813"/>
        <rect width="4.105" height="1.625" y="4.105" rx=".813"/>
        <rect width="4.105" height="1.625" rx=".813"/>
      </g>
    </g>
  </g>
</svg>
