<svg xmlns="http://www.w3.org/2000/svg" width="221" height="190" viewBox="0 0 221 190">
  <g fill="#FFFFFF" fill-rule="evenodd" transform="translate(0 1)">
    <path fill-rule="nonzero" d="M12,151.2 C12,150.313911 11.2854423,149.6 10.4094203,149.6 L12,149.6 L12,151.2 Z M10.4094203,12 C11.2854423,12 12,11.286089 12,10.4 L12,12 L10.4094203,12 Z M116.916667,10.4 C116.916667,11.286089 117.631224,12 118.507246,12 L116.916667,12 L116.916667,10.4 Z M12,149.6 L12,12 L116.916667,12 L116.916667,46.3199324 L128.916667,46.3199324 L128.916667,10.4 C128.916667,4.6562386 124.25621,0 118.507246,0 L10.4094203,0 C4.66045621,0 0,4.6562386 0,10.4 L0,151.2 C0,156.943761 4.66045621,161.6 10.4094203,161.6 L45.8566104,161.6 L45.8566104,149.6 L12,149.6 Z M116.916667,10.4 C116.916667,11.286089 117.631224,12 118.507246,12 L116.916667,12 L116.916667,10.4 Z M10.4094203,12 C11.2854423,12 12,11.286089 12,10.4 L12,12 L10.4094203,12 Z M10.4094203,149.6 C11.2854423,149.6 12,150.313911 12,151.2 L12,149.6 L10.4094203,149.6 Z M116.916667,46.3199324 L128.916667,46.3199324 L128.916667,10.4 C128.916667,4.6562386 124.25621,0 118.507246,0 L10.4094203,0 C4.66045621,0 0,4.6562386 0,10.4 L0,151.2 C0,156.943761 4.66045621,161.6 10.4094203,161.6 L45.8566104,161.6 L45.8566104,149.6 L12,149.6 L12,12 L116.916667,12 L116.916667,46.3199324 Z" opacity=".5"/>
    <path fill-rule="nonzero" d="M87.6684783,54.8 L87.6684783,192.4 L192.585145,192.4 L192.585145,54.8 L87.6684783,54.8 Z M86.0684783,42.8 L194.185145,42.8 C199.928906,42.8 204.585145,47.4562386 204.585145,53.2 L204.585145,194 C204.585145,199.743761 199.928906,204.4 194.185145,204.4 L86.0684783,204.4 C80.3247169,204.4 75.6684783,199.743761 75.6684783,194 L75.6684783,53.2 C75.6684783,47.4562386 80.3247169,42.8 86.0684783,42.8 Z" transform="rotate(90 140.127 123.6)"/>
    <ellipse cx="196.978" cy="124" opacity=".5" rx="4.804" ry="4.8"/>
    <g transform="translate(154 3)">
      <path fill-rule="nonzero" d="M35.2289855,32 C35.2289855,12.5589279 19.4557832,-3.2 0,-3.2 L0,3.2 C15.9224573,3.2 28.8289855,16.0948481 28.8289855,32 L35.2289855,32 Z"/>
      <polygon points="32.029 40.8 24.822 31.2 39.236 31.2"/>
    </g>
  </g>
</svg>
