<svg xmlns="http://www.w3.org/2000/svg" width="24" height="24" viewBox="0 0 24 24">
  <g fill="none" fill-rule="evenodd">
    <rect width="24" height="24"/>
    <g stroke="#4D77FF" stroke-width="1.3" transform="translate(7 7)" stroke-linecap="round" stroke-linejoin="round">
      <polyline points="2.4 5.6 0 8 2.4 10.4"/>
      <polyline points="5.6 2.4 8 0 10.4 2.4"/>
      <polyline points="10.4 13.6 8 16 5.6 13.6"/>
      <polyline points="13.6 5.6 16 8 13.6 10.4"/>
      <path d="M0 8L16 8M8 0L8 16"/>
    </g>
    <path fill="#202123" d="M0.203052731,1.48008622e-29 L6.17000008,1.48008622e-29 L6.17000008,-2.22044605e-16 C6.72228483,-3.23497668e-16 7.17000008,0.44771525 7.17000008,1 L7.17000008,6.96694734 L7.17000008,6.96694734 C7.17000008,7.51923209 6.72228483,7.96694734 6.17000008,7.96694734 C5.90478359,7.96694734 5.65042967,7.8615905 5.4628933,7.67405413 L-0.50405405,1.70710678 L-0.50405405,1.70710678 C-0.894578342,1.31658249 -0.894578342,0.683417511 -0.50405405,0.292893219 C-0.316517671,0.10535684 -0.0621637584,-6.17414336e-16 0.203052731,-6.66133815e-16 Z" transform="matrix(-1 0 0 1 7.17 0)"/>
  </g>
</svg>
