<svg xmlns="http://www.w3.org/2000/svg" width="44" height="44" viewBox="0 0 44 44">
  <g fill="none" fill-rule="evenodd">
    <circle cx="22" cy="22" r="22" fill="#D6DBDF"/>
    <g fill="#FFFFFF" fill-rule="nonzero" transform="translate(12 12)">
      <path d="M4,1.7 C2.72974508,1.7 1.7,2.72974508 1.7,4 L1.7,16 C1.7,17.2702549 2.72974508,18.3 4,18.3 L16,18.3 C17.2702549,18.3 18.3,17.2702549 18.3,16 L18.3,4 C18.3,2.72974508 17.2702549,1.7 16,1.7 L4,1.7 Z M4,0.3 L16,0.3 C18.0434536,0.3 19.7,1.95654643 19.7,4 L19.7,16 C19.7,18.0434536 18.0434536,19.7 16,19.7 L4,19.7 C1.95654643,19.7 0.3,18.0434536 0.3,16 L0.3,4 C0.3,1.95654643 1.95654643,0.3 4,0.3 Z"/>
      <path d="M6.5 8.7C5.28497355 8.7 4.3 7.71502645 4.3 6.5 4.3 5.28497355 5.28497355 4.3 6.5 4.3 7.71502645 4.3 8.7 5.28497355 8.7 6.5 8.7 7.71502645 7.71502645 8.7 6.5 8.7zM6.5 7.3C6.9418278 7.3 7.3 6.9418278 7.3 6.5 7.3 6.0581722 6.9418278 5.7 6.5 5.7 6.0581722 5.7 5.7 6.0581722 5.7 6.5 5.7 6.9418278 6.0581722 7.3 6.5 7.3zM18.5050253 12.4949747C18.7783923 12.7683418 19.2216077 12.7683418 19.4949747 12.4949747 19.7683418 12.2216077 19.7683418 11.7783923 19.4949747 11.5050253L14.4949747 6.50502525C14.2216077 6.23165825 13.7783923 6.23165825 13.5050253 6.50502525L2.50502525 17.5050253C2.23165825 17.7783923 2.23165825 18.2216077 2.50502525 18.4949747 2.77839226 18.7683418 3.22160774 18.7683418 3.49497475 18.4949747L14 7.98994949 18.5050253 12.4949747z"/>
    </g>
  </g>
</svg>
