<svg xmlns="http://www.w3.org/2000/svg" width="15" height="14" viewBox="0 0 15 14">
  <g fill="none" fill-rule="evenodd" transform="translate(.33)">
    <circle cx="7" cy="7" r="7" fill="#7ED321"/>
    <path fill="#FFFFFF" d="M10.2725482,5.44285219 C10.2725482,5.3357092 10.229691,5.22856622 10.1525481,5.15142327 L9.56969024,4.56856543 C9.49254729,4.49142248 9.3854043,4.44856529 9.27826132,4.44856529 C9.17111834,4.44856529 9.06397535,4.49142248 8.9868324,4.56856543 L6.17540048,7.38428307 L4.91539898,6.11999585 C4.83825603,6.0428529 4.73111304,5.99999571 4.62397006,5.99999571 C4.51682707,5.99999571 4.40968409,6.0428529 4.33254114,6.11999585 L3.7496833,6.70285369 C3.67254035,6.77999664 3.62968316,6.88713962 3.62968316,6.99428261 C3.62968316,7.10142559 3.67254035,7.20856858 3.7496833,7.28571153 L5.88397156,9.41999979 C5.96111451,9.49714273 6.06825749,9.53999993 6.17540048,9.53999993 C6.28254346,9.53999993 6.38968645,9.49714273 6.4668294,9.41999979 L10.1525481,5.73428111 C10.229691,5.65713816 10.2725482,5.54999517 10.2725482,5.44285219 Z"/>
  </g>
</svg>
