<svg xmlns="http://www.w3.org/2000/svg" width="379" height="426" viewBox="0 0 379 426">
  <g fill="none" fill-rule="evenodd">
    <g opacity=".5" transform="matrix(-1 0 0 1 622 0)">
      <path fill="#95C580" d="M332.692007,425.254861 C451.985512,425.254861 690.998199,329.636493 601.684339,237.24426 C512.370479,144.852026 559.654287,-23.3420624 399.94009,2.92672009 C240.225892,29.1955025 328.489001,137.422886 82.6131976,237.24426 C-163.262606,337.065633 213.398501,425.254861 332.692007,425.254861 Z" opacity=".142"/>
      <g transform="translate(25 42)">
        <g transform="translate(477)">
          <path fill="#236CB6" d="M35.2935558,121.487475 C33.5582345,122.659411 30.8580603,125.843404 30.8651288,128.095497 C30.8757316,131.826629 34.0636335,129.825161 36.2478058,128.621456 C40.4217661,126.323474 43.5319143,122.888856 47.4337366,120.082565 C52.7033173,116.291424 50.9856672,124.717358 54.4386386,125.899883 C53.1274284,129.020338 53.449046,135.525992 53.2829358,139.144167 C53.0991543,143.157693 52.6609062,147.13592 52.6715089,151.149446 C52.6891802,158.226948 52.6715089,165.30445 52.6715089,172.385482 C52.6715089,174.552857 52.3392886,175.491818 51.7207932,177.002626 C50.9998043,178.767589 49.6355802,179.410036 52.52307,180.320757 C56.4673035,181.559761 59.7506304,177.916877 60.9805526,175.089406 C65.8154194,163.994848 71.4348917,153.239162 75.8633187,141.85868 C79.4152493,132.73382 86.2999865,123.065352 85.6567513,112.881515 C85.3952161,108.769151 81.9846558,102.969482 79.4611947,99.947865 C75.2448233,94.9036003 69.3143361,93.0045 63.3591092,90.8724245 C57.223635,88.6732804 51.5087376,86.5306152 44.8395902,87.3319084 C40.1672994,87.8931667 35.7742151,89.9158145 32.0491057,92.7397555 C26.2211121,97.1556933 27.9210908,103.908442 32.0102289,109.129203 C33.4239326,110.929466 40.693904,120.340249 35.6752558,121.575723 C35.9155854,121.187431 36.0852299,120.76737 36.1771206,120.31201" opacity=".16"/>
          <path fill="#276CB5" d="M57.9538129 175.443811C58.2400879 177.639425 53.8151952 180.029185 48.0720238 180.781059 42.3217839 181.532933 37.430369 180.360998 37.144094 178.165384 36.8542847 175.96977 41.2827117 173.580009 47.0294173 172.828135 52.7725887 172.076261 57.6675379 173.248196 57.9538129 175.443811M44.4292627 114.307605C45.7086646 116.129047 42.9024627 120.30495 38.1594867 123.63014 33.4165107 126.955331 28.5321643 128.176686 27.2527624 126.351714 25.9698262 124.530272 28.7795624 120.357899 33.5225384 117.032708 38.2655145 113.703988 43.1463266 112.486163 44.4292627 114.307605"/>
          <path fill="#256CB6" d="M58.981929,86.5295562 C48.8244676,112.509814 45.081687,140.893951 47.5379972,168.678001 C47.7076417,170.591221 47.9267658,172.56445 48.8880843,174.227045 C49.8494029,175.88964 51.7579029,177.156884 53.6416631,176.775652 C55.6738622,176.36265 56.8825789,174.322353 57.8368289,172.479731 C65.3789384,157.925845 72.9210478,143.371959 80.4666915,128.818073 C83.3612499,123.2302 86.2770138,117.585848 87.8709648,111.500255 C89.46845,105.418192 89.6522315,98.7642807 87.1499759,92.9928512 C84.5841036,87.0731648 79.5018387,82.6431073 76.0488673,77.1929011"/>
          <path fill="#276CB5" d="M56.2181382,81.4704658 C49.5065797,73.0586515 39.2713647,67.5449066 28.5484218,66.5565273 C23.5474449,66.0976368 17.7901364,66.9589389 14.9309206,71.0783628 C13.2062021,73.5669609 12.9022558,76.7721339 13.0400919,79.7972808 C13.3970521,87.7784441 16.4329809,95.5019228 20.8967504,102.134654 C25.3605199,108.767386 31.2097191,114.372909 37.504235,119.307746 C38.4019369,120.013731 39.861586,119.985492 40.8052332,119.343045 C41.7488805,118.704128 42.3567731,117.66633 42.7349388,116.589702 C44.0037379,113.003297 43.0141453,109.04625 41.8443055,105.428076 C41.2540842,103.596044 40.6143832,101.774602 39.9322712,99.9743394 C39.2784332,98.2446756 38.5185674,96.4444131 37.0447813,95.3254265 C41.7948258,101.421609 46.8594195,107.401304 53.8784585,110.634717 C55.4582724,104.372628 57.0380863,98.1105384 58.6179003,91.851979 C59.0349429,90.1964436 59.4519855,88.4244206 58.886504,86.8112443 C58.0877614,84.5415017 55.4759437,83.0059838 55.4087928,80.602104"/>
          <path fill="#F3EBE5" d="M58.7663391,108.134117 C57.0345521,109.013069 55.302765,109.89555 53.5674437,110.774502 C53.0655788,111.028657 52.549577,111.293401 52.1890825,111.724052 C51.8250538,112.158233 51.6554094,112.80068 51.9310816,113.291339 C52.4647548,113.647862 54.5146252,112.931287 55.4547382,112.066455 C53.4366761,113.510195 51.3656001,117.0966 51.800314,118.321484 C52.7156872,118.610938 54.7408178,116.372965 55.4865465,114.809208 C54.7478863,116.701248 54.0339659,118.476801 53.5886492,120.46062 C53.5462381,120.661825 53.5073613,120.887741 53.6275261,121.053647 C53.8749242,121.38899 54.3979946,121.103066 54.6842696,120.803023 C55.9636715,119.46871 57.0911002,117.993201 58.0382817,116.404734 C58.0312132,117.774346 57.8191576,118.932162 57.8120891,120.301773 C57.8085549,120.619466 57.8297604,120.983049 58.0842271,121.173665 C58.3492965,121.374871 58.7557364,121.265443 58.9854632,121.021878 C59.2116558,120.778313 59.3070808,120.44297 59.3954373,120.121747 C59.7559318,118.812144 60.112892,117.499011 60.4698521,116.189409 C60.6713049,117.198968 61.1130873,117.721397 61.6608975,118.589759 C61.830542,118.858033 62.0850087,119.147487 62.3960235,119.094538 C62.7777235,119.031 62.8766828,118.53328 62.8837513,118.144988 C62.9473679,115.359876 63.0074503,112.564175 62.5974763,109.810832 C62.4525716,108.854222 62.0850087,107.721116 61.1413614,107.49873 C60.5794142,107.368123 59.9997957,107.618748 59.4201771,107.618748 C58.8440929,107.618748 58.1690493,107.092789 58.4164475,106.57036"/>
          <path fill="#0F3153" d="M78.7179399,41.5561773 C87.5323827,55.7288314 85.1891688,74.1868159 79.5555594,89.8949879 C76.7246177,97.7843732 72.6496167,105.952623 65.2029322,109.821422 C62.44621,111.254572 58.3924145,111.653454 56.8232034,108.97424 C56.1799682,107.879962 56.1552284,106.53506 56.2789274,105.271347 C56.9751765,98.0597074 61.711084,91.9317554 64.0048183,85.0589889 C66.8746369,76.4530286 65.7966878,67.1093137 66.3268267,58.0550528 C66.5706906,53.8897398 67.2209943,49.5796998 69.546537,46.1133121 C71.8720796,42.6469245 76.2686982,40.2677542 80.2836168,41.4291"/>
          <path fill="#F3EBE5" d="M10.0384454,66.1760012 C6.10834906,68.2057088 2.89924158,71.5944381 1.0897008,75.6256139 C0.556027645,76.815199 0.135450785,78.1459812 0.481808199,79.3991051 C0.729206353,79.5191226 0.976604506,79.6391401 1.2204684,79.7591576 C3.28094159,79.2967372 2.87450177,75.7526912 4.949112,75.3855789 C4.58861755,76.6104633 4.3235481,77.8635871 4.15743791,79.1308307 C6.12955461,78.0330236 7.97090373,76.6351728 9.32099079,74.8278505 C11.2719019,72.219235 12.0989186,68.8022664 11.5511084,65.5935634"/>
          <path fill="#BBBAB9" d="M48.8810158,21.8655425 C46.6014185,16.1576517 47.3082704,9.12603849 51.404477,4.54066424 C55.5042178,-0.0411800885 63.0852041,-1.40726156 68.0967838,2.15796399 C71.397782,4.5088949 73.182583,8.41299338 75.9569765,11.3640118 C78.7525757,14.3326798 82.5943156,16.2953188 86.6410425,16.8177479 C89.9526435,17.244869 93.4162177,16.7506793 96.568777,17.8449564 C99.5835002,18.8898146 101.965591,21.3007543 103.609022,24.0329172 C107.715831,30.8633246 107.429556,40.0164234 103.107157,46.7126936 C98.7847576,53.4089638 90.7125093,57.4295498 82.7427545,57.0977368 C74.7765339,56.7659237 67.1602051,52.1981991 62.9049568,45.4630997 C60.1553031,41.1071707 60.971717,35.8969995 58.6815169,31.2869157 C57.0592919,28.0217339 54.5040224,25.2789812 51.5776557,23.1010167 C50.2947195,22.1444066 48.9234269,21.2795747 47.834875,20.1111691"/>
          <path fill="#0F3153" d="M57.4936524,29.7976398 C53.5494189,32.9251545 51.6055763,37.9552995 50.7078744,42.9042561 C49.8137068,47.8532128 49.788967,52.9327767 48.7887716,57.8640838 C48.0819198,61.3587108 46.8908744,64.75097 46.3890095,68.2808962 C45.0071141,77.9564242 49.3330476,88.2320396 57.2179801,94.0211188 C65.0993784,99.8066679 76.2110898,100.858586 85.0432039,96.6544438 C87.8847484,95.302482 90.5601827,93.3751422 92.1718049,90.6782786 C93.6809337,88.1543813 94.1545244,85.1680636 94.5998411,82.2629343 C95.8297634,74.2041126 97.03848,65.7993581 94.5538957,58.0335202 C92.7514235,52.3997579 89.1288077,47.5461092 85.3824928,42.9642649 C81.8411649,38.6365753 78.0347676,34.3618345 73.1680925,31.6014322 C68.2978831,28.8410298 62.1412034,27.7997016 57.0695412,30.171812"/>
          <path fill="#0F3153" d="M61.5347245,34.2651145 C59.0289346,32.9943411 55.9576633,33.3367439 53.3811882,34.4557306 C50.8011789,35.5747172 48.6064038,37.3890993 46.3904232,39.1152333 C37.7173508,45.878572 28.2420016,51.6147023 18.2294449,56.1647772 C13.6949901,58.2262542 8.56324559,60.5383559 6.90567796,65.226098 C6.47096407,66.4509825 6.33666221,67.8841325 7.01170574,68.9960593 C7.84225669,70.3692006 9.61292061,70.8351509 11.2139401,70.9163392 C16.8652208,71.2057932 22.0994588,68.2900741 27.3160256,66.0979898 C33.0839368,63.6729305 39.191137,62.0597542 45.4078991,61.3149397 C51.2924409,60.6089544 58.0746846,60.2842012 61.6973004,55.5964591 C63.1180727,53.7608974 63.8284588,51.4664454 64.2030903,49.1755232 C65.0937236,43.774736 64.2490357,38.0986145 61.8209995,33.188487 L60.4249671,34.5086795"/>
          <path fill="#F4EBE6" d="M68.8690195,19.207155 C68.8690195,27.0541811 64.3204277,33.4151083 58.7080239,33.4151083 C53.09562,33.4151083 48.5470283,27.0541811 48.5470283,19.207155 C48.5470283,11.3601288 53.09562,4.99920166 58.7080239,4.99920166 C64.3204277,4.99920166 68.8690195,11.3601288 68.8690195,19.207155"/>
          <path fill="#F4EBE6" d="M70.8549198,20.0741049 C69.8617929,21.6096228 68.1724169,22.2767789 67.0732623,21.5707936 C65.9776419,20.8648084 65.8928197,19.0468963 66.8824123,17.5149083 C67.8755392,15.9793904 69.5684494,15.3087044 70.6640698,16.0182196 C71.7596902,16.7242048 71.8445124,18.5421169 70.8549198,20.0741049"/>
          <path stroke="#276CB5" stroke-width="1.26" d="M58.1255779 96.1595481C63.8192697 90.656393 65.0350549 82.0433729 65.0562605 74.132808 65.0810003 66.2187133 64.2822577 58.0257544 67.1167337 50.6376187M74.9295674 101.544098C76.0782016 97.8835641 78.0291128 94.533664 79.6866804 91.0743363 85.214262 79.545597 87.5256676 66.4989895 86.2922111 53.7771351" opacity=".319"/>
        </g>
        <g transform="matrix(-1 0 0 1 572 202.193)">
          <path fill="#236CB6" d="M10.6428366,145.14024 C12.47578,151.918253 17.6516245,157.428408 23.6672316,161.079037 C29.6828387,164.73369 36.5341711,166.754214 43.341093,168.569466 C46.8697109,169.515329 50.4790751,170.420943 54.1328499,170.25592 C58.0934611,170.074797 61.8885421,168.641915 65.5140556,167.035961 C67.1491703,166.31147 68.8367701,165.494405 69.9228093,164.077623 C72.3209775,160.942188 70.8513929,156.46242 69.2647261,152.852041 C68.7479491,151.676756 68.2190601,150.489397 67.3994841,149.503284 C66.0671685,147.885255 64.0848442,146.943417 62.1186693,146.210876 C51.0685239,142.113478 38.8233317,143.196189 27.1514389,144.862518 C21.7979523,145.623234 16.2425997,146.484573 11.0627179,144.938992" opacity=".15"/>
          <path fill="#3184BC" d="M75.0542433,49.4833084 C78.5868984,45.7240063 83.3711229,43.156089 88.4621837,42.2826752 C90.3556869,41.9566543 92.4106829,41.8842052 94.0902081,42.8099434 C96.6256452,44.1985508 97.5663408,47.5432831 96.9365188,50.3567223 C96.3107342,53.1701614 94.4495296,55.5448812 92.4833546,57.6579793 C89.5441855,60.8256139 86.2456949,63.6591778 82.6726665,66.0942718 C80.0605203,67.8773241 77.0002316,69.5074283 73.8753458,68.9882099 C70.2982801,68.3884926 67.7991788,65.1886583 65.9177876,62.0974977 C64.0404337,59.0023121 62.3447592,55.3959581 63.2127831,51.8862028"/>
          <path fill="#093153" d="M117.408558,101.246966 C116.568796,96.0145331 114.340195,90.528528 109.463112,87.7553383 C106.955936,86.3305065 103.988506,85.7710386 101.069524,85.4409928 C94.5250274,84.6963773 87.798852,84.9861736 81.4804458,86.7128766 C75.8322349,88.2624818 70.6240918,90.918948 65.4845832,93.5794391 C46.1337074,103.605586 27.5499225,115.607983 8.69967438,126.414971 C5.2679522,132.983687 6.85461904,141.122133 11.2108876,147.207856 C15.5671561,153.293578 22.3175555,157.592224 29.3667165,160.876582 C33.0124167,162.57511 36.8801695,164.064341 40.9578629,164.261564 C44.2523162,164.422561 47.5386948,163.72222 50.6393567,162.687809 C60.2885521,159.471875 68.3874164,153.056106 74.7946436,145.654226 C80.4388172,139.137834 84.8839068,131.836577 89.1755782,124.47897 C94.7430427,131.027562 97.2502186,144.752637 97.5893535,150.753836 C97.8235181,154.883433 98.6107955,159.80997 102.676377,161.536673 C105.768964,162.848807 109.57212,161.536673 111.917803,159.254527 C114.263486,156.972381 115.474682,153.92147 116.629356,150.959108 C121.809237,137.668727 119.649271,115.221588 117.408558,101.246966"/>
          <path fill="#F2EBE5" d="M122.98006,51.3569221 C125.745625,50.5277826 127.768322,48.0725639 128.850324,45.3999979 C129.875803,42.8723302 130.186677,39.9703421 129.21772,37.4225496 C128.70498,36.0822417 127.865218,34.8948818 126.928559,33.8121706 C125.61643,32.3028148 124.090323,30.9745817 122.410798,29.8797957 C121.409543,29.223729 119.939958,28.7045107 119.132494,29.5859744 C118.474411,30.2983904 118.761061,31.4616005 119.310136,32.2585404 C119.863249,33.0514553 120.642452,33.699472 120.997736,34.5970356 C120.085302,33.4177256 118.757023,32.604686 117.392409,31.9928938 C117.129983,31.8721453 116.815072,31.7715216 116.568796,31.9204447 C116.451714,31.9888688 116.370967,32.1096173 116.314445,32.2343907 C115.938974,33.075605 116.552647,34.0053681 117.134021,34.721809 C117.513529,35.188703 117.897074,35.659622 118.276582,36.130541 C118.320993,36.1828654 118.381553,36.2432396 118.450187,36.2271398 C118.518821,36.2070151 118.49056,36.0701668 118.43,36.1063914 C117.779992,35.7280462 116.798923,35.4623996 116.052019,35.3537259 C115.846115,35.3215264 115.624063,35.3014016 115.434309,35.3980004 C115.204182,35.5106989 115.079025,35.7723206 115.01039,36.0178425 C114.715666,37.0643292 115.054801,38.2033896 115.660399,39.1049782 C116.270034,40.0025417 117.121909,40.7069077 117.961671,41.395174 C117.186506,41.2623507 116.407303,41.1335523 115.632138,41.000729 C115.212256,40.9323049 114.683367,40.9081552 114.473427,41.2784505 C114.360382,41.4796979 114.39268,41.7292447 114.437091,41.9586668 C114.756039,43.4961972 115.543316,44.8888295 116.249848,46.2935366 C116.859483,47.513096 117.424708,48.7769299 118.28062,49.8395164 C119.136531,50.9061278 120.339653,51.7714918 121.704267,51.8801654 C122.019178,51.9043151 122.366388,51.8761404 122.600552,51.6628182 C122.830679,51.4494959 122.842791,50.9987016 122.560179,50.8618534"/>
          <path fill="#F1EBE5" d="M112.216565,33.2985871 C109.947591,33.230163 107.642281,33.1657638 105.454053,33.7654812 C100.342806,35.1742132 96.9393449,39.8471787 93.9476907,44.2102231 C94.0688103,45.8282525 94.9812446,47.1846602 96.3781574,48.0178246 C97.7750702,48.850989 99.5272672,49.0280867 101.093747,48.5933923 C104.170185,47.7441281 106.556242,44.7334664 109.745725,44.769691 C110.468405,44.7777409 111.409101,44.8381151 111.691713,44.1739986 C111.986437,43.4937822 111.19916,42.8135659 110.464368,42.6767176 C109.733613,42.5438943 108.926149,42.652568 108.300364,42.2500731 C109.261246,42.0609005 110.00815,41.0989377 109.947591,40.1249002 C109.882994,39.1468376 109.023044,38.2854986 108.046013,38.2170745 C108.841365,36.7560181 111.271832,37.2430369 112.390169,36.0114026 C113.149186,35.1782382 113.015954,33.8942795 112.838312,32.7833937 C112.543588,32.8558428 112.256938,32.9282918 111.966251,33.0047659"/>
          <polygon fill="#236CB6" points="118.899 50.408 103.46 44.669 112.54 20.394 127.979 26.134"/>
          <polygon fill="#8CC0E6" points="118.315 47.344 105.917 42.735 113.123 23.46 125.526 28.069"/>
          <path fill="#F2EBE5" d="M121.944084 49.3685974C120.845933 49.5376452 119.856789 48.5837324 119.485356 47.5372457 119.113922 46.494784 119.170445 45.3557235 119.004915 44.2609375 118.835347 43.1661514 118.346832 42.0029412 117.329427 41.5561719 116.614821 41.2422259 115.791208 41.3508995 115.016042 41.2623507 114.23684 41.1697768 113.368816 40.7149576 113.308256 39.9381425 113.223472 38.9439802 114.438706 38.4006121 115.423812 38.2396142 116.784389 38.0101921 118.165152 37.9296931 119.537841 37.9940923 120.567358 38.0423917 121.63321 38.1832649 122.505271 38.726633 123.106832 39.1009532 123.587273 39.6443213 124.023304 40.1997642 125.000335 41.4354235 125.840098 42.7757314 126.526442 44.1884884 126.950361 45.0659272 127.321794 45.9997153 127.297571 46.9697279 127.269309 48.3623602 126.413397 49.6463188 125.282948 50.4674084 124.156535 51.2884979 122.779809 51.7030676 121.40712 51.9646893M86.6405448 24.1571236C88.4573389 35.193533 82.2762017 45.396778 72.8288724 46.9423583 63.3815431 48.4879386 54.2491247 40.7962616 52.4323307 29.7558273 50.6155366 18.7194179 56.7966738 8.52019783 66.2440031 6.97059257 75.6913324 5.42501227 84.8237507 13.1207142 86.6405448 24.1571236"/>
          <path fill="#8CC0E7" d="M43.6027113,17.8121944 C42.1250521,18.2468889 41.4750436,19.8045441 41.2085805,21.1931514 C40.1427279,26.6831814 42.0402684,32.5515566 46.0937379,36.7334784 C50.1472074,40.9154001 56.2475983,43.3625689 62.3802877,43.4068433 C65.1377774,43.4269681 68.0123493,42.9399493 70.2005769,41.4144937 C72.5260733,39.7964643 73.8059039,37.1802477 74.2540464,34.5479312 C74.6981516,31.9196397 74.4034272,29.2349989 74.1087029,26.5865826 C75.2472272,24.8759794 76.7289237,23.7047194 78.6708747,22.7628814 C82.6880083,20.8107812 85.558543,16.8180321 85.3728263,12.6884347 C85.1104004,6.85225908 79.1392039,2.36444126 72.9136561,0.899359926 C66.3328241,-0.654270279 59.0575731,0.380141541 53.3124665,3.68864939 C47.5673598,6.99715723 43.4331439,12.5314617 42.1694627,18.6010844"/>
          <path fill="#0F3153" d="M132.083006,153.421974 C133.286128,156.529235 127.246297,161.741543 118.594319,165.066151 C109.946379,168.386733 101.96056,168.559806 100.761476,165.448521 C99.5583546,162.341261 105.598186,157.128952 114.246125,153.808369 C122.898103,150.487787 130.883922,150.314714 132.083006,153.421974"/>
          <path fill="#388BCB" d="M128.742124,48.1921049 C126.012895,46.0105827 121.910978,46.3486784 118.862801,48.0592816 C115.818662,49.7739097 113.590061,52.5953988 111.442207,55.3484637 C108.119492,59.6108844 104.79274,63.8733051 101.470026,68.1397507 C101.465988,68.1437757 101.461951,68.1437757 101.457914,68.1478006 L101.316608,67.9908276 L101.328719,67.9827777 C100.230568,66.7591933 99.116268,65.527559 97.993893,64.3039746 L97.7637657,64.0463779 L97.7637657,64.0463779 C89.0996765,54.619948 79.6200487,45.6523622 67.2496996,42.7382994 C51.7181287,39.079621 36.3601626,49.753785 26.1497798,61.9775542 C13.4039599,77.2321099 4.79235588,95.8837222 1.46156671,115.453023 C0.819632792,119.204275 0.379564889,123.1125 1.4211935,126.775204 C3.84762295,135.291995 13.4927809,139.763713 22.3506615,140.367455 C35.6778555,141.277094 49.0656093,135.766939 58.7713271,126.610181 C68.4730076,117.457447 71.9652896,98.4677393 74.5451372,85.4027558 C84.4042731,86.5579161 96.3264797,97.4293025 106.185616,98.5844628 C109.350875,98.9547581 112.645328,99.3129785 115.649094,98.258442 C120.869349,96.4190404 124.325295,86.5377913 126.24706,81.3576823 C128.806721,74.4468454 130.583142,67.2502371 131.523837,59.9449551 C132.064838,55.7630334 132.040614,50.8284463 128.742124,48.1921049"/>
          <path fill="#F1EBE5" d="M106.212262 39.001537C104.900133 37.7175783 102.970294 36.7918401 101.173686 37.1701853 92.1825743 39.0498364 93.0828967 45.2925318 93.0828967 45.2925318 93.1797924 46.2263199 93.490666 47.083634 94.209309 47.6914013 95.545662 48.8143619 97.713703 48.3997922 98.9773842 47.1923076 100.241065 45.980798 100.778029 44.2098206 101.084865 42.4911675 101.157537 42.0685479 101.234246 41.6258035 101.508784 41.2957577 102.158793 40.5269925 103.382101 40.8771631 104.355095 41.1428097 105.328089 41.4084563 106.745188 41.2273336 106.825935 40.2251214 106.862271 39.7542024 106.54736 39.3315828 106.212262 39.001537M73.8462771 26.6634592C76.3130797 28.7242329 77.2134021 31.702695 75.8568625 33.3166994 74.5003229 34.9307038 71.399661 34.5684585 68.9328584 32.5117097 66.4660557 30.4509359 65.5697706 27.4724739 66.9263102 25.8584694 68.2828498 24.244465 71.3794744 24.6026854 73.8462771 26.6634592"/>
        </g>
      </g>
    </g>
    <g transform="matrix(-1 0 0 1 354 24)">
      <path stroke="#BBBAB9" stroke-width="3.024" d="M60.1917531,161.028529 C59.7597598,160.968154 58.5162652,157.631472 53.0456963,159.660046" stroke-linecap="round" stroke-linejoin="round"/>
      <path fill="#236CB6" d="M76.8586849,311.253718 C40.4460939,323.199766 8.63604793,325.944781 5.80992378,317.383715 C2.98379963,308.822649 30.2114871,292.195586 66.6200408,280.245513 C103.032632,268.299466 134.842678,265.554451 137.668802,274.115517 C140.494926,282.676583 113.271276,299.303646 76.8586849,311.253718 Z" opacity=".08" transform="rotate(18 71.74 295.75)"/>
      <polygon fill="#BBBAB9" points="28.937 220.82 20.967 216.204 20.858 178.675 28.832 183.292"/>
      <polygon fill="#BBBAB9" points="28.83 183.294 20.861 178.677 68.037 151.521 76.006 156.141"/>
      <polygon fill="#DCDCDC" points="76.006 156.14 76.115 193.668 28.935 220.821 28.83 183.292"/>
      <path fill="#286CB5" d="M123.013263,131.140467 C136.146666,148.379322 142.230907,170.198569 143.345208,191.820594 C144.459508,213.438593 140.943002,245.191414 136.356606,266.350569 C135.04044,272.428242 133.433587,278.856085 128.927937,283.15473 C124.422288,287.44935 116.024662,288.242265 112.475857,283.13058 C110.481421,280.260792 110.541981,276.505515 110.622727,273.015884 C111.042609,254.706393 109.932346,226.197681 107.413058,208.053212 C106.706527,202.965677 106.557146,198.288686 102.834737,194.742706 C102.19684,222.217006 89.5035053,249.204288 68.7234182,267.256183 C62.9379383,272.283344 54.4757151,276.759087 48.0119655,272.637539 C42.5252473,269.139859 41.8994627,261.098011 44.3460787,255.084738 C46.7926948,249.075489 51.4880982,244.29385 55.0369026,238.856144 C68.065335,218.908499 64.560941,193.048203 64.774919,169.248681 C64.9000759,155.527631 67.8432824,139.600909 80.0158028,133.201241 C82.6804341,134.010255 85.288543,131.909232 88.0379581,131.446363 C99.6210297,129.490238 111.474602,129.152142 123.150532,130.448176"/>
      <path fill="#F2EBE5" d="M114.868777 26.8781952C118.90206 37.7415318 115.700465 48.9349142 107.714646 51.8811767 99.7288262 54.8274391 89.9867725 48.4116709 85.9534896 37.5483343 81.9202067 26.6890227 85.1218017 15.4956403 93.107621 12.5453529 101.09344 9.59909039 110.835494 16.0148587 114.868777 26.8781952M158.595781 30.3155014C160.162261 28.230578 160.48121 25.3648145 159.726231 22.8693463 158.975289 20.3779031 157.247316 18.2487052 155.160022 16.6830001 153.524907 15.4634407 151.490097 14.5296526 149.479512 14.9079978 148.918324 15.0126464 148.361174 15.2259687 147.921106 15.592239 147.226687 16.1718317 146.87544 17.0653703 146.681649 17.950859 146.043752 20.8085726 146.730097 23.8111843 147.84036 26.5239998 148.300614 27.6469604 148.84969 28.7578463 149.669266 29.6594348 150.941022 31.0440172 152.850674 31.8208323 154.732066 31.7242335 156.173389 31.6517844 157.550115 31.0963415 158.846095 30.4563747"/>
      <polygon fill="#286CB5" points="155.54 29.926 140.671 28.002 143.719 4.565 158.589 6.485"/>
      <polygon fill="#8CC0E6" points="154.107 26.799 142.859 25.346 145.285 6.666 156.537 8.123"/>
      <path fill="#F2EBE5" d="M157.954655 24.1871145C156.315503 22.6978835 154.232245 21.715796 152.762661 20.0615421 152.209548 19.4336501 151.474756 18.6326853 150.69959 18.9506562 150.194925 19.1519037 149.972873 19.7757707 150.057656 20.307064 150.138403 20.8423821 150.449276 21.3092762 150.748038 21.7600705 151.813891 23.366025 152.831295 25.0363787 153.368259 26.8838302 153.852737 28.546134 154.147462 30.272837 155.431329 31.4320222 156.917063 32.156513 158.919574 31.524596 159.710889 30.0756145 160.776741 28.1355892 159.593807 25.6763456 157.954655 24.1871145M46.367565 151.697892C45.4591679 153.581568 44.5467335 155.465244 43.6383365 157.34892 42.8550964 158.96695 42.055707 160.822451 42.7016782 162.500855 43.1740447 163.732489 44.3610168 164.585778 45.624698 164.968148 46.8883793 165.354543 48.2368442 165.338444 49.5570479 165.286119 51.777574 165.19757 54.3331977 164.8152 55.4797967 162.915425 56.6263956 161.019674 55.7583718 158.56848 54.6763699 156.636505 53.3077184 154.185311 51.6120439 151.91524 49.6539436 149.902765 49.3874805 149.633094 49.1048681 149.359397 48.7415092 149.258774 47.5060893 148.916653 46.8116702 150.603106 45.8467506 151.440296"/>
      <path fill="#1B394B" d="M101.921091,97.4568785 C119.160448,101.719299 138.499212,96.1326704 150.784778,83.3413834 C163.066306,70.5500963 167.826306,51.0451948 162.80388,34.0599112 C162.371887,32.5988549 161.830886,31.093524 160.712548,30.0591122 C158.552582,28.0627376 154.902844,28.5980558 152.637908,30.469657 C150.368934,32.3412581 149.16985,35.178847 148.148407,37.927887 C145.475702,45.1365701 143.004862,53.1824426 136.537075,57.3563144 C130.953461,60.9626685 123.72262,60.7131217 117.190236,59.4653876 C110.653815,58.2176534 104.177953,56.1005304 97.532524,56.4024016 C90.8063485,56.7042727 84.2335912,59.6022358 79.4816653,64.3557002 C79.2232768,76.5633697 85.5537949,87.6480785 94.8517434,95.5973522 C96.9067394,97.3522298 99.4825497,98.990384 102.135069,98.4590907"/>
      <path fill="#1B394B" d="M78.1828594,64.7433028 C69.7973453,76.0614586 61.3714581,87.4440136 54.9682682,99.9817288 C48.5691157,112.519444 42.836121,132.813236 43.1994798,146.876406 C43.2519649,149.065978 43.4457563,151.328 44.5035342,153.243875 C45.5613121,155.159751 47.7051291,156.636907 49.8731701,156.282712 C51.435613,156.02914 52.7114062,154.902154 53.7732214,153.730894 C61.5289135,145.177878 64.5003812,125.479779 73.5116799,118.259021 C77.9769561,114.684867 83.9804512,112.877665 87.2870165,108.216774 C88.9463551,105.874254 89.7457445,103.02459 90.1494765,100.182976 C91.9380094,87.5728119 86.4634032,74.9867973 79.2850478,64.4494815"/>
      <path fill="#1B394B" d="M127.928297,89.2214309 C119.845582,74.7638151 104.511839,64.1339256 87.9305653,63.2886863 C85.9119052,63.1840377 83.8447973,63.2283121 81.9270702,63.864254 C79.5813871,64.6410691 77.586951,66.2751983 76.0769932,68.2272984 C72.4999275,72.8479395 71.6036424,79.0423356 72.0356357,84.8624115 C72.4676289,90.6824873 74.0865943,96.3455902 75.0192153,102.105292 C77.1630323,115.323223 75.6409626,129.112698 70.6589095,141.545764 C88.0839835,135.665314 105.56558,143.505914 123.951536,144.23443 C125.764293,144.306879 127.690095,144.286754 129.2485,143.352966 C131.287347,142.129382 132.17152,139.678188 132.801342,137.392017 C137.197984,121.429071 136.011012,103.679047 127.928297,89.2214309"/>
      <path fill="#8CC0E7" d="M105.637848,32.9103859 C110.20002,24.3815196 113.466212,12.9949396 107.022649,5.77015668 C103.259866,1.54396052 96.9333857,0.163403113 91.4224436,1.4674865 C85.9074642,2.76754493 81.1757249,6.41414847 77.5865472,10.7852428 C73.0970471,16.2511231 70.1094302,23.6288541 72.1321276,30.4028428 C72.9759275,33.2283568 74.6554528,35.8526234 74.8250202,38.7988859 C75.2610508,46.3617645 66.5041032,50.479287 59.9111593,54.250664 C47.5327356,61.3385987 38.3760933,76.4402063 43.188579,89.8392606 C45.4212171,96.0457315 50.2982999,101.020568 55.8334659,104.626922 C66.980507,111.88793 81.9024425,114.001028 93.8448357,108.128628 C105.783192,102.256227 113.353167,87.6738382 109.40063,74.9992746 C106.94594,67.1264749 100.566974,58.9920536 104.273234,51.6183475 C105.512691,49.1550789 107.741292,47.3036025 109.057458,44.8805834 C111.625194,40.1512686 109.812437,33.5543777 105.185668,30.7892379"/>
      <path fill="#286CB5" d="M48.2198875 279.072627C49.2413295 290.157336 47.2347813 299.402643 43.7344247 299.720614 40.2381054 300.04261 36.5722187 291.316521 35.5507766 280.231812 34.5293346 269.151128 36.5358828 259.905821 40.0362394 259.583825 43.5325587 259.261829 47.1984455 267.987918 48.2198875 279.072627M127.09782 281.953283C135.660976 279.912634 143.267287 281.019495 144.082826 284.424601 144.902402 287.829708 138.620332 292.249102 130.057176 294.289751 121.494019 296.3304 113.887708 295.227564 113.072169 291.818432 112.252593 288.413326 118.534664 283.993932 127.09782 281.953283"/>
      <path stroke="#BBBAB9" stroke-width="3.024" d="M41.6035271,170.041194 C41.8457663,169.678948 42.3746553,165.038182 47.5424251,162.329392" stroke-linecap="round" stroke-linejoin="round"/>
    </g>
  </g>
</svg>
