<?xml version="1.0" encoding="UTF-8" standalone="no"?>
<svg width="32px" height="25px" viewBox="0 0 32 25" version="1.1" xmlns="http://www.w3.org/2000/svg" xmlns:xlink="http://www.w3.org/1999/xlink">
    <!-- Generator: Sketch 47.1 (45422) - http://www.bohemiancoding.com/sketch -->
    <title>Logo_T</title>
    <desc>Created with Sketch.</desc>
    <defs></defs>
    <g id="6.-Agency-Structure" stroke="none" stroke-width="1" fill="none" fill-rule="evenodd">
        <g id="6.4.1-Grades" transform="translate(-13.000000, -22.000000)" fill="#FFFFFF">
            <g id="Group-10">
                <path d="M28.406936,41.7852254 L22.0219189,41.7852254 C21.6335648,41.7848529 21.2911051,42.036919 21.1798948,42.404994 L20.1383389,45.882804 C20.0554121,46.1453746 20.1043784,46.4313392 20.2700923,46.6522485 C20.4358062,46.8731578 20.6982958,47.0023875 20.9763724,46.9999666 L25.2623151,46.9999666 C26.8938301,46.9999073 28.3309108,45.9381453 28.7940277,44.3906222 L29.2409789,42.902388 C29.2646451,42.8215575 29.2767347,42.7378433 29.2768946,42.653691 C29.2779554,42.4244058 29.1868947,42.204095 29.0237453,42.0412256 C28.8605959,41.8783562 28.6387225,41.78627 28.406936,41.7852254 Z M30.4381696,35.1888344 L24.0531525,35.1888344 C23.6652319,35.1897553 23.3234665,35.4413104 23.2111283,35.808603 L22.1695724,39.286413 C22.1456401,39.365836 22.133541,39.4482862 22.1336567,39.5311624 C22.1325896,39.7618158 22.2247438,39.9833273 22.3896214,40.1464256 C22.5544989,40.3095239 22.7784269,40.4006837 23.0115966,40.399628 L29.3966137,40.399628 C29.7845342,40.3987072 30.1262996,40.147152 30.2386378,39.7798594 L31.2801937,36.3020494 C31.3041261,36.2226264 31.3162252,36.1401762 31.3161095,36.0573 C31.3171766,35.8266466 31.2250224,35.6051351 31.0601448,35.4420368 C30.8952672,35.2789385 30.6713392,35.1877788 30.4381696,35.1888344 Z M44.1220594,28.5884959 L26.0165452,28.5884959 C25.6270882,28.5886411 25.2842772,28.842573 25.1745211,29.2122121 L24.1329652,32.6860745 C24.1080501,32.7667375 24.0946189,32.8504413 24.0930588,32.9347714 C24.0952438,33.4135136 24.4870338,33.8010756 24.9709987,33.803237 L43.0805035,33.803237 C43.4693728,33.803977 43.8115093,33.5493379 43.918537,33.1795208 L44.9640835,29.7056584 C44.9880133,29.6248843 45.0001083,29.5411326 44.9999993,29.4569615 C44.9978143,28.9782193 44.6060243,28.5906572 44.1220594,28.5884959 L44.1220594,28.5884959 Z M34.1454702,26.6147104 L35.2069793,23.1566383 C35.2354533,23.0699192 35.2502591,22.9793801 35.2508763,22.8882035 C35.2707463,22.6641871 35.1964123,22.4419718 35.0453823,22.2738966 C34.8943524,22.1058215 34.6799771,22.0067439 34.4527491,22 L17.0016992,22 C15.4007769,22.0007824 13.9841012,23.0254873 13.497921,24.5343405 L13.4739772,24.6053968 L13.0310167,26.0896835 C13.0159421,26.1398136 13.0065726,26.1914518 13.0030822,26.2436387 C12.9989726,26.2737669 12.9989726,26.3043047 13.0030822,26.3344329 L13.0030822,26.3581183 C13.0030822,26.3818037 13.0030822,26.4015416 13.0030822,26.425227 L13.0030822,26.508126 C13.0061238,26.6990706 13.0871648,26.8806675 13.227745,27.0115504 C13.3683253,27.1424334 13.5564734,27.2114571 13.7493311,27.2028985 L33.303446,27.2028985 C33.6798312,27.2008984 34.0126429,26.9607426 34.1295076,26.6068153 L34.1454702,26.6147104 Z" id="Logo_T"></path>
            </g>
        </g>
    </g>
</svg>