<svg width="70" height="66" xmlns="http://www.w3.org/2000/svg">
 <g>
  <path id="svg_1" d="m66.47,23.21c-6.37613,-17.52676 -25.75324,-26.56613 -43.28,-20.19c-17.52676,6.37613 -26.56613,25.75324 -20.19,43.28c0.44114,1.20056 0.94859,2.3757 1.52,3.52c0.41194,0.94808 1.20853,1.67556 2.19,2l33.51,11.4l0,0l0.82,0.28c0.80813,1.92168 2.98179,2.87138 4.94088,2.15874c1.9591,-0.71264 3.01455,-2.83697 2.39912,-4.82874l5.5,-9.07l0,0l13.32,-21.91c0.55491,-0.8982 0.69005,-1.99389 0.37,-3c-0.30287,-1.2317 -0.67004,-2.4467 -1.1,-3.64zm-25.28,37.11l-3.39,-2.66l0,0l-12.59,-9.82c-0.71308,-0.8141 -1.26913,-1.75329 -1.64,-2.77c-1.22991,-3.79662 -0.04486,-7.96011 3,-10.54c-2.90868,-0.7944 -5.99494,-0.64027 -8.81,0.44c-6.16,2.24 -9.82,7.76 -8.16,12.32l0.06,0.16c4.71098,-1.68239 9.94853,-0.93417 14,2l0.1,0.09l12.82,10l-2.08,-0.71l0,0l-27,-9.19c-0.07321,-0.02188 -0.14367,-0.05208 -0.21,-0.09c-0.23059,-0.40673 -0.4279,-0.83145 -0.59,-1.27c-2.1,-5.68 2.49,-12.62 10.3,-15.44c7.59,-2.76 15.39,-0.56 17.68,4.9l7.71,21.19c-0.50238,0.36401 -0.91321,0.83988 -1.2,1.39zm24.06,-31.65l-15.88,26.21l0.33,-1.55l0,0l3,-14.32l0,0c1.17923,-4.89494 4.70734,-8.88748 9.42,-10.66c0.00443,-0.05658 0.00443,-0.11342 0,-0.17c-1.66,-4.56 -8,-6.43 -14.17,-4.19c-2.83674,0.98935 -5.28724,2.85173 -7,5.32c3.9725,0.05425 7.52266,2.49203 9,6.18c0.37617,1.02389 0.55597,2.10951 0.53,3.2l-4.21,19.79c-0.55711,-0.2549 -1.16854,-0.36825 -1.78,-0.33l-0.94,-2.58l0,0l-6.78,-18.63c-1.77,-5.65 2.81,-12.34 10.39,-15.1c7.76,-2.84 15.74,-0.46 17.84,5.27c0.15841,0.44229 0.27885,0.89726 0.36,1.36c-0.04,0.06 -0.07,0.13 -0.11,0.2z"/>
 </g>
</svg>