<svg width="200" height="134" xmlns="http://www.w3.org/2000/svg" class="icon icon-logo">

 <g>
  <title>background</title>
  <rect fill="none" id="canvas_background" height="136" width="202" y="-1" x="-1"/>
 </g>
 <g>
  <title>Layer 1</title>
  <path id="svg_1" d="m132.12181,24.21c-6.37613,-17.52676 -25.75324,-26.56613 -43.28,-20.19c-17.52676,6.37613 -26.56613,25.75324 -20.19,43.28c0.44114,1.20056 0.94859,2.3757 1.52,3.52c0.41194,0.94808 1.20853,1.67556 2.19,2l33.51,11.4l0,0l0.82,0.28c0.80813,1.92168 2.98179,2.87138 4.94088,2.15874c1.9591,-0.71264 3.01455,-2.83697 2.39912,-4.82874l5.5,-9.07l0,0l13.32,-21.91c0.55491,-0.8982 0.69005,-1.99389 0.37,-3c-0.30287,-1.2317 -0.67004,-2.4467 -1.1,-3.64zm-25.28,37.11l-3.39,-2.66l0,0l-12.59,-9.82c-0.71308,-0.8141 -1.26913,-1.75329 -1.64,-2.77c-1.22991,-3.79662 -0.04486,-7.96011 3,-10.54c-2.90868,-0.7944 -5.99494,-0.64027 -8.81,0.44c-6.16,2.24 -9.82,7.76 -8.16,12.32l0.06,0.16c4.71098,-1.68239 9.94853,-0.93417 14,2l0.1,0.09l12.82,10l-2.08,-0.71l0,0l-27,-9.19c-0.07321,-0.02188 -0.14367,-0.05208 -0.21,-0.09c-0.23059,-0.40673 -0.4279,-0.83145 -0.59,-1.27c-2.1,-5.68 2.49,-12.62 10.3,-15.44c7.59,-2.76 15.39,-0.56 17.68,4.9l7.71,21.19c-0.50238,0.36401 -0.91321,0.83988 -1.2,1.39zm24.06,-31.65l-15.88,26.21l0.33,-1.55l0,0l3,-14.32l0,0c1.17923,-4.89494 4.70734,-8.88748 9.42,-10.66c0.00443,-0.05658 0.00443,-0.11342 0,-0.17c-1.66,-4.56 -8,-6.43 -14.17,-4.19c-2.83674,0.98935 -5.28724,2.85173 -7,5.32c3.9725,0.05425 7.52266,2.49203 9,6.18c0.37617,1.02389 0.55597,2.10951 0.53,3.2l-4.21,19.79c-0.55711,-0.2549 -1.16854,-0.36825 -1.78,-0.33l-0.94,-2.58l0,0l-6.78,-18.63c-1.77,-5.65 2.81,-12.34 10.39,-15.1c7.76,-2.84 15.74,-0.46 17.84,5.27c0.15841,0.44229 0.27885,0.89726 0.36,1.36c-0.04,0.06 -0.07,0.13 -0.11,0.2z" class="icon-logo__icon"/>
  <path id="svg_2" d="m165.1446,94.92l0,13.19c-0.03133,2.16927 0.81209,4.2598 2.34,5.8c1.48566,1.545 3.53659,2.41813 5.68,2.41813c2.14341,0 4.19434,-0.87313 5.68,-2.41813c1.52619,-1.54949 2.36883,-3.64529 2.34,-5.82l0,0l0,-13.17l5.22,0l0,24.34c0.03965,3.80489 -1.39364,7.4777 -4,10.25c-2.28266,2.57884 -5.55607,4.06279 -9,4.08c-2.75957,-0.05137 -5.4355,-0.95615 -7.66,-2.59c-2.12042,-1.45309 -3.80697,-3.45414 -4.88,-5.79l0,0l4.91,-1.88c0.68831,1.33897 1.69009,2.49171 2.92,3.36c1.35582,1.01195 2.98909,1.5843 4.68,1.64c2.11599,-0.01405 4.11206,-0.98451 5.43,-2.64c1.40436,-1.65608 2.22023,-3.73093 2.32,-5.9l0,0l0.08,-1l-0.85,0.56c-5.22057,3.49002 -12.18961,2.74934 -16.56,-1.76c-2.53044,-2.50792 -3.93122,-5.93768 -3.88,-9.5l0,-13.17l5.23,0zm-40.69,-9.27l0,22.54c0.0556,7.79889 -6.20147,14.17663 -14,14.27l0,0l-0.5,0c-3.67411,-0.0506 -7.16493,-1.61333 -9.65,-4.32c-2.57367,-2.64399 -3.99411,-6.20049 -3.95,-9.89c-0.04522,-3.85223 1.48664,-7.55543 4.24,-10.25c2.63874,-2.7498 6.33238,-4.23236 10.14,-4.07c3.03589,0.0765 5.957,1.17588 8.29,3.12l0,0l0.05,-11.4l5.38,0zm-93.93,12.15c2.75043,-2.85139 6.61664,-4.3474 10.57,-4.09c3.62807,0.20385 7.03474,1.81036 9.5,4.48c2.45587,2.45143 3.84945,5.77015 3.88,9.24l0,0l0,2.82l-22.61,0c0.38484,1.78363 1.34807,3.39019 2.74,4.57c1.64691,1.47057 3.79283,2.2574 6,2.2c2.82903,0.11566 5.50212,-1.29727 7,-3.7l0,0l0.29,-0.46l5.92,0l-0.67,1.42c-1.01113,2.19599 -2.57986,4.08881 -4.55,5.49c-2.3586,1.69456 -5.18582,2.61367 -8.09,2.63l0,0l-0.25,0c-3.63992,-0.00425 -7.12366,-1.47925 -9.66,-4.09c-2.79782,-2.6732 -4.38634,-6.37053 -4.39963,-10.2401c-0.01312,-3.86958 1.55012,-7.57767 4.32963,-10.2699zm30.29,0.05c2.65497,-2.7791 6.3922,-4.25864 10.23,-4.05c3.69273,0.09119 7.19295,1.66647 9.71,4.37c2.60627,2.61901 3.99858,6.20857 3.84,9.9l0,0l0,13.7l-5.33,0l0,-2.58c-2.40965,2.07246 -5.49191,3.19586 -8.67,3.16l0,0l-0.47,0c-3.66352,-0.08352 -7.13437,-1.65822 -9.61,-4.36c-5.3822,-5.68229 -5.24906,-14.62054 0.3,-20.14zm71.62,0c2.65574,-2.77796 6.39242,-4.25729 10.23,-4.05c3.7207,0.06974 7.25373,1.64679 9.79,4.37c2.60626,2.61901 3.99858,6.20857 3.84,9.9l0,0l0,13.7l-5.38,0l0,-2.58c-2.40871,2.07407 -5.4916,3.19771 -8.67,3.16l0,0l-0.46,0c-3.66108,-0.08159 -7.12954,-1.65685 -9.6,-4.36c-2.59477,-2.63402 -4.03409,-6.19273 -4,-9.89c-0.04612,-3.85438 1.49,-7.55913 4.25,-10.25zm-107.96131,-3.85826l0.35131,0.00826l1,0l0,5.31l-1,0c-1.16455,-0.01544 -2.30105,0.35753 -3.23,1.06c-0.67708,0.51365 -1.26495,1.1353 -1.74,1.84c-0.51842,1.05545 -0.75933,2.2256 -0.7,3.4l0,0l0,16.17l-5.56,0l0,-27.36l5.16,0l0,1.74c0.51484,-0.45296 1.08224,-0.84242 1.69,-1.16c1.34319,-0.72199 2.85656,-1.06751 4.38,-1l-0.35131,-0.00826zm69.32131,-8.51174l0,36.3l-5.38,0l0,-36.3l5.38,0zm16.91824,13.71901l-0.29824,0.00099c-2.29119,-0.03773 -4.49315,0.88731 -6.07,2.55c-1.69466,1.63589 -2.64514,3.89463 -2.63,6.25c-0.06205,2.36187 0.80716,4.65343 2.42,6.38c1.48833,1.74266 3.64886,2.76837 5.94,2.82c2.41833,0.17357 4.77986,-0.7873 6.39,-2.6l0,0c1.73961,-1.74464 2.66819,-4.13864 2.56,-6.6l0,0l-0.0056,-0.31802c-0.07865,-2.2215 -0.98373,-4.3384 -2.5444,-5.93198c-1.56575,-1.67268 -3.76938,-2.59995 -6.06,-2.55l0.29824,-0.00099zm-39.91824,-0.10901c-2.33295,-0.04708 -4.57989,0.88068 -6.2,2.56c-1.70084,1.61673 -2.65956,3.86339 -2.65,6.21c-0.08709,2.34854 0.77423,4.63339 2.39,6.34c1.48961,1.74083 3.64031,2.77809 5.93,2.86c2.41678,0.15126 4.77021,-0.81001 6.39,-2.61l0,0l0.07,0c3.45057,-3.5729 3.45057,-9.2371 0,-12.81c-1.52263,-1.65669 -3.68015,-2.58446 -5.93,-2.55zm71.58,0c-2.33295,-0.04708 -4.57989,0.88068 -6.2,2.56l-0.2157,0.21526c-1.55066,1.60379 -2.41342,3.75587 -2.3943,5.99474c-0.08783,2.35053 0.77765,4.63686 2.4,6.34c1.48498,1.7413 3.63292,2.77899 5.92,2.86c2.41678,0.15126 4.77021,-0.81001 6.39,-2.61c1.748,-1.75011 2.6898,-4.1481 2.6,-6.62l0,0l-0.006,-0.31605c-0.08178,-2.20758 -0.99536,-4.30747 -2.564,-5.87395c-1.52111,-1.65883 -3.67964,-2.58703 -5.93,-2.55zm-101.88,0.05c-3.85479,-0.09803 -7.31935,2.33894 -8.53,6l0,0l16.86,0c-0.49344,-1.56423 -1.42741,-2.95302 -2.69,-4c-1.58174,-1.31722 -3.58178,-2.02645 -5.64,-2z" class="icon-logo__text"/>
 </g>
</svg>