<svg class="icon icon-logo" viewBox="0 0 256 66" version="1.1" xmlns="http://www.w3.org/2000/svg" xmlns:xlink="http://www.w3.org/1999/xlink">
    <path class="icon-logo__icon" d="M66.47,23.21 C60.0938726,5.68324346 40.7167565,-3.35612744 23.19,3.02 C5.66324346,9.39612744 -3.37612744,28.7732435 3,46.3 C3.44114007,47.5005564 3.94858746,48.6756977 4.52,49.82 C4.9319353,50.7680764 5.728532,51.4955619 6.71,51.82 L40.22,63.22 L40.22,63.22 L41.04,63.5 C41.8481251,65.4216795 44.0217873,66.371383 45.9808842,65.6587415 C47.939981,64.9461 48.9954333,62.8217731 48.38,60.83 L53.88,51.76 L53.88,51.76 L67.2,29.85 C67.7549128,28.9518033 67.8900485,27.8561086 67.57,26.85 C67.2671267,25.6182963 66.8999572,24.4032992 66.47,23.21 Z M41.19,60.32 L37.8,57.66 L37.8,57.66 L25.21,47.84 C24.4969191,47.0258995 23.9408657,46.0867117 23.57,45.07 C22.3400893,41.2733797 23.5251424,37.109893 26.57,34.53 C23.6613151,33.7355971 20.5750579,33.8897348 17.76,34.97 C11.6,37.21 7.94,42.73 9.6,47.29 L9.66,47.45 C14.3709836,45.7676059 19.6085261,46.5158262 23.66,49.45 L23.76,49.54 L36.58,59.54 L34.5,58.83 L34.5,58.83 L7.5,49.64 C7.42679153,49.6181213 7.35633177,49.5879243 7.29,49.55 C7.05941124,49.1432677 6.86210115,48.7185494 6.7,48.28 C4.6,42.6 9.19,35.66 17,32.84 C24.59,30.08 32.39,32.28 34.68,37.74 L42.39,58.93 C41.8876194,59.2940051 41.4767945,59.7698773 41.19,60.32 Z M65.25,28.67 L49.37,54.88 L49.7,53.33 L49.7,53.33 L52.7,39.01 L52.7,39.01 C53.8792254,34.1150621 57.4073414,30.1225232 62.12,28.35 C62.1244257,28.2934197 62.1244257,28.2365803 62.12,28.18 C60.46,23.62 54.12,21.75 47.95,23.99 C45.1132643,24.9793507 42.66276,26.8417339 40.95,29.31 C44.9224952,29.3642514 48.4726582,31.80203 49.95,35.49 C50.3261669,36.513889 50.5059723,37.5995067 50.48,38.69 L46.27,58.48 C45.712893,58.2251033 45.101455,58.1117468 44.49,58.15 L43.55,55.57 L43.55,55.57 L36.77,36.94 C35,31.29 39.58,24.6 47.16,21.84 C54.92,19 62.9,21.38 65,27.11 C65.1584113,27.5522851 65.2788469,28.0072642 65.36,28.47 C65.32,28.53 65.29,28.6 65.25,28.67 Z"></path>
    <path class="icon-logo__text" d="M234.55,23.92 L234.55,37.11 C234.518668,39.2792744 235.362087,41.3698002 236.89,42.91 C238.375663,44.4549963 240.42659,45.3281322 242.57,45.3281322 C244.71341,45.3281322 246.764337,44.4549963 248.25,42.91 C249.77619,41.3605107 250.618834,39.2647052 250.59,37.09 L250.59,37.09 L250.59,23.92 L255.81,23.92 L255.81,48.26 C255.849653,52.0648877 254.416359,55.7377024 251.81,58.51 C249.527344,61.088842 246.253929,62.5727901 242.81,62.59 C240.050431,62.5386341 237.3745,61.6338482 235.15,60 C233.029581,58.5469118 231.343031,56.5458611 230.27,54.21 L230.27,54.21 L235.18,52.33 C235.868307,53.6689701 236.870091,54.8217081 238.1,55.69 C239.455816,56.7019546 241.089087,57.2742973 242.78,57.33 C244.895988,57.315952 246.89206,56.3454861 248.21,54.69 C249.61436,53.0339165 250.43023,50.9590747 250.53,48.79 L250.53,48.79 L250.61,47.79 L249.76,48.35 C244.539435,51.8400151 237.570392,51.0993438 233.2,46.59 C230.669562,44.0820811 229.268777,40.6523235 229.32,37.09 L229.32,23.92 L234.55,23.92 Z M193.86,14.65 L193.86,37.19 C193.915598,44.9888894 187.658529,51.3666311 179.86,51.46 L179.86,51.46 L179.36,51.46 C175.685887,51.4093991 172.195074,49.8466721 169.71,47.14 C167.136332,44.4960141 165.715888,40.9395101 165.76,37.25 C165.714776,33.3977737 167.246639,29.6945675 170,27 C172.638739,24.2501953 176.332375,22.7676415 180.14,22.93 C183.175889,23.0064994 186.097003,24.1058813 188.43,26.05 L188.43,26.05 L188.48,14.65 L193.86,14.65 Z M99.93,26.8 C102.680429,23.948606 106.546641,22.4525977 110.5,22.71 C114.128071,22.9138485 117.534743,24.5203629 120,27.19 C122.455869,29.6414273 123.849445,32.9601508 123.88,36.43 L123.88,36.43 L123.88,39.25 L101.27,39.25 C101.654836,41.033629 102.618068,42.6401879 104.01,43.82 C105.656913,45.2905661 107.802831,46.0774027 110.01,46.02 C112.839025,46.1356559 115.512123,44.7227325 117.01,42.32 L117.01,42.32 L117.3,41.86 L123.22,41.86 L122.55,43.28 C121.538867,45.4759909 119.970136,47.368811 118,48.77 C115.641399,50.4645598 112.81418,51.3836681 109.91,51.4 L109.91,51.4 L109.66,51.4 C106.020078,51.3957484 102.536342,49.9207505 100,47.31 C97.2021756,44.6368024 95.6136592,40.9394739 95.6003694,37.0698961 C95.5872457,33.2003183 97.1504876,29.4922328 99.93,26.8 Z M130.22,26.85 C132.874973,24.0709004 136.612195,22.591355 140.45,22.8 C144.142732,22.8911926 147.642953,24.4664722 150.16,27.17 C152.766265,29.7890082 154.158579,33.3785674 154,37.07 L154,37.07 L154,50.77 L148.67,50.77 L148.67,48.19 C146.260345,50.2624573 143.178086,51.3858641 140,51.35 L140,51.35 L139.53,51.35 C135.866475,51.2664807 132.395635,49.6917813 129.92,46.99 C124.537795,41.3077082 124.670937,32.3694626 130.22,26.85 Z M201.84,26.85 C204.495741,24.0720406 208.232416,22.5927117 212.07,22.8 C215.790704,22.8697408 219.323734,24.4467931 221.86,27.17 C224.466265,29.7890082 225.858579,33.3785674 225.7,37.07 L225.7,37.07 L225.7,50.77 L220.32,50.77 L220.32,48.19 C217.911289,50.2640694 214.8284,51.3877061 211.65,51.35 L211.65,51.35 L211.19,51.35 C207.528917,51.2684095 204.060457,49.6931505 201.59,46.99 C198.995225,44.3559755 197.555909,40.7972664 197.59,37.1 C197.543879,33.2456185 199.079996,29.5408663 201.84,26.85 Z M93.878688,22.9917355 L94.23,23 L95.23,23 L95.23,28.31 L94.23,28.31 C93.0654528,28.294563 91.9289502,28.6675328 91,29.37 C90.3229155,29.883646 89.7350487,30.5052984 89.26,31.21 C88.7415799,32.2654507 88.5006668,33.4356001 88.56,34.61 L88.56,34.61 L88.56,50.78 L83,50.78 L83,23.42 L88.16,23.42 L88.16,25.16 C88.6748365,24.7070369 89.2422369,24.3175786 89.85,24 C91.1931903,23.2780052 92.7065569,22.9324877 94.23,23 Z M163.2,14.48 L163.2,50.78 L157.82,50.78 L157.82,14.48 L163.2,14.48 Z M180.118238,28.1990071 L179.82,28.2 C177.52881,28.1622706 175.326847,29.0873126 173.75,30.75 C172.055338,32.3858887 171.104861,34.6446271 171.12,37 C171.057953,39.3618748 171.927162,41.6534262 173.54,43.38 C175.028327,45.1226648 177.188858,46.1483712 179.48,46.2 C181.898327,46.3735682 184.259856,45.4126959 185.87,43.6 L185.87,43.6 C187.609612,41.8553616 188.538193,39.4613626 188.43,37 L188.43,37 L188.424404,36.681977 C188.345749,34.4604799 187.440667,32.3435775 185.88,30.75 C184.314252,29.0773164 182.110621,28.1500458 179.82,28.2 Z M140.2,28.09 C137.86705,28.0429162 135.620114,28.9706834 134,30.65 C132.299161,32.2667315 131.340443,34.5133894 131.35,36.86 C131.262911,39.2085408 132.124234,41.4933873 133.74,43.2 C135.229607,44.9408272 137.380306,45.9780949 139.67,46.06 C142.086776,46.2112568 144.440214,45.2499935 146.06,43.45 L146.06,43.45 L146.13,43.45 C149.580571,39.8770984 149.580571,34.2129016 146.13,30.64 C144.607374,28.9833117 142.449848,28.0555392 140.2,28.09 Z M211.78,28.09 C209.44705,28.0429162 207.200114,28.9706834 205.58,30.65 L205.3643,30.8652575 C203.813637,32.4690518 202.950885,34.6211253 202.97,36.86 C202.882167,39.2105307 203.747653,41.4968558 205.37,43.2 C206.854976,44.9413008 209.002923,45.9789915 211.29,46.06 C213.706776,46.2112568 216.060214,45.2499935 217.68,43.45 C219.427995,41.6998922 220.369804,39.3019017 220.28,36.83 L220.28,36.83 L220.273996,36.5139453 C220.192221,34.306369 219.27864,32.2064847 217.71,30.64 C216.188892,28.9811729 214.030357,28.0529665 211.78,28.09 Z M109.9,28.14 C106.045207,28.0419727 102.580652,30.4789403 101.37,34.14 L101.37,34.14 L118.23,34.14 C117.736557,32.5757708 116.802593,31.1869757 115.54,30.14 C113.958261,28.8227827 111.958218,28.1135475 109.9,28.14 Z"></path>
</svg>