<svg xmlns="http://www.w3.org/2000/svg" width="20" height="20" viewBox="0 0 20 20">
    <g fill="none" fill-rule="evenodd">
        <g fill="#F8A87D" fill-rule="nonzero">
            <g>
                <g>
                    <g>
                        <path d="M20 7.67c-.129-.374-.466-.636-.86-.67l-5.69-.83L10.9 1c-.167-.345-.517-.564-.9-.564S9.267.655 9.1 1L6.55 6.16.86 7c-.378.054-.692.317-.81.68-.108.354-.012.739.25 1l4.13 4-1 5.68c-.073.383.083.773.4 1 .308.22.715.248 1.05.07L10 16.76l5.1 2.68c.14.08.299.12.46.12.212 0 .418-.066.59-.19.317-.227.473-.617.4-1l-1-5.68 4.13-4c.295-.25.42-.647.32-1.02zm-6.15 4c-.238.23-.347.564-.29.89l.72 4.19-3.76-2c-.294-.156-.646-.156-.94 0l-3.76 2 .72-4.19c.057-.326-.052-.66-.29-.89l-3-3 4.21-.61c.329-.046.614-.252.76-.55L10 3.7l1.88 3.82c.146.298.431.504.76.55l4.21.61-3 2.99z" transform="translate(-1128 -114) translate(56 91) translate(1065 16) translate(7 7)"/>
                    </g>
                </g>
            </g>
        </g>
    </g>
</svg>
