<?xml version="1.0" encoding="UTF-8" standalone="no"?>
<svg width="24px" height="24px" viewBox="0 0 24 24" version="1.1" xmlns="http://www.w3.org/2000/svg" xmlns:xlink="http://www.w3.org/1999/xlink">
    <!-- Generator: Sketch 47.1 (45422) - http://www.bohemiancoding.com/sketch -->
    <title>suitcasepin-disabled</title>
    <desc>Created with Sketch.</desc>
    <defs></defs>
    <g id="Symbols" stroke="none" stroke-width="1" fill="none" fill-rule="evenodd" stroke-linecap="round" opacity="0.5" stroke-linejoin="round">
        <g id="suitcasepin-disabled" stroke="#4A72FF" stroke-width="1.4">
            <g id="Group-6" transform="translate(3.000000, 4.000000)">
                <g id="briefcase">
                    <path d="M1.90621291,3.27272727 L16.1062129,3.27272727 L16.1062129,3.27272727 C16.8794116,3.27272727 17.5062129,3.89952862 17.5062129,4.67272727 L17.5062129,13.3272727 L17.5062129,13.3272727 C17.5062129,14.1004714 16.8794116,14.7272727 16.1062129,14.7272727 L1.90621291,14.7272727 L1.90621291,14.7272727 C1.13301426,14.7272727 0.506212908,14.1004714 0.506212908,13.3272727 L0.506212908,4.67272727 L0.506212908,4.67272727 C0.506212908,3.89952862 1.13301426,3.27272727 1.90621291,3.27272727 Z" id="Rectangle-path"></path>
                    <path d="M12.4062129,14.7272727 L12.4062129,1.63636364 C12.4062129,0.732624955 11.645097,0 10.7062129,0 L7.30621291,0 C6.36732883,0 5.60621291,0.732624955 5.60621291,1.63636364 L5.60621291,14.7272727" id="Shape"></path>
                </g>
            </g>
        </g>
    </g>
</svg>