<svg xmlns="http://www.w3.org/2000/svg" width="780" height="180" viewBox="0 0 780 180">
  <path fill="#205681" fill-opacity=".047" fill-rule="evenodd" d="M30.7967767,253.972986 C31.6712173,253.972986 44.8927171,248.845817 60.1426397,253.972986 C75.3925622,259.100156 103.040339,270.352756 120.152204,260.908706 C137.264068,251.464657 174.309794,216.865579 223.708593,210.259572 C273.107392,203.653565 277.343016,203.466204 340.782998,162.8875 C379.040822,138.416293 432.209036,146.678852 454.908895,169.121031 C494.696123,208.45661 489.119733,181.8492 534.122945,184.121523 C579.126158,186.393846 613.09814,227.611224 683.084214,231.70654 C722.157568,233.992963 754.468787,198.131705 777.767798,178.500414 C796.200715,162.969199 810,162.8875 810,162.8875 L810,328 L30,328 L30.7967767,253.972986 Z" transform="translate(-30 -148)"/>
</svg>
