<svg xmlns="http://www.w3.org/2000/svg" width="105" height="100" viewBox="0 0 105 100">
  <g fill="#5378FF" fill-rule="evenodd">
    <path fill-rule="nonzero" d="M65.0694258,25.4124 C67.8156562,25.4124 70.0498945,23.1694 70.0498945,20.4124 C70.0498945,17.6554 67.8156562,15.4122 65.0694258,15.4122 C62.3231953,15.4122 60.088957,17.6554 60.088957,20.4124 C60.088957,21.5384 60.4618945,22.5784 61.0900312,23.4152 L52.9069219,34.8954 C52.4186367,34.7344 51.8976797,34.646 51.3562031,34.646 C50.0475352,34.646 48.8558086,35.1562 47.9660977,35.9878 L42.5116875,32.8806 C42.5844023,32.5414 42.6234492,32.1898 42.6234492,31.8292 C42.6234492,29.0722 40.3892109,26.8292 37.6429805,26.8292 C34.89675,26.8292 32.6625117,29.0722 32.6625117,31.8292 C32.6625117,32.1898 32.7015586,32.5414 32.7742734,32.8806 L27.3198633,35.9878 C26.4301523,35.1562 25.2384258,34.6462 23.9297578,34.6462 C21.1835273,34.6462 18.9492891,36.8894 18.9492891,39.6464 C18.9492891,42.4034 21.1835273,44.6466 23.9297578,44.6466 C26.6759883,44.6466 28.9102266,42.4034 28.9102266,39.6464 C28.9102266,39.2858 28.8711797,38.9342 28.7984648,38.595 L34.252875,35.4878 C35.1425859,36.3194 36.3343125,36.8296 37.6429805,36.8296 C38.9516484,36.8296 40.1431758,36.3194 41.0330859,35.488 L46.4874961,38.5952 C46.4147812,38.9344 46.3757344,39.286 46.3757344,39.6466 C46.3757344,42.4036 48.6099727,44.6468 51.3562031,44.6468 C54.1026328,44.6468 56.3368711,42.4036 56.3368711,39.6466 C56.3368711,38.5204 55.9637344,37.4802 55.3355977,36.6434 L63.518707,25.1632 C64.006793,25.324 64.5279492,25.4124 65.0694258,25.4124 Z M65.0694258,18.4122 C66.167918,18.4122 67.0616133,19.3094 67.0616133,20.4124 C67.0616133,21.5152 66.167918,22.4124 65.0694258,22.4124 C63.9709336,22.4124 63.0772383,21.5152 63.0772383,20.4124 C63.0770391,19.3094 63.9707344,18.4122 65.0694258,18.4122 Z M23.9291602,41.6462 C22.830668,41.6462 21.9369727,40.749 21.9369727,39.646 C21.9369727,38.543 22.830668,37.6458 23.9291602,37.6458 C25.0276523,37.6458 25.9213477,38.543 25.9213477,39.646 C25.9213477,40.749 25.0276523,41.6462 23.9291602,41.6462 Z M37.642582,33.8292 C36.5440898,33.8292 35.6503945,32.932 35.6503945,31.829 C35.6503945,30.7262 36.5440898,29.829 37.642582,29.829 C38.7410742,29.829 39.6347695,30.7262 39.6347695,31.829 C39.6349687,32.932 38.7410742,33.8292 37.642582,33.8292 Z M51.3560039,41.6462 C50.2575117,41.6462 49.3638164,40.749 49.3638164,39.646 C49.3638164,38.543 50.2575117,37.6458 51.3560039,37.6458 C52.4546953,37.6458 53.3483906,38.543 53.3483906,39.646 C53.3483906,40.749 52.4544961,41.6462 51.3560039,41.6462 Z"/>
    <path fill-rule="nonzero" d="M83.4320156,74.193 L72.9758203,74.193 L16.0227656,74.193 L4.22642578,74.193 C3.54370313,74.193 2.98828125,73.6354 2.98828125,72.95 L2.98828125,11.0662 C2.98828125,10.3808 3.54370313,9.8232 4.22642578,9.8232 L11.2700039,9.8232 C12.095168,9.8232 12.7641445,9.1518 12.7641445,8.3232 C12.7641445,7.4946 12.095168,6.8232 11.2700039,6.8232 L4.22642578,6.8232 C1.89596484,6.8232 0,8.7266 0,11.0662 L0,72.95 C0,75.2896 1.89596484,77.193 4.22642578,77.193 L14.528625,77.193 L14.528625,80.4942 C14.528625,82.3748 16.0526484,83.9048 17.9259023,83.9048 L32.8820508,83.9048 L25.8416602,97.7044 C25.4655352,98.4418 25.7557969,99.3456 26.4903164,99.7234 C26.7082617,99.8356 26.9409492,99.8886 27.17025,99.8886 C27.7131211,99.8886 28.2368672,99.5906 28.5012305,99.072 L36.2394844,83.9048 L52.7591016,83.9048 L60.4973555,99.072 C60.761918,99.5906 61.2854648,99.8886 61.8283359,99.8886 C62.0576367,99.8886 62.2903242,99.8352 62.5082695,99.7234 C63.2427891,99.3456 63.53325,98.4418 63.1569258,97.7044 L56.1165352,83.9048 L71.0726836,83.9048 C72.9459375,83.9048 74.4699609,82.375 74.4699609,80.4942 L74.4699609,77.193 L83.4320156,77.193 C84.2571797,77.193 84.9261563,76.5216 84.9261563,75.693 C84.9261563,74.8644 84.2571797,74.193 83.4320156,74.193 Z M71.4816797,80.4942 C71.4816797,80.7206 71.2981992,80.9048 71.0726836,80.9048 L17.9259023,80.9048 C17.7003867,80.9048 17.5169063,80.7206 17.5169063,80.4942 L17.5169063,77.193 L71.4816797,77.193 L71.4816797,80.4942 Z"/>
    <path fill-rule="nonzero" d="M10.9266354 9.8232L37.7007539 9.8232 51.2976328 9.8232 84.7719609 9.8232C85.4546836 9.8232 86.0101055 10.3808 86.0101055 11.0662L86.0101055 25.3284C86.0101055 26.157 86.679082 26.8284 87.5042461 26.8284 88.3294102 26.8284 88.9983867 26.157 88.9983867 25.3284L88.9983867 11.0662C88.9983867 8.7266 87.1024219 6.8232 84.7719609 6.8232L52.7919727 6.8232 52.7919727 3.8748C52.7919727 1.7998 51.1103672.1116 49.0432734.1116L39.9553125.1116C37.888418.1116 36.2066133 1.7998 36.2066133 3.8748L36.2066133 6.8232 11.5025437 6.8232C10.6773796 6.8232 11.7904978 7.64199369 11.7904978 8.47059369 11.7904978 9.29919369 10.1014714 9.8232 10.9266354 9.8232zM39.1948945 3.8748C39.1948945 3.454 39.535957 3.1116 39.9553125 3.1116L49.0432734 3.1116C49.4624297 3.1116 49.8036914 3.454 49.8036914 3.8748L49.8036914 6.8232 39.1950937 6.8232 39.1950937 3.8748 39.1948945 3.8748zM20.8984453 52.3152C20.0732813 52.3152 19.4043047 52.9866 19.4043047 53.8152L19.4043047 67.0696C19.4043047 67.8982 20.0732813 68.5696 20.8984453 68.5696L26.9600742 68.5696C27.7852383 68.5696 28.4542148 67.8982 28.4542148 67.0696L28.4542148 53.8152C28.4542148 52.9866 27.7852383 52.3152 26.9600742 52.3152L20.8984453 52.3152zM25.4659336 65.5698L22.3925859 65.5698 22.3925859 55.3154 25.4659336 55.3154 25.4659336 65.5698 25.4659336 65.5698zM34.611668 44.6496C33.7865039 44.6496 33.1175273 45.321 33.1175273 46.1496L33.1175273 67.0698C33.1175273 67.8984 33.7865039 68.5698 34.611668 68.5698L40.6732969 68.5698C41.4984609 68.5698 42.1674375 67.8984 42.1674375 67.0698L42.1674375 46.1496C42.1674375 45.321 41.4984609 44.6496 40.6732969 44.6496L34.611668 44.6496zM39.1793555 65.5698L36.1060078 65.5698 36.1060078 47.6496 39.1793555 47.6496 39.1793555 65.5698zM48.3250898 52.3152C47.4999258 52.3152 46.8309492 52.9866 46.8309492 53.8152L46.8309492 67.0696C46.8309492 67.8982 47.4999258 68.5696 48.3250898 68.5696L54.3867188 68.5696C55.2118828 68.5696 55.8808594 67.8982 55.8808594 67.0696L55.8808594 53.8152C55.8808594 52.9866 55.2118828 52.3152 54.3867188 52.3152L48.3250898 52.3152zM52.8925781 65.5698L49.8192305 65.5698 49.8192305 55.3154 52.8925781 55.3154 52.8925781 65.5698zM104.237988 77.6038L95.6662031 62.6986C97.8378867 60.3748 99.4192852 57.5354 100.263973 54.3706 101.614078 49.3124 100.921195 44.029 98.3130234 39.4938 92.9289375 30.1312 80.961668 26.9126 71.6362383 32.3176 62.3106094 37.7226 59.1041836 49.7368 64.4882695 59.099 67.0964414 63.6342 71.3077266 66.8782 76.346168 68.2338 78.0287695 68.6864 79.735875 68.9102 81.4322227 68.9102 82.9148086 68.9102 84.3888281 68.739 85.830375 68.4002L94.4003672 83.3058C95.4508477 85.1332 97.3637461 86.1558 99.3284414 86.1556 100.291266 86.1556 101.266641 85.9098 102.158941 85.393 103.91127 84.3776 105 82.4842 105 80.4518 105 79.456 104.736633 78.4714 104.237988 77.6038zM77.1195352 65.336C72.8520703 64.188 69.2850586 61.4402 67.0759219 57.599 62.5158047 49.6694 65.2317539 39.4938 73.1301797 34.9156 75.7285898 33.4096 78.5680547 32.6944 81.3726563 32.6944 87.0932227 32.6944 92.6649727 35.673 95.7249727 40.9938 97.9339102 44.835 98.5208086 49.3098 97.377293 53.5942 96.2337773 57.8786 93.4967109 61.4592 89.6705156 63.677 85.8445195 65.8948 81.3871992 66.4836 77.1195352 65.336zM100.665398 82.7946C99.3798398 83.5398 97.7303086 83.0962 96.9886172 81.8062L88.7433516 67.4654C89.5697109 67.1268 90.3789375 66.7308 91.1650547 66.2752 91.9517695 65.8192 92.6968477 65.3116 93.4022813 64.762L101.649937 79.1034C101.886609 79.5156 102.011719 79.982 102.011719 80.452 102.011719 81.4156 101.495742 82.3134 100.665398 82.7946z"/>
  </g>
</svg>
