<svg xmlns="http://www.w3.org/2000/svg" width="16" height="18" viewBox="0 0 16 18">
  <path fill="#4784F5" d="M12.6666667,14.7272727 L3.33333333,14.7272727 C2.04466892,14.7272727 1,13.6283353 1,12.2727273 L1,5.72727273 C1,5.27540339 0.651777028,4.90909091 0.222222222,4.90909091 C-0.207332583,4.90909091 -0.555555556,5.27540339 -0.555555556,5.72727273 L-0.555555556,12.2727273 C-0.555555556,13.3577038 -0.14583451,14.3982425 0.583473626,15.1654368 C1.31278177,15.9326311 2.30193587,16.3636364 3.33333333,16.3636364 L12.6666667,16.3636364 C13.0962214,16.3636364 13.4444444,15.9973238 13.4444444,15.5454545 C13.4444444,15.0935852 13.0962214,14.7272727 12.6666667,14.7272727 Z M7.19999924,9.0224786 L7.19999924,5.74975133 C7.19999924,5.29788199 6.85177627,4.93156951 6.42222147,4.93156951 C5.99266666,4.93156951 5.64444369,5.29788199 5.64444369,5.74975133 L5.64444369,9.0224786 C5.64444369,9.47434795 5.99266666,9.84066046 6.42222147,9.84066046 C6.85177627,9.84066046 7.19999924,9.47434795 7.19999924,9.0224786 Z M16.5555556,7.31454545 C16.547454,7.2393831 16.5318112,7.16533411 16.5088889,7.09363636 L16.5088889,7.02 C16.4714925,6.93587434 16.4216096,6.85854395 16.3611111,6.79090909 L16.3611111,6.79090909 L11.6944444,1.88181818 L11.6944444,1.88181818 C11.6301496,1.8181769 11.5566379,1.7657027 11.4766667,1.72636364 L11.4066667,1.72636364 C11.327656,1.67869747 11.2403959,1.6480998 11.15,1.63636364 L4.88888889,1.63636364 C3.60022447,1.63636364 2.55555556,2.73530107 2.55555556,4.09090909 L2.55555556,10.6363636 C2.55555556,11.9919716 3.60022447,13.0909091 4.88888889,13.0909091 L14.2222222,13.0909091 C15.5108866,13.0909091 16.5555556,11.9919716 16.5555556,10.6363636 L16.5555556,7.36363636 C16.5555556,7.36363636 16.5555556,7.36363636 16.5555556,7.31454545 Z M11.8888889,4.42636364 L13.9033333,6.54545455 L12.6666667,6.54545455 C12.2371119,6.54545455 11.8888889,6.17914207 11.8888889,5.72727273 L11.8888889,4.42636364 Z M15,10.6363636 C15,11.0882329 14.651777,11.4545455 14.2222222,11.4545455 L4.88888889,11.4545455 C4.45933408,11.4545455 4.11111111,11.0882329 4.11111111,10.6363636 L4.11111111,4.09090909 C4.11111111,3.63903975 4.45933408,3.27272727 4.88888889,3.27272727 L10.3333333,3.27272727 L10.3333333,5.72727273 C10.3333333,7.08288075 11.3780023,8.18181818 12.6666667,8.18181818 L15,8.18181818 L15,10.6363636 Z M8,7.36363636 L8,9 C8,9.45186934 8.34822301,9.81818182 8.77777778,9.81818182 C9.20733254,9.81818182 9.55555556,9.45186934 9.55555556,9 L9.55555556,7.36363636 C9.55555556,6.91176702 9.20733254,6.54545455 8.77777778,6.54545455 C8.34822301,6.54545455 8,6.91176702 8,7.36363636 Z" transform="matrix(0 -1 -1 0 17 17)"/>
</svg>
