<svg xmlns="http://www.w3.org/2000/svg" width="16" height="13" viewBox="0 0 16 13">
  <path fill="#4784F5" d="M13.6,-1.66533454e-16 L2.4,-1.66533454e-16 C1.0745166,-8.8817842e-16 -8.8817842e-17,1.09130592 -4.4408921e-16,2.4375 L-4.4408921e-16,10.5625 C-8.8817842e-17,11.9086941 1.0745166,13 2.4,13 L13.6,13 C14.9254834,13 16,11.9086941 16,10.5625 L16,2.4375 C16,1.09130592 14.9254834,-8.8817842e-16 13.6,-1.66533454e-16 Z M13.272,1.625 L8.568,6.4025 C8.41778672,6.55631653 8.21331003,6.64283614 8,6.64283614 C7.78668997,6.64283614 7.58221328,6.55631653 7.432,6.4025 L2.728,1.625 L13.272,1.625 Z M14.4,10.5625 C14.4,11.0112314 14.0418278,11.375 13.6,11.375 L2.4,11.375 C1.9581722,11.375 1.6,11.0112314 1.6,10.5625 L1.6,2.770625 L6.304,7.548125 C7.24101615,8.49859848 8.75898385,8.49859848 9.696,7.548125 L14.4,2.770625 L14.4,10.5625 Z"/>
</svg>
