<svg xmlns="http://www.w3.org/2000/svg" width="23" height="23" viewBox="0 0 24 24">
  <g><path xmlns="http://www.w3.org/2000/svg" d="M117.829787,7 C121.69578,7 124.829787,10.1340068 124.829787,14 C124.829787,17.8659932 121.69578,21 117.829787,21 C113.963794,21 110.829787,17.8659932 110.829787,14 C110.829787,10.1340068 113.963794,7 117.829787,7 Z M114.320201,18.1624605 C115.26791,18.9623407 116.492548,19.4444444 117.829787,19.4444444 C120.836671,19.4444444 123.274232,17.0068836 123.274232,14 C123.274232,12.826582 122.903015,11.7398663 122.271611,10.8508831 Z M117.829787,8.55555556 C114.822904,8.55555556 112.385343,10.9931164 112.385343,14 C112.385343,15.1087585 112.716776,16.1401066 113.285974,17.0003759 L121.198636,9.72270007 C120.271844,8.9917436 119.101754,8.55555556 117.829787,8.55555556 Z" transform="translate(-109 -6)"/></g>
</svg>
