<svg xmlns="http://www.w3.org/2000/svg" width="20" height="20" viewBox="0 0 20 20">
  <g fill="none" fill-rule="evenodd" transform="translate(0 2)">
    <polyline stroke="#4A71B7" stroke-width="1.5" points="12.522 11.111 9.391 8 6.261 11.111" stroke-linecap="round" stroke-linejoin="round"/>
    <path fill="#4A71B7" fill-rule="nonzero" d="M8.64130435,9 L8.64130435,16 C8.64130435,16.4142136 8.97709079,16.75 9.39130435,16.75 C9.80551791,16.75 10.1413043,16.4142136 10.1413043,16 L10.1413043,9 C10.1413043,8.58578644 9.80551791,8.25 9.39130435,8.25 C8.97709079,8.25 8.64130435,8.58578644 8.64130435,9 Z"/>
    <path fill="#4A71B7" fill-rule="nonzero" d="M14.3835254,4.91666676 C13.4534853,2.41049111 11.0809005,0.601658235 8.25129449,0.296861033 C5.21518252,-0.0301804148 2.27857046,1.4417309 0.865243717,4.00052414 C-0.549101576,6.56116144 -0.144858681,9.6797103 1.88136623,11.842814 C2.1713185,12.1523536 2.67071374,12.1801574 2.99679671,11.9049155 C3.32287969,11.6296735 3.35216942,11.1556144 3.06221715,10.8460749 C1.47259888,9.14907212 1.1557592,6.70479907 2.26471302,4.6970655 C3.3746854,2.68748787 5.68408168,1.52995448 8.07312969,1.78729602 C10.4615827,2.04457347 12.4339466,3.66260633 13.0348988,5.85548944 C13.1254685,6.18597964 13.4397921,6.41666667 13.7995331,6.41666667 L14.8383216,6.41666667 C16.3618549,6.41761579 17.6899828,7.39228091 18.0650267,8.78238969 C18.4397078,10.1711536 17.7684236,11.6233996 16.4323437,12.3105694 C16.0486859,12.5078915 15.9061801,12.9630898 16.1140481,13.3272833 C16.3219161,13.6914767 16.8014425,13.8267527 17.1851003,13.6294306 C19.1572945,12.6150958 20.1505211,10.4663645 19.5957897,8.41024016 C19.0414212,6.35546077 17.0827524,4.91806449 14.83884,4.91666683 L14.3835254,4.91666676 Z"/>
    <polyline points="12.522 11.11 9.391 8 6.261 11.11"/>
  </g>
</svg>
