<svg xmlns="http://www.w3.org/2000/svg" width="55" height="321" viewBox="0 0 55 321">
  <g fill="none" fill-rule="evenodd" transform="translate(1 1)">
    <path stroke="#264B5E" d="M2.37146974,2.25597611 L16.6272946,2.25597611 L16.6272946,2.25597611 C22.1501421,2.25597611 26.6272946,6.73312861 26.6272946,12.2559761 L26.6272946,307 L26.6272946,307 C26.6272946,312.522847 22.1501421,317 16.6272946,317 L1.87188321,317"/>
    <circle cx="2" cy="2" r="2" fill="#FFFFFF" stroke="#274B5F"/>
    <circle cx="2" cy="317" r="2" fill="#FFFFFF" stroke="#274B5F"/>
    <path fill="#FFFFFF" stroke="#264B5E" d="M2.82041547,81.2290601 L26.3348037,81.2290601"/>
    <circle cx="2" cy="81" r="2" fill="#FFFFFF" stroke="#274B5F"/>
    <path fill="#FFFFFF" stroke="#264B5E" d="M3.10034867,237.604011 L26.073722,237.604011"/>
    <circle cx="2" cy="238" r="2" fill="#FFFFFF" stroke="#274B5F"/>
    <path fill="#FFFFFF" stroke="#264B5E" d="M3,159 L53.5,159"/>
    <circle cx="2" cy="159" r="2" fill="#FFFFFF" stroke="#274B5F"/>
    <g fill-rule="nonzero" transform="translate(15 148)">
      <path fill="#E4AF18" d="M11.5,18.1730769 C5.80591379,18.1730769 1.18965517,16.9768846 1.18965517,15.75 L1.18965517,18.5753077 C1.19282759,19.8013846 5.8075,21 11.5,21 C17.1925,21 21.8071724,19.8013846 21.8103448,18.5753077 L21.8103448,15.75 C21.8103448,16.9768846 17.1940862,18.1730769 11.5,18.1730769"/>
      <path fill="#F4BF1A" d="M10.3103448,13.7307692 C4.61625862,13.7307692 0,12.5345769 0,11.3076923 L0,14.133 C0.00317241379,15.3590769 4.61784483,16.5576923 10.3103448,16.5576923 C16.0028448,16.5576923 20.6175172,15.3590769 20.6206897,14.133 L20.6206897,11.3076923 C20.6206897,12.5345769 16.004431,13.7307692 10.3103448,13.7307692"/>
      <path fill="#E4AF18" d="M12.6896552,9.28846154 C6.99556897,9.28846154 2.37931034,8.09226923 2.37931034,6.86538462 L2.37931034,9.69069231 C2.38248276,10.9167692 6.99715517,12.1153846 12.6896552,12.1153846 C18.3821552,12.1153846 22.9968276,10.9167692 23,9.69069231 L23,6.86538462 C23,8.09226923 18.3837414,9.28846154 12.6896552,9.28846154"/>
      <path fill="#FFD949" d="M20.6206897,2.07173077 C20.6206897,3.29821154 16.004431,4.44230769 10.3103448,4.44230769 C4.61625862,4.44230769 0,3.29821154 0,2.07173077 C0,0.844846154 4.61625862,0 10.3103448,0 C16.004431,0 20.6206897,0.844846154 20.6206897,2.07173077"/>
      <path fill="#F4BF1A" d="M10.3103448,4.44230769 C4.61625862,4.44230769 0,3.24611538 0,2.01923077 L0,4.84453846 C0.00317241379,6.07061538 4.61784483,7.26923077 10.3103448,7.26923077 C16.0028448,7.26923077 20.6175172,6.07061538 20.6206897,4.84453846 L20.6206897,2.01923077 C20.6206897,3.24611538 16.004431,4.44230769 10.3103448,4.44230769"/>
      <path fill="#DCA815" d="M1.5862069 3.26065385L1.5862069 6.08555769C1.82731034 6.17601923 2.09141379 6.26325 2.37931034 6.34644231L2.37931034 3.52113462C2.09141379 3.43794231 1.82731034 3.35071154 1.5862069 3.26065385M18.2413793 3.52113462L18.2413793 6.34644231C18.5292759 6.26325 18.7933793 6.17601923 19.0344828 6.08555769L19.0344828 3.26065385C18.7933793 3.35111538 18.5292759 3.43794231 18.2413793 3.52113462M3.56896552 3.81432692L3.56896552 6.64003846C3.82275862 6.69375 4.08725862 6.74463462 4.36206897 6.79269231L4.36206897 3.96698077C4.08725862 3.91892308 3.82275862 3.86803846 3.56896552 3.81432692M16.2586207 3.96698077L16.2586207 6.79309615C16.533431 6.74463462 16.797931 6.69375 17.0517241 6.64003846L17.0517241 3.81432692C16.797931 3.86803846 16.533431 3.91892308 16.2586207 3.96698077M5.55172414 4.14709615L5.55172414 6.97321154C5.81027586 7.00713462 6.07398276 7.03863462 6.34482759 7.06690385L6.34482759 4.24078846C6.07398276 4.21251923 5.81027586 4.18061538 5.55172414 4.14709615M14.2758621 4.24119231L14.2758621 7.06730769C14.5467069 7.03863462 14.8104138 7.00713462 15.0689655 6.97361538L15.0689655 4.14709615C14.8104138 4.18142308 14.5467069 4.21292308 14.2758621 4.24119231M7.53448276 4.34498077L7.53448276 7.1715C7.79501724 7.19007692 8.05912069 7.20663462 8.32758621 7.21996154L8.32758621 4.39303846C8.05912069 4.37971154 7.79501724 4.36355769 7.53448276 4.34498077M12.2931034 4.39303846L12.2931034 7.21996154C12.561569 7.20663462 12.8256724 7.19007692 13.0862069 7.1715L13.0862069 4.34498077C12.8256724 4.36355769 12.561569 4.37971154 12.2931034 4.39303846M10.3103448 4.44230769C10.1775 4.44230769 10.0454483 4.44109615 9.9137931 4.43988462L9.9137931 7.26680769C10.0454483 7.26801923 10.1775 7.26923077 10.3103448 7.26923077 10.4431897 7.26923077 10.5752414 7.26801923 10.7068966 7.26680769L10.7068966 4.43988462C10.5752414 4.44109615 10.4431897 4.44230769 10.3103448 4.44230769"/>
      <path fill="#C49214" d="M3.96551724 8.10680769L3.96551724 10.9317115C4.20662069 11.0221731 4.47072414 11.1094038 4.75862069 11.1925962L4.75862069 8.36728846C4.47072414 8.28409615 4.20662069 8.19686538 3.96551724 8.10680769M20.6206897 8.36728846L20.6206897 11.1925962C20.9085862 11.1094038 21.1726897 11.0221731 21.4137931 10.9317115L21.4137931 8.10680769C21.1726897 8.19726923 20.9085862 8.28409615 20.6206897 8.36728846M5.94827586 8.66048077L5.94827586 11.4861923C6.20206897 11.5399038 6.46656897 11.5907885 6.74137931 11.6388462L6.74137931 8.81313462C6.46656897 8.76507692 6.20206897 8.71419231 5.94827586 8.66048077M18.637931 8.81313462L18.637931 11.63925C18.9127414 11.5907885 19.1772414 11.5399038 19.4310345 11.4861923L19.4310345 8.66048077C19.1772414 8.71419231 18.9127414 8.76507692 18.637931 8.81313462M7.93103448 8.99365385L7.93103448 11.8197692C8.18958621 11.8536923 8.4532931 11.8851923 8.72413793 11.9134615L8.72413793 9.08734615C8.4532931 9.05867308 8.18958621 9.02717308 7.93103448 8.99365385M16.6551724 9.08694231L16.6551724 11.9134615C16.9260172 11.8847885 17.1897241 11.8532885 17.4482759 11.8197692L17.4482759 8.99365385C17.1897241 9.02757692 16.9260172 9.05907692 16.6551724 9.08694231M9.9137931 9.19113462L9.9137931 12.0176538C10.1743276 12.0362308 10.438431 12.0527885 10.7068966 12.0661154L10.7068966 9.23919231C10.438431 9.22586538 10.1743276 9.20971154 9.9137931 9.19113462M14.6724138 9.23919231L14.6724138 12.0661154C14.9408793 12.0527885 15.2049828 12.0362308 15.4655172 12.0176538L15.4655172 9.19113462C15.2049828 9.20971154 14.9408793 9.22586538 14.6724138 9.23919231M12.6896552 9.28846154C12.5568103 9.28846154 12.4247586 9.28725 12.2931034 9.28603846L12.2931034 12.1129615C12.4247586 12.1141731 12.5568103 12.1153846 12.6896552 12.1153846 12.8225 12.1153846 12.9545517 12.1141731 13.0862069 12.1129615L13.0862069 9.28603846C12.9545517 9.28725 12.8225 9.28846154 12.6896552 9.28846154"/>
      <path fill="#DCA815" d="M1.5862069 12.5491154L1.5862069 15.3740192C1.82731034 15.4644808 2.09141379 15.5513077 2.37931034 15.6349038L2.37931034 12.8095962C2.09141379 12.7264038 1.82731034 12.6391731 1.5862069 12.5491154M18.2413793 12.8095962L18.2413793 15.6349038C18.5292759 15.5517115 18.7933793 15.4644808 19.0344828 15.3740192L19.0344828 12.5491154C18.7933793 12.6395769 18.5292759 12.7264038 18.2413793 12.8095962M3.56896552 13.1027885L3.56896552 15.9285C3.82275862 15.9822115 4.08725862 16.0330962 4.36206897 16.0811538L4.36206897 13.2554423C4.08725862 13.2073846 3.82275862 13.1565 3.56896552 13.1027885M16.2586207 13.2554423L16.2586207 16.0815577C16.533431 16.0330962 16.797931 15.9822115 17.0517241 15.9285L17.0517241 13.1027885C16.797931 13.1565 16.533431 13.2073846 16.2586207 13.2554423M5.55172414 13.4359615L5.55172414 16.2620769C5.81027586 16.296 6.07398276 16.3275 6.34482759 16.3557692L6.34482759 13.5296538C6.07398276 13.5009808 5.81027586 13.4694808 5.55172414 13.4359615M14.2758621 13.52925L14.2758621 16.3557692C14.5467069 16.3270962 14.8104138 16.2955962 15.0689655 16.2620769L15.0689655 13.4359615C14.8104138 13.4698846 14.5467069 13.5013846 14.2758621 13.52925M7.53448276 13.6334423L7.53448276 16.4599615C7.79501724 16.4785385 8.05912069 16.4950962 8.32758621 16.5084231L8.32758621 13.6815C8.05912069 13.6681731 7.79501724 13.6520192 7.53448276 13.6334423M12.2931034 13.6815L12.2931034 16.5084231C12.561569 16.4950962 12.8256724 16.4785385 13.0862069 16.4599615L13.0862069 13.6334423C12.8256724 13.6520192 12.561569 13.6681731 12.2931034 13.6815M10.3103448 13.7307692C10.1775 13.7307692 10.0454483 13.7295577 9.9137931 13.7283462L9.9137931 16.5552692C10.0454483 16.5564808 10.1775 16.5576923 10.3103448 16.5576923 10.4431897 16.5576923 10.5752414 16.5564808 10.7068966 16.5552692L10.7068966 13.7283462C10.5752414 13.7295577 10.4431897 13.7307692 10.3103448 13.7307692"/>
      <path fill="#C49214" d="M2.77586207 16.9914231L2.77586207 19.8163269C3.01696552 19.9067885 3.28106897 19.9936154 3.56896552 20.0772115L3.56896552 17.2519038C3.28106897 17.1687115 3.01696552 17.0814808 2.77586207 16.9914231M19.4310345 17.2519038L19.4310345 20.0772115C19.718931 19.9940192 19.9830345 19.9067885 20.2241379 19.8163269L20.2241379 16.9914231C19.9830345 17.0818846 19.718931 17.1687115 19.4310345 17.2519038M4.75862069 17.5450962L4.75862069 20.3708077C5.01241379 20.4245192 5.27691379 20.4754038 5.55172414 20.5234615L5.55172414 17.69775C5.27691379 17.6496923 5.01241379 17.5988077 4.75862069 17.5450962M17.4482759 17.69775L17.4482759 20.5238654C17.7230862 20.4754038 17.9875862 20.4245192 18.2413793 20.3708077L18.2413793 17.5450962C17.9875862 17.5988077 17.7230862 17.6496923 17.4482759 17.69775M6.74137931 17.8782692L6.74137931 20.7043846C6.99993103 20.7383077 7.26363793 20.7698077 7.53448276 20.7980769L7.53448276 17.9719615C7.26363793 17.9432885 6.99993103 17.9117885 6.74137931 17.8782692M15.4655172 17.9715577L15.4655172 20.7980769C15.7363621 20.7694038 16.000069 20.7379038 16.2586207 20.7043846L16.2586207 17.8782692C16.000069 17.9121923 15.7363621 17.9436923 15.4655172 17.9715577M8.72413793 18.07575L8.72413793 20.9022692C8.98467241 20.9208462 9.24877586 20.9374038 9.51724138 20.9507308L9.51724138 18.1238077C9.24877586 18.1104808 8.98467241 18.0943269 8.72413793 18.07575M13.4827586 18.1238077L13.4827586 20.9507308C13.7512241 20.9374038 14.0153276 20.9208462 14.2758621 20.9022692L14.2758621 18.07575C14.0153276 18.0943269 13.7512241 18.1104808 13.4827586 18.1238077M11.5 18.1730769C11.3671552 18.1730769 11.2351034 18.1718654 11.1034483 18.1706538L11.1034483 20.9975769C11.2351034 20.9987885 11.3671552 21 11.5 21 11.6328448 21 11.7648966 20.9987885 11.8965517 20.9975769L11.8965517 18.1706538C11.7648966 18.1718654 11.6328448 18.1730769 11.5 18.1730769"/>
      <path fill="#FCC62D" d="M20.3082069,14.6886923 C19.182,15.6975 15.1336034,16.5576923 10.3103448,16.5576923 C6.53913793,16.5576923 3.24260345,16.0314808 1.44503448,15.3199038 C1.27967241,15.4725577 1.18965517,15.6340962 1.18965517,15.8025 C1.18965517,17.0293846 5.80591379,18.1730769 11.5,18.1730769 C17.1944828,18.1730769 21.8103448,17.0293846 21.8103448,15.8025 C21.8103448,15.3796731 21.2611207,15.0016731 20.3082069,14.6886923"/>
      <path fill="#FFD949" d="M12.6896552,12.1153846 C7.45001724,12.1153846 3.12641379,11.0997115 2.46893103,9.98186538 C0.930706897,10.3368462 0,10.80975 0,11.3601923 C0,12.5866731 4.61625862,13.7307692 10.3103448,13.7307692 C16.004431,13.7307692 20.6206897,12.5866731 20.6206897,11.3601923 C20.6206897,11.3060769 20.6087931,11.2531731 20.5909483,11.2006731 C18.6997931,11.7426346 15.8628621,12.1153846 12.6896552,12.1153846"/>
      <path fill="#FCC62D" d="M20.2213621,5.47171154 C18.9876897,6.44901923 15.019,7.26923077 10.3103448,7.26923077 C7.26958621,7.26923077 4.53694828,6.92676923 2.64975862,6.42115385 C2.47487931,6.57865385 2.37931034,6.74423077 2.37931034,6.91788462 C2.37931034,8.14476923 6.99556897,9.28846154 12.6896552,9.28846154 C18.3837414,9.28846154 23,8.14476923 23,6.91788462 C23,6.3315 21.9439828,5.83275 20.2213621,5.47171154"/>
    </g>
  </g>
</svg>
