<svg xmlns="http://www.w3.org/2000/svg" width="11" height="11" viewBox="0 0 11 11">
  <path fill="#202123" d="M9.8505,7.4305 L7.359,7.4305 C7.0552434,7.43050001 6.80900002,7.6767434 6.80900002,7.9805 C6.80900002,8.2842566 7.0552434,8.53049999 7.359,8.5305 L8.679,8.5305 C7.43786985,9.82752508 5.53324511,10.2404908 3.86637714,9.57398558 C2.19950916,8.90748031 1.1046986,7.29517577 1.1,5.5 C1.1,5.19624339 0.853756612,4.95 0.55,4.95 C0.246243388,4.95 8.8817842e-16,5.19624339 8.8817842e-16,5.5 C0.00594280212,7.69516618 1.31663926,9.676584 3.33450819,10.5408726 C5.35237712,11.4051613 7.69094623,10.9867879 9.284,9.4765 L9.284,10.45 C9.284,10.7537566 9.53024339,11 9.834,11 C10.1377566,11 10.384,10.7537566 10.384,10.45 L10.384,7.975 C10.3811795,7.6797089 10.1456721,7.43934567 9.8505,7.4305 Z M5.5,-1.99840144e-16 C4.09001211,0.00402170602 2.73541966,0.549402679 1.716,1.5235 L1.716,0.55 C1.716,0.246243388 1.46975661,-1.99840144e-16 1.166,-1.99840144e-16 C0.862243388,-1.99840144e-16 0.616,0.246243388 0.616,0.55 L0.616,3.025 C0.616,3.32875661 0.862243388,3.575 1.166,3.575 L3.641,3.575 C3.94475661,3.575 4.191,3.32875661 4.191,3.025 C4.191,2.72124339 3.94475661,2.475 3.641,2.475 L2.321,2.475 C3.56143509,1.17868612 5.46472233,0.765380958 7.13108354,1.43047433 C8.79744475,2.0955677 9.89306883,3.70582586 9.9,5.5 C9.9,5.80375661 10.1462434,6.05 10.45,6.05 C10.7537566,6.05 11,5.80375661 11,5.5 C11,4.04130931 10.4205374,2.64236278 9.3890873,1.6109127 C8.35763722,0.579462622 6.95869069,-3.21964677e-16 5.5,-1.99840144e-16 Z" opacity=".5"/>
</svg>
