<svg width="36px" height="36px" viewBox="0 0 36 36" version="1.1" xmlns="http://www.w3.org/2000/svg" xmlns:xlink="http://www.w3.org/1999/xlink">
    <g id="Workflow--Add-New-Job" stroke="none" stroke-width="1" fill="none" fill-rule="evenodd">
        <g id="Workflow--Add-New-Job:-New-Shift-[Basic]-(2)" transform="translate(-72.000000, -171.000000)" fill="#888888" fill-rule="nonzero">
            <g id="Group-13" transform="translate(56.000000, 156.000000)">
                <path d="M40.6031597,26.3968403 C40.2689675,26.0598965 39.814051,25.8703704 39.3394822,25.8703704 C38.8649134,25.8703704 38.4099969,26.0598965 38.0758048,26.3968403 L34,30.4904434 L29.9241952,26.3968403 C29.2262855,25.6989306 28.0947502,25.6989306 27.3968404,26.3968404 C26.6989306,27.0947502 26.6989306,28.2262855 27.3968403,28.9241952 L31.4904434,33 L27.3968403,37.0758048 C27.0598965,37.4099969 26.8703704,37.8649134 26.8703704,38.3394822 C26.8703704,38.814051 27.0598965,39.2689675 27.3968403,39.6031597 C27.7310325,39.9401035 28.185949,40.1296296 28.6605178,40.1296296 C29.1350866,40.1296296 29.5900031,39.9401035 29.9241952,39.6031597 L34,35.5095566 L38.0758048,39.6031597 C38.4099969,39.9401035 38.8649134,40.1296296 39.3394822,40.1296296 C39.814051,40.1296296 40.2689675,39.9401035 40.6031597,39.6031597 C40.9401035,39.2689675 41.1296296,38.814051 41.1296296,38.3394822 C41.1296296,37.8649134 40.9401035,37.4099969 40.6031597,37.0758048 L36.5095566,33 L40.6031597,28.9241952 C40.9401035,28.5900031 41.1296296,28.1350866 41.1296296,27.6605178 C41.1296296,27.185949 40.9401035,26.7310325 40.6031597,26.3968403 Z M29.4101368,16.0638347 C35.454231,14.4817941 41.8816501,16.2840827 46.2220105,20.7779895 C50.7159173,25.1183499 52.5182059,31.545769 50.9361653,37.5898632 C49.3541248,43.6339574 44.6339574,48.3541248 38.5898632,49.9361653 C32.545769,51.5182059 26.1183499,49.7159173 21.7779895,45.2220105 C17.2840827,40.8816501 15.4817941,34.454231 17.0638347,28.4101368 C18.6458752,22.3660426 23.3660426,17.6458752 29.4101368,16.0638347 Z" id="Shape"></path>
            </g>
        </g>
    </g>
</svg>