<svg xmlns="http://www.w3.org/2000/svg" width="20" height="21" viewBox="0 0 20 21">
    <g fill="none" fill-rule="evenodd">
        <g fill="#333" fill-rule="nonzero">
            <g>
                <path d="M530 19.5c-5.523 0-10 4.477-10 10s4.477 10 10 10 10-4.477 10-10c0-2.652-1.054-5.196-2.929-7.071-1.875-1.875-4.419-2.929-7.071-2.929zm0 18c-4.418 0-8-3.582-8-8s3.582-8 8-8 8 3.582 8 8c0 2.122-.843 4.157-2.343 5.657S532.122 37.5 530 37.5zm4-9h-3v-3c0-.552-.448-1-1-1s-1 .448-1 1v3h-3c-.552 0-1 .448-1 1s.448 1 1 1h3v3c0 .552.448 1 1 1s1-.448 1-1v-3h3c.552 0 1-.448 1-1s-.448-1-1-1z" transform="translate(-846 -314) translate(326 295) rotate(45 530 29.5)"/>
            </g>
        </g>
    </g>
</svg>
