<?xml version="1.0" encoding="UTF-8"?>
<svg width="20px" height="16px" viewBox="0 0 20 16" version="1.1" xmlns="http://www.w3.org/2000/svg" xmlns:xlink="http://www.w3.org/1999/xlink">
    <title>Shape</title>
    <g id="Workflow--Add-New-Job" stroke="none" stroke-width="1" fill="none" fill-rule="evenodd">
        <g id="Workflow--Add-New-Job:-New-Shift-[Basic]-(4)" transform="translate(-346.000000, -424.000000)" fill="#AFAFAF" fill-rule="nonzero">
            <g id="Group-8" transform="translate(326.000000, 359.000000)">
                <g id="Group" transform="translate(20.000000, 10.000000)">
                    <g id="Group-17" transform="translate(0.000000, 45.000000)">
                        <path d="M10.2866946,18.4380514 C11.2695284,17.5873067 11.8342647,16.3515308 11.8342505,15.0516351 C11.8342505,12.5378366 9.79641417,10.5000003 7.28261568,10.5000003 C4.76881719,10.5000003 2.73098088,12.5378366 2.73098088,15.0516351 C2.73096667,16.3515308 3.29570294,17.5873067 4.27853671,18.4380514 C1.67585819,19.6165952 0.00273653397,22.2081539 0,25.0652317 C0,25.5679914 0.407567263,25.9755586 0.91032696,25.9755586 C1.41308666,25.9755586 1.82065392,25.5679914 1.82065392,25.0652317 C1.82065392,22.0486735 4.2660575,19.6032699 7.28261568,19.6032699 C10.2991739,19.6032699 12.7445774,22.0486735 12.7445774,25.0652317 C12.7445774,25.5679914 13.1521447,25.9755586 13.6549044,25.9755586 C14.1576641,25.9755586 14.5652314,25.5679914 14.5652314,25.0652317 C14.5624948,22.2081539 12.8893732,19.6165952 10.2866946,18.4380514 L10.2866946,18.4380514 Z M7.28261568,17.782616 C5.77433659,17.782616 4.5516348,16.5599142 4.5516348,15.0516351 C4.5516348,13.543356 5.77433659,12.3206542 7.28261568,12.3206542 C8.79089477,12.3206542 10.0135966,13.543356 10.0135966,15.0516351 C10.0135966,15.7759363 9.72586904,16.470572 9.21371078,16.9827302 C8.70155251,17.4948885 8.00691684,17.782616 7.28261568,17.782616 Z M16.1492003,18.0739206 C17.3392324,16.7338217 17.632084,14.8201199 16.897275,13.1854648 C16.1624661,11.5508096 14.5367943,10.499521 12.7445774,10.5000002 C12.2418177,10.5000002 11.8342505,10.9075676 11.8342505,11.4103273 C11.8342505,11.913087 12.2418177,12.3206542 12.7445774,12.3206542 C14.2528565,12.3206542 15.4755583,13.543356 15.4755583,15.0516351 C15.4729367,16.024693 14.9527658,16.9228548 14.1100679,17.409382 C13.8356115,17.5676941 13.6632132,17.8573233 13.6549044,18.1740566 C13.6471621,18.4882332 13.8020199,18.7841836 14.0645515,18.9569378 L14.419579,19.1936228 L14.5379215,19.2573457 C16.7783046,20.3199578 18.1988328,22.5857002 18.1792294,25.0652317 C18.1792294,25.5679914 18.5867967,25.9755586 19.0895563,25.9755586 C19.592316,25.9755586 19.9998833,25.5679914 19.9998833,25.0652317 C20.0150137,22.2248562 18.5578913,19.5793007 16.1492003,18.0739206 L16.1492003,18.0739206 Z" id="Shape"></path>
                    </g>
                </g>
            </g>
        </g>
    </g>
</svg>