<svg xmlns="http://www.w3.org/2000/svg" width="20" height="16" viewBox="0 0 20 16">
    <g fill="none" fill-rule="evenodd">
        <g fill="#856FF9" fill-rule="nonzero">
            <g>
                <g>
                    <g>
                        <g>
                            <path d="M19.92 7.6C17.9 2.91 14.1 0 10 0S2.1 2.91.08 7.6c-.111.255-.111.545 0 .8C2.1 13.09 5.9 16 10 16s7.9-2.91 9.92-7.6c.111-.255.111-.545 0-.8zM10 14c-3.17 0-6.17-2.29-7.9-6C3.83 4.29 6.83 2 10 2s6.17 2.29 7.9 6c-1.73 3.71-4.73 6-7.9 6zm0-10C7.79 4 6 5.79 6 8s1.79 4 4 4 4-1.79 4-4c0-1.06-.421-2.078-1.172-2.828C12.078 4.422 11.061 4 10 4zm0 6c-1.105 0-2-.895-2-2s.895-2 2-2 2 .895 2 2-.895 2-2 2z" transform="translate(-1359 -432) translate(638 157) translate(50 201) translate(0 50) translate(671 24)"/>
                        </g>
                    </g>
                </g>
            </g>
        </g>
    </g>
</svg>
