<svg xmlns="http://www.w3.org/2000/svg" width="20" height="20" viewBox="0 0 20 20">
    <defs>
        <linearGradient id="bel7bb5kia" x1="0%" x2="132.531%" y1="0%" y2="126.544%">
            <stop offset="0%" stop-color="#2E00FF" stop-opacity=".4"/>
            <stop offset="100%" stop-color="#00B8FF" stop-opacity=".15"/>
        </linearGradient>
    </defs>
    <g fill="none" fill-rule="evenodd">
        <g>
            <g>
                <g transform="translate(-764 -363) translate(748 314) translate(16 49)">
                    <circle cx="10" cy="10" r="10" fill="#FFF"/>
                    <circle cx="10" cy="10" r="10" fill="url(#bel7bb5kia)"/>
                    <g fill="#333" fill-rule="nonzero">
                        <path d="M9.852 2.074H7.778v-.518C7.778.696 7.08 0 6.222 0H4.148C3.29 0 2.593.696 2.593 1.556v.518H.519c-.287 0-.519.232-.519.519v2.074c.002.44.19.858.519 1.15v2.998c0 .859.696 1.555 1.555 1.555h6.222c.86 0 1.556-.696 1.556-1.555V5.818c.328-.293.516-.712.518-1.151V2.593c0-.287-.232-.519-.518-.519zM3.63 1.556c0-.287.232-.519.518-.519h2.074c.287 0 .519.232.519.519v.518H3.63v-.518zm5.185 7.259c0 .286-.232.518-.519.518H2.074c-.286 0-.518-.232-.518-.518V6.222h1.037v.519c0 .286.232.518.518.518.286 0 .519-.232.519-.518v-.519h3.11v.519c0 .286.233.518.52.518.286 0 .518-.232.518-.518v-.519h1.037v2.593zm.518-4.148c0 .286-.232.518-.518.518H7.778v-.518c0-.287-.232-.519-.519-.519-.286 0-.518.232-.518.519v.518H3.63v-.518c0-.287-.233-.519-.519-.519-.286 0-.518.232-.518.519v.518H1.556c-.287 0-.519-.232-.519-.518V3.11h8.296v1.556z" transform="translate(4.815 4.444)"/>
                    </g>
                </g>
            </g>
        </g>
    </g>
</svg>
