<svg xmlns="http://www.w3.org/2000/svg" width="20" height="20" viewBox="0 0 20 20">
    <g fill="none" fill-rule="evenodd">
        <g fill="#856FF9" fill-rule="nonzero">
            <g>
                <g>
                    <path d="M12 12c.552 0 1 .448 1 1v10c0 1.657 1.343 3 3 3h8c.552 0 1 .448 1 1s-.448 1-1 1h-8c-2.761 0-5-2.239-5-5V13c0-.552.448-1 1-1zm16-4c1.657 0 3 1.343 3 3v10c0 1.657-1.343 3-3 3H18c-1.657 0-3-1.343-3-3V11c0-1.657 1.343-3 3-3h10zm0 2H18c-.513 0-.936.386-.993.883L17 11v10c0 .513.386.936.883.993L18 22h10c.513 0 .936-.386.993-.883L29 21V11c0-.552-.448-1-1-1z" transform="translate(-538 -190) translate(87 182) translate(440)"/>
                </g>
            </g>
        </g>
    </g>
</svg>
