<svg xmlns="http://www.w3.org/2000/svg" width="17" height="17" viewBox="0 0 17 17">
    <g fill="none" fill-rule="evenodd">
        <g fill="#856FF9" fill-rule="nonzero">
            <g>
                <g>
                    <path d="M25.761 24.567l-3.151-3.129c2.54-3.17 2.161-7.773-.862-10.485-3.024-2.711-7.638-2.585-10.509.288-2.87 2.873-2.997 7.49-.287 10.517 2.71 3.025 7.31 3.404 10.477.862l3.126 3.129c.16.16.377.251.603.251.227 0 .444-.09.603-.251.319-.33.319-.853 0-1.182zm-9.098-1.947c-3.284 0-5.946-2.664-5.946-5.951 0-3.287 2.662-5.95 5.946-5.95s5.947 2.663 5.947 5.95c0 1.578-.627 3.092-1.742 4.208s-2.628 1.743-4.205 1.743z" transform="translate(-1340 -201) translate(638 157) translate(693 35)"/>
                </g>
            </g>
        </g>
    </g>
</svg>
