<svg xmlns="http://www.w3.org/2000/svg" width="34" height="34" viewBox="0 0 34 34">
    <g fill="none" fill-rule="evenodd">
        <g>
            <g>
                <g>
                    <g transform="translate(-718 -557) translate(638 157) translate(80 332) translate(0 68)">
                        <circle cx="17" cy="17" r="17" fill="#856FF9"/>
                        <path fill="#FFF" fill-rule="nonzero" d="M24.633 11.343c-.213-.22-.504-.343-.808-.343-.303 0-.594.123-.808.343l-8.482 8.65-3.563-3.641c-.3-.294-.73-.403-1.13-.287-.399.117-.707.442-.807.852-.101.411.021.845.32 1.14l4.372 4.452c.214.22.505.343.808.343.304 0 .595-.124.809-.343l9.29-9.462c.233-.22.366-.528.366-.852 0-.324-.133-.633-.367-.852z"/>
                    </g>
                </g>
            </g>
        </g>
    </g>
</svg>
