<svg xmlns="http://www.w3.org/2000/svg" width="17" height="19" viewBox="0 0 17 19">
    <g fill="none" fill-rule="evenodd">
        <g fill="#FD4C6C" fill-rule="nonzero">
            <g>
                <g>
                    <path d="M6.611 15.111c.522 0 .945-.423.945-.944V8.5c0-.522-.423-.944-.945-.944-.521 0-.944.422-.944.944v5.667c0 .521.423.944.944.944zm9.445-11.333h-3.778v-.945C12.278 1.27 11.009 0 9.444 0H7.556C5.99 0 4.722 1.269 4.722 2.833v.945H.944C.423 3.778 0 4.2 0 4.722c0 .522.423.945.944.945h.945v10.389c0 1.564 1.268 2.833 2.833 2.833h7.556c1.565 0 2.833-1.269 2.833-2.833V5.666h.945c.521 0 .944-.422.944-.944 0-.521-.423-.944-.944-.944zM6.61 2.833c0-.521.423-.944.945-.944h1.888c.522 0 .945.423.945.944v.945H6.61v-.945zm6.611 13.223c0 .521-.423.944-.944.944H4.722c-.521 0-.944-.423-.944-.944V5.666h9.444v10.39zm-2.833-.945c.521 0 .944-.423.944-.944V8.5c0-.522-.423-.944-.944-.944-.522 0-.945.422-.945.944v5.667c0 .521.423.944.945.944z" transform="translate(-673 -372) translate(224 327) translate(449 45)"/>
                </g>
            </g>
        </g>
    </g>
</svg>
