<svg xmlns="http://www.w3.org/2000/svg" width="34" height="34" viewBox="0 0 34 34">
    <defs>
        <linearGradient id="pdvh3mslha" x1="0%" x2="132.531%" y1="0%" y2="126.544%">
            <stop offset="0%" stop-color="#2E00FF" stop-opacity=".4"/>
            <stop offset="100%" stop-color="#00B8FF" stop-opacity=".15"/>
        </linearGradient>
    </defs>
    <g fill="none" fill-rule="evenodd">
        <g>
            <g>
                <g>
                    <g transform="translate(-718 -1216) translate(638 157) translate(80 994) translate(0 65)">
                        <circle cx="17" cy="17" r="17" fill="#FFF"/>
                        <circle cx="17" cy="17" r="17" fill="url(#pdvh3mslha)"/>
                        <g fill="#333" fill-rule="nonzero">
                            <path d="M12.088 9.44c1.78-1.393 2.477-3.755 1.736-5.884C13.083 1.428 11.067 0 8.802 0S4.52 1.428 3.779 3.556c-.74 2.13-.044 4.491 1.736 5.884-3.032 1.208-5.15 3.978-5.51 7.206-.053.487.3.925.789.978.489.054.93-.297.983-.784.403-3.565 3.435-6.26 7.042-6.26 3.608 0 6.64 2.695 7.043 6.26.05.449.432.787.886.784h.097c.483-.055.831-.488.78-.969-.362-3.238-2.492-6.013-5.537-7.215zm-3.273-.625c-1.826 0-3.306-1.48-3.306-3.306 0-1.825 1.48-3.305 3.306-3.305 1.825 0 3.305 1.48 3.305 3.305 0 .877-.348 1.718-.968 2.338-.62.62-1.46.968-2.337.968z" transform="translate(8.185 7.556)"/>
                        </g>
                    </g>
                </g>
            </g>
        </g>
    </g>
</svg>
