<svg xmlns="http://www.w3.org/2000/svg" width="24" height="32" viewBox="0 0 24 32">
  <g fill="#FFFFFF" fill-rule="evenodd" transform="rotate(15 20.148 6.302)">
    <path fill-rule="nonzero" d="M2.20172727 6.07304C2.05384242 5.48024 1.46049091 5.1216.876672727 5.2716.292618182 5.42192-.0606666667 6.02432.0872969697 6.61728L7.21279394 35.16432C7.33798788 35.666 7.78195758 36 8.26926061 36 8.35805455 36 8.44818788 35.98888 8.53816364 35.96576 9.12190303 35.8156 9.47534545 35.21304 9.32738182 34.62024L2.20172727 6.07304zM25.9196364 14.11352C24.7583818 9.75968 23.5960242 5.40616 22.4345333 1.05232 22.3086303.58104 22.0879455.07552 21.2583091.02496 14.7277394-.45528 10.4396303 6.14832 3.90898182 5.668 3.3936303 5.60352 3.06240606 5.876 3.1882303 6.34728 4.3498 10.70104 5.50238788 15.05744 6.67325455 19.40856 6.86116364 20.10688 7.33412727 20.37136 7.84963636 20.43592 14.3801273 20.91624 18.6683939 14.31264 25.1991212 14.79296 25.7143939 14.85728 26.0454606 14.58488 25.9196364 14.11352z"/>
  </g>
</svg>
