<svg xmlns="http://www.w3.org/2000/svg" width="14" height="15" viewBox="0 0 14 15">
  <path fill="#1A394A" d="M7,12.2727273 C7.38659932,12.2727273 7.7,11.9674669 7.7,11.5909091 C7.7,11.2143513 7.38659932,10.9090909 7,10.9090909 C6.61340068,10.9090909 6.3,11.2143513 6.3,11.5909091 C6.3,11.9674669 6.61340068,12.2727273 7,12.2727273 Z M10.5,12.2727273 C10.8865993,12.2727273 11.2,11.9674669 11.2,11.5909091 C11.2,11.2143513 10.8865993,10.9090909 10.5,10.9090909 C10.1134007,10.9090909 9.8,11.2143513 9.8,11.5909091 C9.8,11.9674669 10.1134007,12.2727273 10.5,12.2727273 Z M10.5,9.54545455 C10.8865993,9.54545455 11.2,9.24019415 11.2,8.86363636 C11.2,8.48707858 10.8865993,8.18181818 10.5,8.18181818 C10.1134007,8.18181818 9.8,8.48707858 9.8,8.86363636 C9.8,9.24019415 10.1134007,9.54545455 10.5,9.54545455 Z M7,9.54545455 C7.38659932,9.54545455 7.7,9.24019415 7.7,8.86363636 C7.7,8.48707858 7.38659932,8.18181818 7,8.18181818 C6.61340068,8.18181818 6.3,8.48707858 6.3,8.86363636 C6.3,9.24019415 6.61340068,9.54545455 7,9.54545455 Z M11.9,1.36363636 L11.2,1.36363636 L11.2,0.681818182 C11.2,0.305260398 10.8865993,0 10.5,0 C10.1134007,0 9.8,0.305260398 9.8,0.681818182 L9.8,1.36363636 L4.2,1.36363636 L4.2,0.681818182 C4.2,0.305260398 3.88659932,0 3.5,0 C3.11340068,0 2.8,0.305260398 2.8,0.681818182 L2.8,1.36363636 L2.1,1.36363636 C0.940202025,1.36363636 -1.33226763e-16,2.27941756 -4.4408921e-16,3.40909091 L-4.4408921e-16,12.9545455 C-1.33226763e-16,14.0842188 0.940202025,15 2.1,15 L11.9,15 C13.059798,15 14,14.0842188 14,12.9545455 L14,3.40909091 C14,2.27941756 13.059798,1.36363636 11.9,1.36363636 Z M12.6,12.9545455 C12.6,13.3311032 12.2865993,13.6363636 11.9,13.6363636 L2.1,13.6363636 C1.71340068,13.6363636 1.4,13.3311032 1.4,12.9545455 L1.4,6.81818182 L12.6,6.81818182 L12.6,12.9545455 Z M12.6,5.45454545 L1.4,5.45454545 L1.4,3.40909091 C1.4,3.03253313 1.71340068,2.72727273 2.1,2.72727273 L2.8,2.72727273 L2.8,3.40909091 C2.8,3.78564869 3.11340068,4.09090909 3.5,4.09090909 C3.88659932,4.09090909 4.2,3.78564869 4.2,3.40909091 L4.2,2.72727273 L9.8,2.72727273 L9.8,3.40909091 C9.8,3.78564869 10.1134007,4.09090909 10.5,4.09090909 C10.8865993,4.09090909 11.2,3.78564869 11.2,3.40909091 L11.2,2.72727273 L11.9,2.72727273 C12.2865993,2.72727273 12.6,3.03253313 12.6,3.40909091 L12.6,5.45454545 Z M3.5,9.54545455 C3.88659932,9.54545455 4.2,9.24019415 4.2,8.86363636 C4.2,8.48707858 3.88659932,8.18181818 3.5,8.18181818 C3.11340068,8.18181818 2.8,8.48707858 2.8,8.86363636 C2.8,9.24019415 3.11340068,9.54545455 3.5,9.54545455 Z M3.5,12.2727273 C3.88659932,12.2727273 4.2,11.9674669 4.2,11.5909091 C4.2,11.2143513 3.88659932,10.9090909 3.5,10.9090909 C3.11340068,10.9090909 2.8,11.2143513 2.8,11.5909091 C2.8,11.9674669 3.11340068,12.2727273 3.5,12.2727273 Z"/>
</svg>
