<svg xmlns="http://www.w3.org/2000/svg" width="14" height="14" viewBox="0 0 14 14">
  <path fill="#1A394A" d="M13,6 C10.2207473,6.00527602 7.70682073,7.64986719 6.59061164,10.192972 C5.47440255,12.7360767 5.96652787,15.6978378 7.84531112,17.7441382 L7.84531112,17.7441382 C9.17301579,19.1821027 11.0419273,20 13,20 C14.9580727,20 16.8269842,19.1821027 18.1546889,17.7441382 L18.1546889,17.7441382 C20.0334721,15.6978378 20.5255975,12.7360767 19.4093884,10.192972 C18.2931793,7.64986719 15.7792527,6.00527602 13,6 Z M13,18.6130362 C11.5471948,18.6108301 10.1518872,18.045644 9.10768391,17.0364067 C9.75607578,15.4592846 11.2935579,14.4295742 13,14.4295742 C14.7064421,14.4295742 16.2439242,15.4592846 16.8923161,17.0364067 C15.8481128,18.045644 14.4528052,18.6108301 13,18.6130362 Z M11.5973636,11.6057939 C11.5973636,10.8317953 12.2253453,10.2043454 13,10.2043454 C13.7746547,10.2043454 14.4026364,10.8317953 14.4026364,11.6057939 C14.4026364,12.3797925 13.7746547,13.0072424 13,13.0072424 C12.2253453,13.0072424 11.5973636,12.3797925 11.5973636,11.6057939 Z M17.8461089,15.8101393 C17.219503,14.7392638 16.2550997,13.9062914 15.1039546,13.4416914 C16.098584,12.3148429 16.027044,10.6048197 14.9417638,9.56483838 C13.8564836,8.52485704 12.1435164,8.52485704 11.0582362,9.56483838 C9.97295602,10.6048197 9.90141601,12.3148429 10.8960454,13.4416914 C9.74490027,13.9062914 8.78049702,14.7392638 8.15389113,15.8101393 C7.65451313,14.9602323 7.39066059,13.9927862 7.38945428,13.0072424 C7.38945428,9.91124788 9.90138116,7.40144847 13,7.40144847 C16.0986188,7.40144847 18.6105457,9.91124788 18.6105457,13.0072424 C18.6093394,13.9927862 18.3454869,14.9602323 17.8461089,15.8101393 Z" transform="translate(-6 -6)"/>
</svg>
