<svg xmlns="http://www.w3.org/2000/svg" width="14" height="8" viewBox="0 0 14 8">
  <path fill="#1A394A" d="M1.197,6.86 C1.1304274,6.79930625 1.05192592,6.75172959 0.966,6.72 C0.795577051,6.65332132 0.604422949,6.65332132 0.434,6.72 C0.348074078,6.75172959 0.269572597,6.79930625 0.203,6.86 C0.139271559,6.92340247 0.0893160717,6.99816579 0.056,7.08 C-0.0536177111,7.32826473 0.0043788065,7.61495953 0.203,7.80666667 C0.271040659,7.86555396 0.349170575,7.91290542 0.434,7.94666667 C0.603427916,8.01798452 0.796572084,8.01798452 0.966,7.94666667 C1.05082943,7.91290542 1.12895934,7.86555396 1.197,7.80666667 C1.39562119,7.61495953 1.45361771,7.32826473 1.344,7.08 C1.31068393,6.99816579 1.26072844,6.92340247 1.197,6.86 Z M3.5,1.33333333 L13.3,1.33333333 C13.6865993,1.33333333 14,1.0348565 14,0.666666667 C14,0.298476833 13.6865993,0 13.3,0 L3.5,0 C3.11340068,0 2.8,0.298476833 2.8,0.666666667 C2.8,1.0348565 3.11340068,1.33333333 3.5,1.33333333 Z M1.197,3.52666667 C0.99570751,3.33750363 0.694677967,3.28226885 0.434,3.38666667 C0.349170575,3.42042791 0.271040659,3.46777938 0.203,3.52666667 C0.139271559,3.59006914 0.0893160717,3.66483245 0.056,3.74666667 C-0.0188837503,3.90802659 -0.0188837503,4.09197341 0.056,4.25333333 C0.0914493075,4.33412326 0.141168345,4.40853271 0.203,4.47333333 C0.271040659,4.53222062 0.349170575,4.57957209 0.434,4.61333333 C0.603427916,4.68465119 0.796572084,4.68465119 0.966,4.61333333 C1.05082943,4.57957209 1.12895934,4.53222062 1.197,4.47333333 C1.25883166,4.40853271 1.30855069,4.33412326 1.344,4.25333333 C1.41888375,4.09197341 1.41888375,3.90802659 1.344,3.74666667 C1.31068393,3.66483245 1.26072844,3.59006914 1.197,3.52666667 L1.197,3.52666667 Z M13.3,3.33333333 L3.5,3.33333333 C3.11340068,3.33333333 2.8,3.63181017 2.8,4 C2.8,4.36818983 3.11340068,4.66666667 3.5,4.66666667 L13.3,4.66666667 C13.6865993,4.66666667 14,4.36818983 14,4 C14,3.63181017 13.6865993,3.33333333 13.3,3.33333333 Z M1.197,0.193333333 C1.1304274,0.13263958 1.05192592,0.0850629254 0.966,0.0533333333 C0.705322033,-0.0510644867 0.40429249,0.0041702919 0.203,0.193333333 C0.141168345,0.258133961 0.0914493075,0.332543404 0.056,0.413333333 C-0.0188837503,0.574693253 -0.0188837503,0.75864008 0.056,0.92 C0.0914493075,1.00078993 0.141168345,1.07519937 0.203,1.14 C0.271040659,1.19888729 0.349170575,1.24623875 0.434,1.28 C0.694677967,1.38439782 0.99570751,1.32916304 1.197,1.14 C1.25883166,1.07519937 1.30855069,1.00078993 1.344,0.92 C1.41888375,0.75864008 1.41888375,0.574693253 1.344,0.413333333 C1.30855069,0.332543404 1.25883166,0.258133961 1.197,0.193333333 L1.197,0.193333333 Z M13.3,6.66666667 L3.5,6.66666667 C3.11340068,6.66666667 2.8,6.9651435 2.8,7.33333333 C2.8,7.70152317 3.11340068,8 3.5,8 L13.3,8 C13.6865993,8 14,7.70152317 14,7.33333333 C14,6.9651435 13.6865993,6.66666667 13.3,6.66666667 Z"/>
</svg>
