<svg xmlns="http://www.w3.org/2000/svg" width="15" height="14" viewBox="0 0 15 14">
  <path fill="#1A394A" d="M13.9214286,1.911 L10.7142857,0.119 C10.4932849,-0.00604295647 10.2210008,-0.00604295647 10,0.119 L7.14285714,1.715 L4.28571429,0.119 C4.06471352,-0.00604295647 3.79242934,-0.00604295647 3.57142857,0.119 L0.364285714,1.911 C0.139652209,2.03474189 0.000444067099,2.26746515 -2.22044605e-16,2.52 L-2.22044605e-16,6.104 C0.000444067099,6.35653485 0.139652209,6.58925811 0.364285714,6.713 L3.22142857,8.302 L3.22142857,11.48 C3.22187264,11.7325349 3.36108078,11.9652581 3.58571429,12.089 L6.8,13.881 C7.02100077,14.006043 7.29328495,14.006043 7.51428571,13.881 L10.7142857,12.089 C10.9389192,11.9652581 11.0781274,11.7325349 11.0785714,11.48 L11.0785714,8.302 L13.9357143,6.713 C14.1603478,6.58925811 14.2995559,6.35653485 14.3,6.104 L14.3,2.52 C14.2966862,2.26450248 14.1515799,2.0310729 13.9214286,1.911 Z M1.42857143,5.698 L1.42857143,2.898 L3.92857143,1.498 L6.42857143,2.898 L6.42857143,5.698 L3.92857143,7.098 L1.42857143,5.698 Z M9.64285714,11.074 L7.14285714,12.474 L4.64285714,11.074 L4.64285714,8.274 L7.14285714,6.874 L9.64285714,8.274 L9.64285714,11.074 Z M12.8571429,5.698 L10.3571429,7.098 L7.85714286,5.698 L7.85714286,2.898 L10.3571429,1.498 L12.8571429,2.898 L12.8571429,5.698 Z"/>
</svg>
